<svg version="1.1" id="Layer_1" xmlns="http://www.w3.org/2000/svg" x="0" y="0" viewBox="0 0 1126 628" xml:space="preserve"><style>.st0{fill:#e2e2e2}</style><circle class="st0" cx="213.3" cy="15.2" r="15.2"/><path class="st0" d="M172.6 30.2h-70.4c-8.3.2-15.3-6.4-15.5-14.7S93 .2 101.4 0h71.2c8.3.2 14.9 7.1 14.7 15.5-.2 8-6.7 14.5-14.7 14.7z"/><circle class="st0" cx="16.8" cy="62.9" r="15.2"/><path class="st0" d="M57.4 47.9h70.4c8.3.2 14.9 7.1 14.7 15.5-.2 8-6.7 14.5-14.7 14.7H57.4c-8.3-.2-14.9-7.1-14.7-15.5.2-8 6.7-14.5 14.7-14.7zm112.4 0h215.5c8.3.2 14.9 7.1 14.7 15.5-.2 8-6.7 14.5-14.7 14.7H169.8c-8.3-.2-14.9-7.1-14.7-15.5.2-8 6.7-14.5 14.7-14.7z"/><circle class="st0" cx="228.2" cy="111.9" r="15.2"/><path class="st0" d="M268.9 96.8h70.5c8.3.2 14.9 7.1 14.7 15.5-.2 8-6.7 14.5-14.7 14.7h-70.5c-8.3.2-15.3-6.4-15.5-14.7s6.4-15.3 14.7-15.5h.8zm112.4 0h215.5c8.3.2 14.9 7.1 14.7 15.5-.2 8-6.7 14.5-14.7 14.7H381.3c-8.3.2-15.3-6.4-15.5-14.7s6.4-15.3 14.7-15.5h.8z"/><circle class="st0" cx="688.3" cy="160.2" r="15.2"/><path class="st0" d="M647.6 175.2h-70.4c-8.3.2-15.3-6.4-15.5-14.7-.2-8.3 6.4-15.3 14.7-15.5h71.2c8.3.2 14.9 7.1 14.7 15.5-.2 8.1-6.7 14.5-14.7 14.7z"/><circle class="st0" cx="466" cy="209.1" r="15.2"/><path class="st0" d="M506.7 194.1h70.4c8.3.2 14.9 7.1 14.7 15.5-.2 8-6.7 14.5-14.7 14.7h-70.4c-8.3-.2-14.9-7.1-14.7-15.5.2-8 6.7-14.5 14.7-14.7z"/><circle class="st0" cx="907.5" cy="612.8" r="15.2"/><path class="st0" d="M948.2 597.8h70.5c8.3.2 14.9 7.1 14.7 15.5-.2 8-6.7 14.5-14.7 14.7h-70.5c-8.3-.2-14.9-7.1-14.7-15.5.2-8 6.7-14.5 14.7-14.7z"/><circle class="st0" cx="1104.1" cy="565.1" r="15.2"/><path class="st0" d="M1063.4 580.1h-70.5c-8.3.2-15.3-6.4-15.5-14.7s6.4-15.3 14.7-15.5h71.3c8.3.2 14.9 7.1 14.7 15.5-.2 8-6.7 14.5-14.7 14.7zm-112.4 0H735.5c-8.3.2-15.3-6.4-15.5-14.7s6.4-15.3 14.7-15.5H951c8.3.2 14.9 7.1 14.7 15.5-.2 8-6.7 14.5-14.7 14.7z"/><circle class="st0" cx="892.5" cy="516.1" r="15.2"/><path class="st0" d="M851.9 531.2h-70.5c-8.3.2-15.3-6.4-15.5-14.7s6.4-15.3 14.7-15.5h71.3c8.3-.2 15.3 6.4 15.5 14.7s-6.4 15.3-14.7 15.5h-.8zm-112.4 0H524c-8.3-.4-14.8-7.4-14.4-15.8.3-7.8 6.6-14.1 14.4-14.4h215.5c8.3.2 14.9 7.1 14.7 15.5-.2 8-6.7 14.5-14.7 14.7z"/><circle class="st0" cx="432.5" cy="467.8" r="15.2"/><path class="st0" d="M473.2 452.8h70.5c8.3.2 14.9 7.1 14.7 15.5-.2 8-6.7 14.5-14.7 14.7h-70.5c-8.3-.2-14.9-7.1-14.7-15.5.2-8.1 6.7-14.5 14.7-14.7z"/><circle class="st0" cx="654.8" cy="418.9" r="15.2"/><path class="st0" d="M614.1 433.9h-70.5c-8.3-.2-14.9-7.1-14.7-15.5.2-8 6.7-14.5 14.7-14.7h70.5c8.3-.2 15.3 6.4 15.5 14.7s-6.4 15.3-14.7 15.5h-.8zm-119.4 0H279.2c-8.3.2-15.3-6.4-15.5-14.7s6.4-15.3 14.7-15.5h216.3c8.3-.2 15.3 6.4 15.5 14.7s-6.4 15.3-14.7 15.5h-.8zm-262.9 0H16.3C8 434.1 1 427.5.8 419.2s6.4-15.3 14.7-15.5h216.3c8.3.2 14.9 7.1 14.7 15.5-.2 8-6.7 14.5-14.7 14.7zm579.6 48.9H595.9c-8.3.2-15.3-6.4-15.5-14.7s6.4-15.3 14.7-15.5h216.3c8.3.2 14.9 7.1 14.7 15.5-.2 8.1-6.7 14.5-14.7 14.7z"/><circle class="st0" cx="465.1" cy="63.5" r="15.2"/><path class="st0" d="M505.8 48.5h70.4c8.3.2 14.9 7.1 14.7 15.5-.2 8-6.7 14.5-14.7 14.7h-70.4c-8.3.2-15.3-6.4-15.5-14.7s6.4-15.3 14.7-15.5h.8z"/><circle class="st0" cx="1105" cy="363.2" r="15.2"/><path class="st0" d="M1064.3 378.3h-70.5c-8.3.2-15.3-6.4-15.5-14.7s6.4-15.3 14.7-15.5h71.2c8.3.2 14.9 7.1 14.7 15.5-.1 8-6.6 14.5-14.6 14.7zm-119.4 0H729.4c-8.3-.2-14.9-7.1-14.7-15.5.2-8 6.7-14.5 14.7-14.7h215.5c8.3-.2 15.3 6.4 15.5 14.7s-6.4 15.3-14.7 15.5h-.8zm-308.2 0H421.2c-8.3-.2-14.9-7.1-14.7-15.5.2-8 6.7-14.5 14.7-14.7h215.5c8.3-.2 15.3 6.4 15.5 14.7s-6.4 15.3-14.7 15.5h-.8z"/><circle class="st0" cx="682.6" cy="363.2" r="15.2"/><circle class="st0" cx="16.6" cy="310.7" r="15.2"/><path class="st0" d="M58.3 295.6h70.4c8.3-.2 15.3 6.4 15.5 14.7s-6.4 15.3-14.7 15.5H58.3c-8.3.2-15.3-6.3-15.5-14.7s6.4-15.3 14.7-15.5h.8zm119.4 0h215.5c8.3-.2 15.3 6.4 15.5 14.7s-6.4 15.3-14.7 15.5H177.7c-8.3-.2-14.9-7.1-14.7-15.5.2-8 6.7-14.4 14.7-14.7zm308.2 0h215.5c8.3-.2 15.3 6.4 15.5 14.7s-6.4 15.3-14.7 15.5H485.9c-8.3-.2-14.9-7.1-14.7-15.5.2-8 6.7-14.4 14.7-14.7z"/><circle class="st0" cx="440" cy="310.7" r="15.2"/><circle class="st0" cx="988.3" cy="262.9" r="15.2"/><path class="st0" d="M947.7 278h-70.4c-8.3-.2-14.9-7.1-14.7-15.5.2-8 6.7-14.5 14.7-14.7h70.5c8.3.2 14.9 7.1 14.7 15.5-.3 8-6.8 14.5-14.8 14.7zm-112.4 0H619.8c-8.3.2-15.3-6.4-15.5-14.7s6.4-15.3 14.7-15.5h216.3c8.3.2 14.9 7.1 14.7 15.5-.2 8-6.7 14.5-14.7 14.7zm-706.6-81.5h215.5c8.3.2 14.9 7.1 14.7 15.5-.2 8-6.7 14.5-14.7 14.7H128.7c-8.3-.2-14.9-7.1-14.7-15.5.2-8 6.7-14.5 14.7-14.7z"/><circle class="st0" cx="82.9" cy="211.6" r="15.2"/><circle class="st0" cx="999.6" cy="63.5" r="15.2"/><path class="st0" d="M1040.3 48.5h70.4c8.3.2 14.9 7.1 14.7 15.5-.2 8-6.7 14.5-14.7 14.7h-70.4c-8.3-.2-14.9-7.1-14.7-15.5.2-8 6.7-14.5 14.7-14.7z"/></svg>