<svg xmlns="http://www.w3.org/2000/svg" width="83" height="83"><defs><clipPath id="a"><circle data-name="Ellipse 1976" cx="41.5" cy="41.5" r="41.5" transform="translate(0 .25)" fill="none"/></clipPath></defs><g data-name="Group 4176"><g data-name="Group 2284" transform="translate(0 -.25)" clip-path="url(#a)"><g data-name="Group 2283"><g data-name="Group 2281"><g data-name="Group 2279" fill="#b01820"><path data-name="Rectangle 860" d="M-21.692-.78h158.521v6.418H-21.692z"/><path data-name="Rectangle 861" d="M-21.692 76.234h158.521v6.418H-21.692z"/><path data-name="Rectangle 862" d="M-21.692 63.399h158.521v6.418H-21.692z"/><path data-name="Rectangle 863" d="M-21.692 50.563h158.521v6.418H-21.692z"/><path data-name="Rectangle 864" d="M-21.692 37.727h158.521v6.418H-21.692z"/><path data-name="Rectangle 865" d="M-21.692 24.891h158.521v6.418H-21.692z"/><path data-name="Rectangle 866" d="M-21.692 12.056h158.521v6.418H-21.692z"/></g><g data-name="Group 2280" fill="#fff"><path data-name="Rectangle 867" d="M-21.692 69.817h158.521v6.418H-21.692z"/><path data-name="Rectangle 868" d="M-21.692 56.981h158.521v6.418H-21.692z"/><path data-name="Rectangle 869" d="M-21.692 44.145h158.521v6.418H-21.692z"/><path data-name="Rectangle 870" d="M-21.692 31.309h158.521v6.418H-21.692z"/><path data-name="Rectangle 871" d="M-21.692 18.474h158.521v6.418H-21.692z"/><path data-name="Rectangle 872" d="M-21.692 5.638h158.521v6.418H-21.692z"/></g></g><path data-name="Rectangle 873" fill="#002a70" d="M-21.692-.78h63.408v44.925h-63.408z"/><g data-name="Group 2282" fill="#fff"><path data-name="Path 11636" d="M-16.408 1.143l-.577 1.775h-1.868l1.511 1.1-.577 1.776 1.51-1.1 1.511 1.1-.577-1.776 1.511-1.1h-1.868z"/><path data-name="Path 11637" d="M-5.84 1.143l-.577 1.775h-1.867l1.51 1.1-.577 1.776 1.51-1.1 1.51 1.1-.577-1.776 1.51-1.1h-1.867z"/><path data-name="Path 11638" d="M4.729 1.143l-.577 1.775H2.284l1.511 1.1-.577 1.776 1.511-1.1 1.51 1.1-.577-1.776 1.51-1.1H5.31z"/><path data-name="Path 11639" d="M15.295 1.143l-.576 1.775h-1.867l1.51 1.1-.577 1.776 1.511-1.1 1.511 1.1-.577-1.776 1.51-1.1h-1.867z"/><path data-name="Path 11640" d="M25.864 1.143l-.577 1.775H23.42l1.511 1.1-.577 1.776 1.511-1.1 1.51 1.1-.577-1.776 1.511-1.1h-1.867z"/><path data-name="Path 11641" d="M34.921 5.792l1.511-1.1 1.511 1.1-.577-1.776 1.511-1.1h-1.863l-.577-1.775-.577 1.775h-1.867l1.51 1.1z"/><path data-name="Path 11642" d="M-16.408 10.128l-.577 1.776h-1.868l1.511 1.1-.577 1.776 1.51-1.1 1.511 1.1-.577-1.776 1.511-1.1h-1.868z"/><path data-name="Path 11643" d="M-5.84 10.128l-.577 1.776h-1.867l1.51 1.1-.577 1.776 1.51-1.1 1.51 1.1-.577-1.776 1.51-1.1h-1.867z"/><path data-name="Path 11644" d="M4.729 10.128l-.577 1.776H2.284l1.511 1.1-.577 1.776 1.511-1.1 1.51 1.1-.577-1.776 1.51-1.1H5.31z"/><path data-name="Path 11645" d="M15.295 10.128l-.576 1.776h-1.867l1.51 1.1-.577 1.776 1.511-1.1 1.511 1.1-.577-1.776 1.51-1.1h-1.867z"/><path data-name="Path 11646" d="M25.864 10.128l-.577 1.776H23.42l1.511 1.1-.577 1.776 1.511-1.1 1.51 1.1-.577-1.776 1.511-1.1h-1.867z"/><path data-name="Path 11647" d="M36.432 10.128l-.577 1.776h-1.867l1.51 1.1-.577 1.776 1.511-1.1 1.511 1.1-.577-1.776 1.511-1.1h-1.863z"/><path data-name="Path 11648" d="M-16.408 19.113l-.577 1.776h-1.868l1.511 1.1-.577 1.775 1.51-1.1 1.511 1.1-.577-1.776 1.511-1.1h-1.868z"/><path data-name="Path 11649" d="M-5.84 19.113l-.577 1.776h-1.867l1.51 1.1-.577 1.775 1.51-1.1 1.51 1.1-.577-1.776 1.51-1.1h-1.867z"/><path data-name="Path 11650" d="M4.729 19.113l-.577 1.776H2.284l1.511 1.1-.577 1.775 1.511-1.1 1.51 1.1-.577-1.776 1.51-1.1H5.31z"/><path data-name="Path 11651" d="M15.295 19.113l-.576 1.776h-1.867l1.51 1.1-.577 1.775 1.511-1.1 1.511 1.1-.577-1.776 1.51-1.1h-1.867z"/><path data-name="Path 11652" d="M25.864 19.113l-.577 1.776H23.42l1.511 1.1-.577 1.775 1.511-1.1 1.51 1.1-.577-1.776 1.511-1.1h-1.867z"/><path data-name="Path 11653" d="M36.432 19.113l-.577 1.776h-1.867l1.51 1.1-.577 1.775 1.511-1.1 1.511 1.1-.577-1.776 1.511-1.1h-1.863z"/><path data-name="Path 11654" d="M-16.408 28.098l-.577 1.776h-1.868l1.511 1.1-.577 1.775 1.51-1.1 1.511 1.1-.577-1.775 1.511-1.1h-1.868z"/><path data-name="Path 11655" d="M-5.84 28.098l-.577 1.776h-1.867l1.51 1.1-.577 1.775 1.51-1.1 1.51 1.1-.577-1.775 1.51-1.1h-1.867z"/><path data-name="Path 11656" d="M4.729 28.098l-.577 1.776H2.284l1.511 1.1-.577 1.775 1.511-1.1 1.51 1.1-.577-1.775 1.51-1.1H5.31z"/><path data-name="Path 11657" d="M15.295 28.098l-.576 1.776h-1.867l1.51 1.1-.577 1.775 1.511-1.1 1.511 1.1-.577-1.775 1.51-1.1h-1.867z"/><path data-name="Path 11658" d="M25.864 28.098l-.577 1.776H23.42l1.511 1.1-.577 1.775 1.511-1.1 1.51 1.1-.577-1.775 1.511-1.1h-1.867z"/><path data-name="Path 11659" d="M36.432 28.098l-.577 1.776h-1.867l1.51 1.1-.577 1.775 1.511-1.1 1.511 1.1-.577-1.775 1.511-1.1h-1.863z"/><path data-name="Path 11660" d="M-15.831 38.859l-.577-1.776-.577 1.776h-1.868l1.511 1.1-.577 1.776 1.51-1.1 1.511 1.1-.577-1.776 1.511-1.1z"/><path data-name="Path 11661" d="M-5.263 38.859l-.577-1.776-.577 1.776h-1.867l1.51 1.1-.577 1.776 1.51-1.1 1.51 1.1-.577-1.776 1.51-1.1z"/><path data-name="Path 11662" d="M5.31 38.859l-.577-1.776-.577 1.776H2.288l1.511 1.1-.577 1.776 1.511-1.1 1.51 1.1-.577-1.776 1.51-1.1z"/><path data-name="Path 11663" d="M15.873 38.859l-.577-1.776-.576 1.776h-1.867l1.51 1.1-.577 1.776 1.511-1.1 1.511 1.1-.577-1.776 1.51-1.1z"/><path data-name="Path 11664" d="M26.442 38.859l-.577-1.776-.577 1.776h-1.867l1.511 1.1-.577 1.776 1.511-1.1 1.51 1.1-.577-1.776 1.511-1.1z"/><path data-name="Path 11665" d="M37.014 38.859l-.577-1.776-.577 1.776h-1.867l1.51 1.1-.577 1.776 1.511-1.1 1.511 1.1-.577-1.776 1.511-1.1z"/><path data-name="Path 11666" d="M-11.123 5.636l-.577 1.776h-1.867l1.51 1.1-.577 1.776 1.51-1.1 1.51 1.1-.577-1.776 1.511-1.1h-1.862z"/><path data-name="Path 11667" d="M-.556 5.636l-.577 1.776H-3l1.51 1.1-.577 1.776 1.51-1.1 1.511 1.1-.577-1.776 1.511-1.1H.021z"/><path data-name="Path 11668" d="M10.013 5.636l-.577 1.776H7.569l1.511 1.1-.577 1.776 1.511-1.1 1.51 1.1-.577-1.776 1.51-1.1H10.59z"/><path data-name="Path 11669" d="M20.581 5.636l-.577 1.776h-1.867l1.511 1.1-.577 1.776 1.51-1.1 1.511 1.1-.577-1.776 1.511-1.1h-1.863z"/><path data-name="Path 11670" d="M31.149 5.636l-.577 1.776h-1.867l1.511 1.1-.577 1.776 1.51-1.1 1.51 1.1-.577-1.776 1.51-1.1h-1.867z"/><path data-name="Path 11671" d="M-11.123 14.62l-.577 1.776h-1.867l1.51 1.1-.577 1.776 1.51-1.1 1.51 1.1-.577-1.776 1.511-1.1h-1.862z"/><path data-name="Path 11672" d="M-.556 14.62l-.577 1.776H-3l1.51 1.1-.577 1.776 1.51-1.1 1.511 1.1-.577-1.776 1.511-1.1H.021z"/><path data-name="Path 11673" d="M10.013 14.62l-.577 1.776H7.569l1.511 1.1-.577 1.776 1.511-1.1 1.51 1.1-.577-1.776 1.51-1.1H10.59z"/><path data-name="Path 11674" d="M20.581 14.62l-.577 1.776h-1.867l1.511 1.1-.577 1.776 1.51-1.1 1.511 1.1-.577-1.776 1.511-1.1h-1.863z"/><path data-name="Path 11675" d="M31.149 14.62l-.577 1.776h-1.867l1.511 1.1-.577 1.776 1.51-1.1 1.51 1.1-.577-1.776 1.51-1.1h-1.867z"/><path data-name="Path 11676" d="M-11.123 23.606l-.577 1.776h-1.867l1.51 1.1-.577 1.776 1.51-1.1 1.51 1.1-.577-1.776 1.511-1.1h-1.862z"/><path data-name="Path 11677" d="M-.556 23.606l-.577 1.776H-3l1.51 1.1-.577 1.776 1.51-1.1 1.511 1.1-.577-1.776 1.511-1.1H.021z"/><path data-name="Path 11678" d="M10.013 23.606l-.577 1.776H7.569l1.511 1.1-.577 1.776 1.511-1.1 1.51 1.1-.577-1.776 1.51-1.1H10.59z"/><path data-name="Path 11679" d="M20.581 23.606l-.577 1.776h-1.867l1.511 1.1-.577 1.776 1.51-1.1 1.511 1.1-.577-1.776 1.511-1.1h-1.863z"/><path data-name="Path 11680" d="M31.149 23.606l-.577 1.776h-1.867l1.511 1.1-.577 1.776 1.51-1.1 1.51 1.1-.577-1.776 1.51-1.1h-1.867z"/><path data-name="Path 11681" d="M-10.542 34.367l-.577-1.776-.577 1.776h-1.867l1.51 1.1-.577 1.775 1.51-1.1 1.51 1.1-.577-1.775 1.511-1.1z"/><path data-name="Path 11682" d="M.022 34.367l-.577-1.776-.577 1.776h-1.867l1.51 1.1-.577 1.775 1.51-1.1 1.511 1.1-.577-1.775 1.511-1.1z"/><path data-name="Path 11683" d="M10.59 34.367l-.577-1.776-.577 1.776H7.569l1.511 1.1-.577 1.775 1.511-1.1 1.51 1.1-.577-1.775 1.51-1.1z"/><path data-name="Path 11684" d="M21.163 34.367l-.577-1.776-.577 1.776h-1.867l1.511 1.1-.577 1.775 1.51-1.1 1.511 1.1-.577-1.775 1.511-1.1z"/><path data-name="Path 11685" d="M31.726 34.367l-.577-1.776-.577 1.776h-1.867l1.511 1.1-.577 1.775 1.51-1.1 1.51 1.1-.577-1.775 1.51-1.1z"/></g></g></g></g></svg>