<svg xmlns="http://www.w3.org/2000/svg" width="81.306" height="48.135"><defs><linearGradient id="b" y1=".5" x2="1" y2=".5" gradientUnits="objectBoundingBox"><stop offset="0" stop-color="#572886"/><stop offset="1" stop-color="#9e226e"/></linearGradient><clipPath id="a"><path fill="none" d="M0 0h81.306v48.135H0z"/></clipPath></defs><g clip-path="url(#a)"><path d="M66.788 20.44h-2.569C64.108 9.161 54.504 0 42.666 0H25.244a3.436 3.436 0 0 0-3.573 3.3v.169a3.573 3.573 0 0 0 3.574 3.462h8.711a3.5 3.5 0 0 1 3.462 3.534v.035a3.621 3.621 0 0 1-3.462 3.35H16.868a3.436 3.436 0 0 0-3.575 3.294v.169a3.573 3.573 0 0 0 3.573 3.462h23.79c8.937.225 16.081 7.147 15.857 15.746a15.271 15.271 0 0 1-5.92 11.614h16.3c7.929 0 14.406-6.142 14.406-13.624A14.325 14.325 0 0 0 66.788 20.44" fill="#bfbfbf"/></g><path d="M38.869 68.3a3.692 3.692 0 1 1 0 7.371 3.843 3.843 0 0 1-3.909-3.685 3.77 3.77 0 0 1 3.85-3.686zm-13.855 3.466a3.692 3.692 0 0 1 7.378.217 3.769 3.769 0 0 1-3.851 3.685h-.058a3.692 3.692 0 0 1-3.469-3.9M.007 64.39A3.692 3.692 0 0 0 3.47 68.3a3.546 3.546 0 0 0 .445 0h11.167a3.909 3.909 0 0 1 3.8 3.8 3.8 3.8 0 0 1-3.8 3.573H11.62a3.692 3.692 0 0 0-.445 7.371 3.893 3.893 0 0 0 .445 0H38.2a11.249 11.249 0 0 0 11.391-11.1v-.065c0-6.03-5.137-10.832-11.391-10.944H3.915c-.076 0-.151-.007-.226-.007A3.692 3.692 0 0 0 .007 64.39" transform="translate(0 -35.127)" fill="url(#b)"/></svg>