<svg xmlns="http://www.w3.org/2000/svg" width="122.06" height="184.623"><path data-name="Path 11649" d="M38.97 159.212l-4.574-3.522c32.855-3.008 59.335-24.493 66.339-55.515 7.69-34.093-9.616-76.52-43.25-96.477-1.897-1.13-4.654 1.071-3.15 2.867 21.58 25.756 41.209 51.37 35.656 84.969-4.353 26.335-27.543 50.592-57.033 51.701l9.585-7.75c7.925-6.406-4.208-17.628-12.071-11.231L6.623 143.228c-3.171 2.525-3.217 8.372.217 11.054l20.173 15.763c8.61 6.726 20.627-4.158 11.957-10.833z" fill="#007bff"/></svg>