<svg id="Layer_1" data-name="Layer 1" xmlns="http://www.w3.org/2000/svg" width="77.21" height="33"><defs><style>.cls-1{fill:#fff}</style><linearGradient id="linear-gradient" x1="384.53" y1="-266.62" x2="405.25" y2="-281.9" gradientTransform="matrix(1 0 0 -1 -357.39 -256.5)" gradientUnits="userSpaceOnUse"><stop offset=".01" stop-color="#f26a27"/><stop offset="1" stop-color="#fccb00"/></linearGradient><linearGradient id="linear-gradient-2" x1="391.89" y1="-259.53" x2="415.07" y2="-287.09" gradientTransform="matrix(1 0 0 -1 -357.39 -256.5)" gradientUnits="userSpaceOnUse"><stop offset="0" stop-color="#f26a27"/><stop offset="1" stop-color="#fccb00"/></linearGradient></defs><g id="_20i_Logo_20i_White_Symbol" data-name="20i Logo_20i White + Symbol"><circle class="cls-1" cx="63.62" cy="3.64" r="2.34"/><path class="cls-1" d="M63.64 32.71a2.32 2.32 0 0 1-2.32-2.32V13.32a2.33 2.33 0 0 1 4.65 0v17.06a2.33 2.33 0 0 1-2.31 2.33zM75.11 2.8a2.57 2.57 0 1 1-5.11.14.24.24 0 0 1 0-.12A2.54 2.54 0 0 1 72.48.25h.07a2.51 2.51 0 0 1 2.56 2.45zm-.43 0a2.1 2.1 0 0 0-2-2.15h-.1a2.12 2.12 0 0 0-2.15 2.1v.07a2.15 2.15 0 1 0 4.29 0zm-1.4.47l.64 1h-.62l-.56-.87h-.65v.87h-.62V1.39h1.19c.75 0 1.2.39 1.2 1a.89.89 0 0 1-.57.88zm-.66-.38c.4 0 .64-.19.64-.51s-.24-.5-.64-.5h-.54v1z"/><path d="M37.9 28.18a11.57 11.57 0 0 1 0-22.3 2.33 2.33 0 0 0-1.25-4.48 16.21 16.21 0 0 0 0 31.25 2.16 2.16 0 0 0 .62.09 2.32 2.32 0 0 0 .63-4.56z" fill="url(#linear-gradient)"/><path d="M45.45 1.4a1.86 1.86 0 0 0-.62-.08 2.32 2.32 0 0 0-.62 4.56 11.57 11.57 0 0 1 0 22.29 2.33 2.33 0 0 0 1.24 4.49 16.3 16.3 0 0 0 10.86-20.28A16.55 16.55 0 0 0 45.45 1.4z" fill="url(#linear-gradient-2)"/><path class="cls-1" d="M2.37 32.71a2.86 2.86 0 0 1-2.32-2.06 3.82 3.82 0 0 1 1.55-3.72l1.24-1.12c.52-.46 1-1 1.57-1.39l7.69-6.57 1.15-1A29 29 0 0 0 15.48 15a6.26 6.26 0 0 0 1.87-4.57 4.09 4.09 0 0 0-1.41-3A6.33 6.33 0 0 0 11.23 6a9.3 9.3 0 0 0-6.18 3.37 2.32 2.32 0 0 1-3.58-3 14.06 14.06 0 0 1 9.34-5 10.77 10.77 0 0 1 8.1 2.47A8.68 8.68 0 0 1 22 10.2a10.88 10.88 0 0 1-3.16 8 33 33 0 0 1-2.6 2.27l-1.07.86-7.89 6.77h12.39A2.32 2.32 0 0 1 22 30.42a2.3 2.3 0 0 1-2.29 2.29H2.37z"/></g></svg>