<svg id="Layer_1" data-name="Layer 1" xmlns="http://www.w3.org/2000/svg" width="600" height="280"><defs><style>.cls-1{fill:#fff}.cls-2{fill:#007bff}</style></defs><path class="cls-1" d="M157.65 52.26h60.74v11.33h-23.88v63.71h-13.13V63.59H157.6V52.26zM215.8 73H227v10.45h.21a12.46 12.46 0 0 1 2.06-4.29 19.08 19.08 0 0 1 3.73-3.81 19.39 19.39 0 0 1 4.76-2.81 14.57 14.57 0 0 1 5.35-1.06c1.38 0 2.38.06 2.91.11s1.06.16 1.65.21v11.54c-.85-.15-1.7-.26-2.6-.37a23.36 23.36 0 0 0-2.59-.16 14.08 14.08 0 0 0-5.76 1.19 13.29 13.29 0 0 0-4.66 3.55 17.87 17.87 0 0 0-3.18 5.83 24.48 24.48 0 0 0-1.17 8v25.85h-12V73zm86.85 54.33h-11.76v-7.57h-.21a16.27 16.27 0 0 1-6.57 6.56 18 18 0 0 1-8.89 2.49c-7.15 0-12.34-1.75-15.52-5.29s-4.77-8.9-4.77-16V73h12v33.3c0 4.77.9 8.16 2.76 10.12a10 10 0 0 0 7.67 3 14.81 14.81 0 0 0 6.31-1.17 10.58 10.58 0 0 0 4.07-3.12 12.1 12.1 0 0 0 2.28-4.66 22.85 22.85 0 0 0 .69-5.88V73h12zM323 109.88c.37 3.49 1.69 5.93 4 7.36a16.08 16.08 0 0 0 8.31 2.12 35.55 35.55 0 0 0 3.82-.27 16 16 0 0 0 4-1 7.55 7.55 0 0 0 3.12-2.17 5.24 5.24 0 0 0 1.12-3.7 5.13 5.13 0 0 0-1.7-3.76 12 12 0 0 0-4-2.39 40.25 40.25 0 0 0-5.62-1.53c-2.11-.43-4.23-.9-6.4-1.38a60.5 60.5 0 0 1-6.46-1.8 19.82 19.82 0 0 1-5.57-2.86 12.51 12.51 0 0 1-3.91-4.55 14.22 14.22 0 0 1-1.49-6.89 12.4 12.4 0 0 1 2.17-7.41 16.54 16.54 0 0 1 5.46-4.82 25.2 25.2 0 0 1 7.36-2.6 45.5 45.5 0 0 1 7.73-.74 36.17 36.17 0 0 1 8.05.9 20.92 20.92 0 0 1 6.94 2.92 17.13 17.13 0 0 1 5.13 5.18 18.06 18.06 0 0 1 2.6 7.74h-12.5c-.58-2.86-1.85-4.82-3.92-5.78a16.12 16.12 0 0 0-7.08-1.45 22 22 0 0 0-3 .21 16.39 16.39 0 0 0-3.28.8 7.09 7.09 0 0 0-2.6 1.69 4.09 4.09 0 0 0-1.06 2.91 4.51 4.51 0 0 0 1.54 3.55 12.88 12.88 0 0 0 4 2.28 41.45 41.45 0 0 0 5.61 1.54c2.12.42 4.29.9 6.52 1.37s4.29 1.11 6.4 1.8a19.33 19.33 0 0 1 5.62 2.86 14.18 14.18 0 0 1 4 4.5 13.81 13.81 0 0 1 1.53 6.73 14.66 14.66 0 0 1-2.22 8.21 17.54 17.54 0 0 1-5.72 5.45 26.66 26.66 0 0 1-7.84 3.07 39.05 39.05 0 0 1-8.52 1 35.91 35.91 0 0 1-9.53-1.17 23.21 23.21 0 0 1-7.58-3.49 17.35 17.35 0 0 1-5-5.88 19.34 19.34 0 0 1-2-8.37H323zM362.54 73h9.06V56.65h12V73h10.8v8.94h-10.8v29a31.24 31.24 0 0 0 .15 3.28 6.15 6.15 0 0 0 .75 2.33 3.43 3.43 0 0 0 1.74 1.43 8.53 8.53 0 0 0 3.18.47h2.54a13.78 13.78 0 0 0 2.54-.37v9.27c-1.32.16-2.64.26-3.86.42a30.74 30.74 0 0 1-3.87.21 26.48 26.48 0 0 1-7.62-.9 9.89 9.89 0 0 1-4.5-2.64 9.22 9.22 0 0 1-2.23-4.35 33.25 33.25 0 0 1-.69-6V82h-9.05v-9zm40.3 0h11.33v7.36h.22a14.71 14.71 0 0 1 7-6.78 23.18 23.18 0 0 1 9.8-2.07 25.29 25.29 0 0 1 11.17 2.28 21.7 21.7 0 0 1 7.94 6.2 27 27 0 0 1 4.72 9.21 38.54 38.54 0 0 1 1.59 11.23 39.17 39.17 0 0 1-1.39 10.57 28.68 28.68 0 0 1-4.29 9.11 21.24 21.24 0 0 1-7.31 6.3 21.68 21.68 0 0 1-10.43 2.38 29.13 29.13 0 0 1-5.25-.48 22.7 22.7 0 0 1-5-1.53 18.38 18.38 0 0 1-4.45-2.7 17 17 0 0 1-3.44-3.81h-.21v27.11h-12zm41.84 27.21a26.84 26.84 0 0 0-1-7.14 19 19 0 0 0-2.86-6.15 14.5 14.5 0 0 0-4.71-4.29 13.19 13.19 0 0 0-6.47-1.63c-5 0-8.85 1.75-11.39 5.24s-3.81 8.16-3.81 14a26.78 26.78 0 0 0 1 7.63 17 17 0 0 0 3 6 14.41 14.41 0 0 0 4.77 4 13.33 13.33 0 0 0 6.46 1.48 13.51 13.51 0 0 0 6.94-1.69 14.79 14.79 0 0 0 4.66-4.34 18.16 18.16 0 0 0 2.65-6.09 34.57 34.57 0 0 0 .76-7.05zm21.13-47.92h12v11.3h-12zm0 20.71h12v54.3h-12zm22.66-20.71h12v75h-12zm48.67 76.52a29.62 29.62 0 0 1-11.6-2.17 25.55 25.55 0 0 1-8.63-5.93 25.82 25.82 0 0 1-5.35-9.06 36.61 36.61 0 0 1 0-23 26 26 0 0 1 5.35-9.06 24.4 24.4 0 0 1 8.63-5.93 32.09 32.09 0 0 1 23.2 0 25.69 25.69 0 0 1 8.63 5.93 26 26 0 0 1 5.35 9.06 36.61 36.61 0 0 1 0 23 25.82 25.82 0 0 1-5.35 9.06 24.4 24.4 0 0 1-8.63 5.93 29.62 29.62 0 0 1-11.6 2.14zm0-9.48a13.9 13.9 0 0 0 6.94-1.69 14.75 14.75 0 0 0 4.82-4.4 19.56 19.56 0 0 0 2.8-6.14 27.4 27.4 0 0 0 0-13.93 18.06 18.06 0 0 0-2.8-6.17 14.57 14.57 0 0 0-4.82-4.34 15 15 0 0 0-13.88 0 15.13 15.13 0 0 0-4.82 4.34 19.06 19.06 0 0 0-2.8 6.14 27.4 27.4 0 0 0 0 13.93 18.51 18.51 0 0 0 2.8 6.14 14.75 14.75 0 0 0 4.82 4.4 13.4 13.4 0 0 0 6.94 1.69zM568.07 73h9V56.65h12V73h10.8v8.94h-10.8v29a28.53 28.53 0 0 0 .16 3.28 6.15 6.15 0 0 0 .74 2.33 3.41 3.41 0 0 0 1.75 1.43 8.49 8.49 0 0 0 3.18.47h2.54A13.9 13.9 0 0 0 600 118v9.27c-1.32.16-2.65.26-3.87.42a30.69 30.69 0 0 1-3.86.21 26.56 26.56 0 0 1-7.63-.9 9.94 9.94 0 0 1-4.5-2.64 9.21 9.21 0 0 1-2.22-4.35 32.36 32.36 0 0 1-.69-6V82h-9.06v-9z" id="Type"/><g id="Star"><path class="cls-2" d="M143.67 52.26H88.81L71.86.04l-17 52.22L0 52.21l44.43 32.3-17 52.16 44.43-32.25 44.38 32.25-16.95-52.16 44.38-32.25z"/><path fill="#007bff" d="M103.11 96.32l-3.82-11.81-27.43 19.91 31.25-8.1z"/></g><g id="Trustpilot_ratings_5star-RGB" data-name="Trustpilot ratings 5star-RGB"><path id="Rectangle-path" class="cls-2" d="M0 167.46h112.5v112.5H0z"/><path id="Rectangle-path-2" data-name="Rectangle-path" class="cls-2" d="M121.88 167.46h112.5v112.5h-112.5z"/><path id="Rectangle-path-3" data-name="Rectangle-path" class="cls-2" d="M243.75 167.46h112.5v112.5h-112.5z"/><path id="Rectangle-path-4" data-name="Rectangle-path" class="cls-2" d="M365.63 167.46h112.5v112.5h-112.5z"/><path id="Rectangle-path-5" data-name="Rectangle-path" class="cls-2" d="M487.5 167.46H600v112.5H487.5z"/><path id="Shape" class="cls-1" d="M56.25 243.28l17.11-4.34 7.15 22zm39.37-28.48H65.51l-9.26-28.36L47 214.8H16.87l24.38 17.58L32 260.74l24.38-17.58 15-10.78 24.24-17.58z"/><path id="Shape-2" data-name="Shape" class="cls-1" d="M178.12 243.28l17.11-4.34 7.15 22zm39.38-28.48h-30.12l-9.26-28.36-9.25 28.36h-30.12l24.37 17.58-9.25 28.36 24.37-17.58 15-10.78 24.26-17.58z"/><path id="Shape-3" data-name="Shape" class="cls-1" d="M300 243.28l17.11-4.34 7.15 22zm39.38-28.48h-30.12L300 186.44l-9.26 28.36h-30.12L285 232.38l-9.26 28.36 24.38-17.58 15-10.78 24.26-17.58z"/><path id="Shape-4" data-name="Shape" class="cls-1" d="M421.88 243.28l17.1-4.34 7.15 22zm39.37-28.48h-30.12l-9.25-28.36-9.26 28.36H382.5l24.38 17.58-9.26 28.36L422 243.16l15-10.78 24.26-17.58z"/><path id="Shape-5" data-name="Shape" class="cls-1" d="M543.75 243.28l17.11-4.34L568 261zm39.38-28.48H553l-9.26-28.36-9.26 28.36h-30.11l24.38 17.58-9.26 28.36 24.38-17.58 15-10.78 24.26-17.58z"/></g></svg>