<svg version="1.1" id="Livello_1" xmlns="http://www.w3.org/2000/svg" x="0" y="0" viewBox="0 0 2100 600" xml:space="preserve"><style>.st0{fill:#707070}</style><path class="st0" d="M164.1 212.8c35.6-25.2 73.4-34.4 105.6-29.8v-57.4H0v274.3h91.8c-1.1-2.3-2.3-3.4-3.4-5.7-25.3-54 9.1-135.5 75.7-181.4m515.2-12.6c-6.9-31-33.3-40.2-62-40.2-64.3 0-87.2 56.2-86.1 105.6 2.3 67.7 22.9 104.4 97.5 105.6 18.4 0 35.6-2.3 51.6-8v-73.5h-59.7v-31H716v130.8c-27.5 8-57.4 14.9-87.2 14.9-36.7 0-66.6-4.6-95.2-29.8-28.7-25.2-39-70-39-106.7 0-27.5 9.2-57.4 21.8-81.5 22.9-40.2 60.8-56.2 105.6-56.2s93 20.7 95.2 71.2l-37.9-1.2zm112.5 113.6c-2.3 32.1 10.3 65.4 45.9 65.4 26.4 0 40.2-10.3 43.6-36.7H918c-5.7 41.3-36.7 62-80.3 62-58.5 0-81.5-41.3-81.5-95.2s26.4-98.7 84.9-98.7c53.9 1.1 80.3 35.6 80.3 86.1v17.2l-129.6-.1zm91.8-24.1c1.1-31-12.6-53.9-45.9-53.9-28.7 0-45.9 24.1-45.9 53.9h91.8zm242.1 17.2c0 57.4-31 97.5-90.7 97.5s-90.7-40.2-90.7-97.5 31-96.4 90.7-96.4c59.8-1.2 90.7 39 90.7 96.4m-90.6 72.3c41.3 0 53.9-33.3 53.9-72.3s-13.8-71.1-53.9-71.1c-41.3 0-53.9 33.3-53.9 71.1-.1 39 12.6 72.3 53.9 72.3"/><path class="st0" d="M1163.6 186.4h-80.3v-51.6h235.2v51.6h-82.6v212.3h-72.3V186.4z"/><path class="st0" d="M1356.4 249.5c8-29.8 31-40.2 62-40.2v58.5h-14.9c-35.6 0-48.2 21.8-47 57.4v73.4h-68.9V262.1c0-16.1 0-27.5-2.3-47h70l1.1 34.4zM1573.3 378c-16.1 18.4-33.3 25.2-57.4 25.2-39 0-67.7-25.2-67.7-66.6V215.1h68.9V323c1.1 18.4 4.6 36.7 26.4 36.7 34.4 0 29.8-37.9 29.8-40.2V213.9h68.9v136.6c0 16.1 0 27.5 2.3 47h-70l-1.2-19.5zm212.3-106.7c0-5.7-1.1-11.5-4.6-14.9-3.4-4.6-9.2-6.9-18.4-6.9-10.3 0-16.1 5.7-16.1 16.1 0 13.8 27.5 12.6 71.1 26.4 21.8 6.9 36.7 20.7 36.7 50.5 0 48.2-44.8 60.8-87.2 60.8-44.8 0-88.4-9.2-87.2-65.4h65.4c-1.1 5.7 1.1 11.5 4.6 16.1 3.8 5.1 9.7 8 16.1 8 13.8 0 22.9-4.6 22.9-17.2 0-32.1-107.9-12.6-107.9-79.2 0-44.8 48.2-57.4 83.8-57.4 43.6 0 82.6 11.5 86.1 62h-65.4l.1 1.1zm121.6-56.2v-27.5l68.9-26.4v53.9h40.2v43.6h-40.2V331c0 4.6-2.3 28.7 12.6 28.7 9.2 0 18.4 0 26.4-1.1v41.3c-16.1 3.4-26.4 3.4-36.7 3.4-47 0-74.6-6.9-71.1-63.1v-81.5h-35.6v-43.6h35.5zm192.8 18.3c0 6.9-2.3 12.6-8 17.2-4.6 4.6-10.3 8-17.2 8s-12.6-2.3-17.2-8c-4.6-4.6-6.9-10.3-6.9-17.2 0-6.9 2.3-12.6 6.9-18.4 4.6-4.6 10.3-8 17.2-8s12.6 2.3 17.2 8c5.7 5.8 8 11.6 8 18.4m-5.7 0c0-5.2-2-10.2-5.7-13.8-3.4-4.6-8-5.7-13.8-5.7-10.8 0-19.5 8.7-19.5 19.4 0 5.2 2.1 10.2 5.7 13.8 3.4 4.6 8 5.7 13.8 5.7 5.7 0 9.2-2.3 13.8-5.7 3.6-3.5 5.7-8.5 5.7-13.7m-16.1 13.8v-4.6c0-2.3 0-3.4-1.1-4.6s-1.1-2.3-3.4-2.3h-1.1v11.5h-6.9v-27.5h10.3c2.3 0 4.6 0 5.7 1.1s2.3 2.3 2.3 4.6v2.3c0 1.1 0 2.3-1.1 3.4-1.1 1.2-1.1 1.1-3.4 2.3 2.3 1.1 3.4 2.3 3.4 3.4 1.1 1.1 1.1 3.4 1.1 4.6v4.6h-5.7l-.1 1.2zm0-18.3c0-2.3 0-2.3-1.1-3.4 0-1.1-1.1-1.1-2.3-1.1h-4.6v8h3.4c1.1 0 1.1 0 2.3-1.1 2.3-1.3 2.3-1.3 2.3-2.4M268.5 215.1c-71.1 0-128.5 58.5-128.5 129.7 0 8 1.1 16.1 2.3 24.1 3.4 13.8 10.3 18.4 17.2 20.7 3.4 1.1 6.9 2.3 8 2.3 13.8 1.1 27.5-2.3 41.3-10.3 18.4-11.5 32.1-29.8 39-51.6-22 2.1-43.8 5.6-65.4 10.3V300L327 289.7l-1.1 137.7-43.6 3.4c0-1.1 0-2.3 1.1-4.6 1.1-11.5 3.4-22.9 4.6-35.6 0-6.9 1.1-13.8 1.1-20.7-5.7 6.9-11.5 13.8-19.5 20.7-6.9 5.7-13.8 11.5-21.8 16.1-4.6 2.3-9.2 5.7-13.8 8-9.7 4.3-19.7 8.1-29.8 11.5-8 2.3-22.9 3.4-34.4 3.4 24.1 27.5 58.5 44.8 97.5 44.8 71.1 0 128.5-58.5 128.5-129.7 2.4-72.2-55-129.6-127.3-129.6"/></svg>