<svg xmlns="http://www.w3.org/2000/svg" viewBox="0 0 2100 600"><path d="M1240 395l.8 13.6h-.8c-7.3-10.8-19.6-17.1-32.6-16.9-28.4 3.4-48.7 29.1-45.3 57.5 2.9 24.1 22 42.9 46.1 45.4 12.8-.1 24.7-6.5 31.8-17.1h.8v13.6h16.6V349.6H1240V395zm-28.7 83.6c-17.5-.4-31.4-14.8-31-32.3 0-1.3.1-2.5.3-3.8-2.7-16.7 8.6-32.4 25.3-35 16.7-2.7 32.4 8.6 35 25.3.5 3.2.5 6.5 0 9.8 1.5 18.2-11.9 34.1-30.1 35.8l.5.2zm-212-87.2c-28.4-1.1-52.3 21-53.5 49.4-1.1 28.4 21 52.3 49.4 53.5 28.4 1.1 52.3-21 53.5-49.4v-2.3c1.3-26.9-19.4-49.8-46.3-51.1-1-.1-2-.2-3.1-.1zm0 86.7c-19.6 2.2-37.2-11.9-39.4-31.4-2.2-19.6 11.9-37.2 31.4-39.4 19.6-2.2 37.2 11.9 39.4 31.4.2 1.3.2 2.7.2 4 1.2 18.4-12.8 34.3-31.2 35.4h-.4zm-81 12.9h18.2V349.6h-18.2V491zm210.9-43.3c1.1 15.2-10.3 28.5-25.5 29.8-13.5 0-23.9-7.3-23.9-27.4v-56.4h-17.6v59.5c0 24.1 11.9 41 36.6 41 12.3-.3 23.6-6.6 30.4-16.8v14.4h18.2V395h-18.2v52.7zm-280 28.8c-31.1-1.6-55-28.2-53.3-59.3 1.5-28.8 24.5-51.8 53.3-53.3 15.1-.6 29.5 6 38.9 17.7l12.7-12c-12.9-15-31.8-23.6-51.6-23.3-40-.4-72.7 31.6-73.2 71.5v2.4c-1.3 39.1 29.3 71.8 68.3 73.1 1.6.1 3.2.1 4.8 0 21.3.4 41.7-8.7 55.6-24.9L892 455.6c-10.2 13.3-26 21-42.8 20.9zm737.6.8c-7.9 0-12.7-4.7-12.7-15.8v-50.7h23.8V395h-23.8v-30.1h-18.4V395h-16.6v15.8h16.6v50.7c-1.6 15.9 10.1 30.1 26 31.7 1.9.2 3.8.2 5.7 0 4.9.1 9.7-.7 14.2-2.4l-6.3-15.8c-2.5 1.8-5.5 2.7-8.5 2.5v-.2zm-99.3-85.9c-16.6-1.1-32.1 8.1-38.9 23.3l16.6 7.3c6.7-12.3 22-16.9 34.3-10.2 7.4 4 12.4 11.5 13.2 19.9v2.4c-8.3-3.6-17.2-5.6-26.3-5.7-22.3 0-42.1 12-42.1 33.7.7 18.9 16.5 33.6 35.4 32.9h.4c12.8.2 24.8-6.2 31.7-16.9h.8v13.6h17.4v-58.4c1.2-21.9-15.6-40.6-37.5-41.8-1.7-.1-3.4-.1-5.1 0l.1-.1zm-4 85.9c-9.5 0-19.8-4.7-19.8-15.8 0-11.1 7-19 26-19 8.2-.4 16.3 1.9 23.1 6.5-.7 15.8-13.6 28.3-29.4 28.5l.1-.2zm158.4-95c-.6-8.7 6-16.3 14.7-16.9h1.1c2.7.1 5.4.6 7.9 1.6l6.3-15.8c-4.3-1.7-8.9-2.5-13.5-2.4-17.4-1.4-32.7 11.6-34.1 29-.1 1.3-.1 2.6-.1 3.9v12h-17.7v17.1h17.4v80.4h18.2v-80.4h25.3v-17.1h-25.2l-.3-11.4zm79.1 9.7c-28.4-.8-52.1 21.6-52.8 50-.8 28.4 21.6 52.1 50 52.8 28.4.8 52.1-21.6 52.8-50v-2.3c1.3-26.9-19.4-49.8-46.3-51.1-1 0-2-.1-2.9-.1l-.8.7zm0 86.8c-19.6 2.2-37.2-11.9-39.4-31.4-2.2-19.6 11.9-37.2 31.4-39.4 19.6-2.2 37.2 11.9 39.4 31.4.2 1.3.2 2.7.2 4 .8 18-12.9 33.5-30.9 34.8l-.7.6zm-310.8 12.8h19.8v-142h-18.8l-1 142zm554.2-99.8c-13.7-.3-26.4 6.8-33.4 18.5-5.1-12-17.2-19.4-30.2-18.5-11.2 1-21.3 7.1-27.4 16.5h-.8V395h-19v99h18.2v-53.8c-.9-14.9 9.9-27.9 24.7-29.8 13.5 0 21.5 6.5 21.5 26.6v56.2h18.2v-53.8c-.9-14.9 9.9-27.9 24.7-29.8 13.5 0 21.5 6.5 21.5 26.6v56.2h17.6v-60c0-24.1-10.3-41-34.2-41l-1.4.4zM1353.2 350h-47.5v140h18.2v-56.8h29.4c23.1 0 41.8-18.7 41.8-41.8 0-23.1-18.7-41.8-41.8-41.8h-.1v.4zm.8 66.7h-28.8v-50.2h30.2c13.8 0 24.9 11.2 24.9 24.9s-11.2 24.9-24.9 24.9l-1.4.4zm449.7-5.9h-.8V395h-17.4v96.4h18.2V438c-1.3-14.2 9.1-26.8 23.3-28.1.5 0 .9-.1 1.4-.1 3.2 0 6.4.5 9.5 1.6l7.1-16.9c-4.3-1.7-8.9-2.5-13.5-2.4-12.1.4-22.9 7.7-27.8 18.7zM931.3 178.6h-73.8v22.2h52.4c-.7 10.4-4.9 20.2-11.9 27.9-10.6 10.8-25.4 16.6-40.5 15.8-32.5 0-58.9-26.4-58.9-58.9s26.4-58.9 58.9-58.9c14.7-.2 28.9 5.5 39.4 15.8l15.8-15.8c-14.5-14.6-34.3-22.7-54.9-22.5-44.8 0-81.1 36.3-81.1 81.1s36.3 81.1 81.1 81.1c39.3 2.1 72.9-28 75-67.3.1-2.4.1-4.8 0-7.2-.1-4.5-.6-9-1.5-13.3zm312.3-4.3c-6.9-7.7-16.9-12-27.2-11.7-28.9-.6-52.7 22.4-53.3 51.2-.6 28.9 22.4 52.7 51.2 53.3h2c10.4.3 20.4-4 27.2-11.9v7.6c0 20-10.6 30.6-27.5 30.6-11.6-.3-21.9-7.6-26-18.5l-19.6 8.4c7.3 19 25.4 31.6 45.8 31.7 26.6 0 49.1-15.8 49.1-54.4v-94.7h-21.7v8.4zm-25.9 72.2c-17.5-.2-31.5-14.6-31.3-32.1.2-17.2 14.1-31.1 31.3-31.3 16.2.9 28.5 14.7 27.6 30.9 0 .3 0 .5-.1.8 1.6 15.8-10 30-25.8 31.5-.6.1-1.1.2-1.7.2zM1105 162.7c-28.9-.3-52.5 22.9-52.7 51.8s22.9 52.5 51.8 52.7 52.5-22.9 52.7-51.8v-.4c.6-28.2-21.8-51.6-50-52.2-.7-.1-1.3-.1-1.8-.1zm0 83.8c-17.4 1.4-32.7-11.6-34.1-29-1.4-17.4 11.6-32.7 29-34.1 17.4-1.4 32.7 11.6 34.1 29 .1.8.1 1.6.1 2.5.9 16.6-11.9 30.8-28.4 31.6h-.7zm-113.1 20.7c28.9.3 52.5-22.9 52.7-51.8s-22.9-52.5-51.8-52.7c-28.9-.3-52.5 22.9-52.7 51.8v.5c-.4 28.3 22.2 51.6 50.5 52.1h1.3v.1zm0-84.1c17.4-1.4 32.7 11.6 34.1 29 1.4 17.4-11.6 32.7-29 34.1-17.4 1.4-32.7-11.6-34.1-29-.1-.8-.1-1.6-.1-2.5-1-16.5 11.6-30.6 28.1-31.6.3.1.7.1 1 0zm289 80.8h22.5V110h-22.5v153.9zm126.6-67.9c-6.1-19.4-23.9-32.8-44.2-33.2-27.3.3-49.1 22.7-48.8 49.9 0 .8 0 1.5.1 2.3-.8 28.1 21.3 51.4 49.4 52.2h1.8c17.3 0 33.5-8.7 43.1-23.1l-17.6-11.9c-5.4 9-15.1 14.4-25.5 14.4-10.8.3-20.7-5.9-25-15.8l69-28.8-2.3-6zm-70.4 17.2c-1.1-15.7 10.8-29.3 26.5-30.4h.6c8.1-.6 15.7 3.8 19.2 11.1l-46.3 19.3zM304.9 455.8h178l89-155.8-89-155.8h-178l-89 155.8 89 155.8zm89-246.1c49.8-.6 90.7 39.3 91.4 89.1.6 49.8-39.3 90.7-89.1 91.4-49.8.6-90.7-39.3-91.4-89.1V300c-.3-49.5 39.5-89.9 89.1-90.3zm-96.8 259.7L147.5 206.6l-42.3 73.3c-7 12.4-7 27.6 0 40.1l126.6 222.9c7 12.3 20.1 19.9 34.3 20h155l53.2-93.4H297.1zm385.4-190l-77.4-135.2H498.4l89 155.8-150 262.8h83.8c14.2 0 27.2-7.6 34.2-20L682 320c7.1-12.4 7.1-27.7 0-40.1l.5-.5zM297.1 130.6H598l-42-73.5c-7.1-12.5-20.4-20.2-34.8-20H266.7c-14.2 0-27.2 7.6-34.2 20L154.9 193l53.4 93.4 88.8-155.8z" fill="#707070"/></svg>