<svg version="1.1" id="a" xmlns="http://www.w3.org/2000/svg" x="0" y="0" viewBox="0 0 180 192" xml:space="preserve"><style>.st1{fill:#dad9d7}.st2{fill:#c4c4c4}.st3{fill:#a5abaf}.st4{fill:#265ba1}</style><g id="Group_6870" transform="translate(-1381.22 -2122)"><circle id="Ellipse_2839" cx="1471.2" cy="2224" r="90" fill="#f4f8fe"/><g id="Group_6738" transform="translate(1386.071 2122)"><g id="Group_6735" transform="translate(0 120.375)"><path id="Path_38819" class="st1" d="M118.4 53.9v7h8.3v-7h-8.3z"/><path id="Path_38820" class="st2" d="M119.9 51.8l-1.5 2.1h8.3l-1.5-2.1h-5.3z"/><path id="Path_38821" class="st2" d="M120.9 44.1l-.6.8h4.3l-.6-.8h-3.1z"/><path id="Rectangle_2640" class="st1" d="M121.2 35.9h2.4v8.8h-2.4v-8.8z"/><path id="Rectangle_2641" class="st3" d="M120.3 44.9h4.3V53h-4.3v-8.1z"/><path id="Path_38822" class="st1" d="M34.6 53.9v7h8.3v-7h-8.3z"/><path id="Path_38823" class="st2" d="M36 51.8l-1.5 2.1h8.3l-1.5-2.1H36z"/><path id="Path_38824" class="st2" d="M37.1 44.1l-.6.8h4.3l-.6-.8h-3.1z"/><path id="Rectangle_2642" class="st1" d="M37.5 35.9h2.4v8.8h-2.4v-8.8z"/><path id="Rectangle_2643" class="st3" d="M36.5 44.9h4.3V53h-4.3v-8.1z"/><g id="Group_6589"><g id="Group_6867"><path id="Path_38825" class="st1" d="M74.4 41.3H.2c-.2 0-.2-.2-.4-.2L8.7-5c0-.2.2-.4.4-.4h70c.2 0 .4.2.4.4l-4.7 46.1c.1.2-.2.2-.4.2"/><path id="Path_38826" class="st4" d="M36.7 4.6h12c.2 0 .4.2.4.4-.4 2.4-.6 4.7-1.1 7 0 .4-.4.6-.6.6H35.2c-.2 0-.4-.2-.4-.4V12l1.1-7c.1-.2.3-.4.8-.4"/><path id="Path_38827" class="st4" d="M50.6 4.6h12c.1 0 .4.2.4.4-.2 2.4-.6 4.7-.8 7 0 .4-.4.6-.6.6H49.3c-.2 0-.4-.2-.4-.4l1.1-7c-.1-.4.3-.6.6-.6"/><path id="Path_38828" class="st4" d="M8.8 4.6H21c.2 0 .4.2.4.4v.2l-1.3 7c0 .4-.4.6-.6.6H7.3c-.2 0-.4-.2-.4-.4v-.2l1.3-7c-.1-.4.3-.6.6-.6"/><path id="Path_38829" class="st4" d="M22.8 4.6h12c.2 0 .4.2.4.4v.2l-1.1 7c0 .4-.4.6-.6.6H21.3c-.2 0-.4-.2-.4-.4v-.2l1.3-7c-.1-.4.2-.6.6-.6"/><path id="Path_38830" class="st4" d="M64.6 4.6h12c.2 0 .4.2.6.4l-.6 7c0 .4-.2.6-.6.6H63.6c-.2 0-.4-.2-.4-.4.2-2.4.6-4.7.8-7 0-.4.2-.6.6-.6"/><path id="Path_38831" class="st4" d="M38.1-4.6h12c.2 0 .4.2.4.4-.4 2.4-.6 4.7-1.1 7 0 .4-.4.6-.6.6h-12c-.2 0-.4-.2-.4-.4v-.1l1.1-7c0-.3.3-.5.6-.5"/><path id="Path_38832" class="st4" d="M51.8-4.6h12c.2 0 .4.2.4.4-.2 2.4-.6 4.7-.8 7 0 .4-.4.6-.6.6h-12c-.2 0-.4-.2-.4-.4l1.1-7c-.3-.4.1-.6.3-.6"/><path id="Path_38833" class="st4" d="M10.7-4.6h12c.2 0 .4.2.4.4v.2l-1.3 7c0 .4-.4.6-.6.6H9c-.2 0-.4-.2-.4-.4v-.1l1.3-7c.1-.5.3-.7.8-.7"/><path id="Path_38834" class="st4" d="M24.3-4.6h12c.2 0 .4.2.4.4v.2l-1.1 7c0 .4-.4.6-.6.6H23c-.2 0-.4-.2-.4-.4v-.1l1.3-7c-.2-.5.2-.7.4-.7"/><path id="Path_38835" class="st4" d="M65.7-4.6h12c.2 0 .4.2.4.4l-.6 7c0 .4-.2.6-.6.6h-12c-.2 0-.4-.2-.4-.4.2-2.4.6-4.7.8-7-.3-.4 0-.6.4-.6"/><path id="Path_38836" class="st4" d="M35.2 13.7h12.2c.2 0 .4.2.4.4-.4 2.4-.6 4.7-1.1 7 0 .4-.4.6-.6.6H33.7c-.2 0-.4-.2-.4-.4v-.2l1.1-7c.2-.1.5-.4.8-.4"/><path id="Path_38837" class="st4" d="M49.3 13.7h12.2c.2 0 .4.2.4.4-.2 2.4-.6 4.7-.8 7 0 .4-.4.6-.6.6H48c-.2 0-.4-.2-.4-.4l1.1-7c-.1-.3.3-.6.6-.6"/><path id="Path_38838" class="st4" d="M7 13.7h12.2c.2 0 .4.2.4.4v.2l-1.3 7c0 .4-.4.6-.6.6H5.6c-.2 0-.4-.2-.4-.4v-.2l1.3-7c-.1-.3.3-.6.5-.6"/><path id="Path_38839" class="st4" d="M21.1 13.7h12.2c.2 0 .4.2.4.4v.2c-.4 2.4-.6 4.7-1.1 7 0 .4-.4.6-.6.6H19.8c-.2 0-.4-.2-.4-.4v-.2l1.3-7c-.2-.3.2-.6.4-.6"/><path id="Path_38840" class="st4" d="M63.4 13.7h12.2c.2 0 .6.2.6.4l-.6 7c0 .4-.4.6-.6.6H62.5c-.2 0-.4-.2-.6-.4.2-2.4.6-4.7.8-7 .2-.3.4-.6.7-.6"/><path id="Path_38841" class="st4" d="M33.9 22.9h12.4c.2 0 .4.2.4.4-.4 2.4-.6 4.7-1.1 7 0 .4-.4.6-.6.6H32.6c-.2 0-.4-.2-.4-.4v-.2c.4-2.4.6-4.7 1.1-7 0 0 .2-.4.6-.4"/><path id="Path_38842" class="st4" d="M48 22.9h12.4c.2 0 .4.2.6.4l-.8 7c0 .4-.4.6-.6.6H47.1c-.2 0-.4-.2-.6-.4.2-2.4.6-4.7 1.1-7 0-.2.1-.6.4-.6"/><path id="Path_38843" class="st4" d="M5.3 22.9h12.4c.2 0 .4.2.4.4v.2l-1.3 7c0 .4-.4.6-.6.6H3.8c-.2 0-.4-.2-.4-.4v-.2l1.3-7c0-.2.2-.6.6-.6"/><path id="Path_38844" class="st4" d="M19.6 22.9H32c.2 0 .4.2.4.4v.2c-.4 2.4-.6 4.7-1.1 7 0 .4-.4.6-.6.6H18.1c-.2 0-.4-.2-.4-.4v-.2l1.3-7c-.1-.2.2-.6.6-.6"/><path id="Path_38845" class="st4" d="M62.3 22.9h12.4c.2 0 .6.2.6.4l-.6 7c0 .4-.4.6-.6.6H61.4c-.2 0-.6-.2-.6-.4.2-2.4.6-4.7.8-7 0-.2.5-.6.7-.6"/><path id="Path_38846" class="st4" d="M32.4 32.3h12.4c.2 0 .4.2.6.4-.4 2.4-.6 4.7-1.1 7 0 .4-.4.6-.6.6H31.1c-.2 0-.4-.2-.6-.4v-.2l1.1-7c.1-.2.4-.4.8-.4"/><path id="Path_38847" class="st4" d="M46.9 32.3h12.4c.2 0 .6.2.6.4-.2 2.4-.6 4.7-.8 7 0 .4-.4.6-.6.6H45.8c-.2 0-.4-.2-.6-.4.4-2.4.6-4.7 1.1-7 0-.4.2-.6.6-.6"/><path id="Path_38848" class="st4" d="M3.6 32.3H16c.2 0 .4.2.4.4v.2l-1.3 7c0 .2-.2.4-.6.4H1.9c-.2 0-.4-.2-.4-.4v-.2l1.3-7c.2-.2.4-.4.8-.4"/><path id="Path_38849" class="st4" d="M17.9 32.3h12.4c.2 0 .4.2.4.4v.2c-.4 2.4-.6 4.7-1.1 7 0 .4-.4.6-.6.6H16.6c-.2 0-.4-.2-.4-.4V40l1.3-7c-.2-.5.2-.7.4-.7"/><path id="Path_38850" class="st4" d="M61.2 32.3h12.4c.2 0 .6.2.6.4l-.6 7c0 .4-.4.6-.6.6H60.3c-.2 0-.6-.2-.6-.4.2-2.4.6-4.7.8-7 .1-.4.5-.6.7-.6"/></g></g></g><g id="Group_6736" transform="translate(41.577)"><path id="Path_38958" class="st1" d="M43 51.4l-6.8 140.4h16.2l-7-140.4H43z"/><path id="Path_38959" class="st2" d="M89.3 73.4c-11.7-7.9-37.1-24.1-43.9-22.6 4.5-5.1 1.3-35.7-.4-49.7-.2-1.5-1.7-1.5-1.9 0-1.7 14.1-4.9 44.8-.4 49.7-6.2-1.9-32.2 14.7-44.2 22.6-1.3.8-.6 2.1.8 1.7 13.4-4.9 42.6-16 44.6-22 1.9 6.2 31.2 17.3 44.6 22 1.4.4 2.1-.8.8-1.7m-45.2-22l-.2.2v.2-.2c0-.2-.2-.2-.2-.2h.4"/><path id="Path_38960" class="st3" d="M48.6 51.9c0-2.6-2.1-4.7-4.7-4.7s-4.7 2.1-4.7 4.7 2.1 4.7 4.7 4.7 4.7-2.2 4.7-4.7"/></g></g></g><g id="Group_6589_00000101783844597622379090000014849927455918886059_"><g id="Group_6867_00000039119195857060373200000016845503251128817285_"><path id="Path_38825_00000173161456314647123880000008398769615830215861_" class="st1" d="M102.4 161.6c-.2 0-.4 0-.4-.2l-4.7-46.1c0-.3.3-.4.4-.4h70c.3 0 .4.3.4.4l9 46.1c-.3 0-.3.2-.4.2h-74.3"/><path id="Path_38826_00000129902173291785374450000002514985061670574748_" class="st4" d="M140.2 125c.4 0 .6.2.8.4l1.1 7v.2c0 .3-.3.4-.4.4h-12.2c-.2 0-.6-.2-.6-.6-.4-2.4-.6-4.7-1.1-7 0-.3.3-.4.4-.4h12"/><path id="Path_38827_00000075863950523287277370000007525419951806734475_" class="st4" d="M126.3 125c.3 0 .6.2.6.6l1.1 7c0 .3-.3.4-.4.4h-12.2c-.2 0-.6-.2-.6-.6-.2-2.4-.6-4.7-.8-7 0-.3.3-.4.4-.4h11.9"/><path id="Path_38828_00000129207492013486981830000013595681991056804284_" class="st4" d="M168.1 125c.3 0 .6.2.6.6l1.3 7v.2c0 .3-.3.4-.4.4h-12.2c-.2 0-.6-.2-.6-.6l-1.3-7v-.2c0-.3.3-.4.4-.4h12.2"/><path id="Path_38829_00000062905523795027699850000008251209874091501440_" class="st4" d="M154.1 125c.4 0 .6.2.6.6l1.3 7v.2c0 .3-.3.4-.4.4h-12.2c-.2 0-.6-.2-.6-.6l-1.1-7v-.2c0-.3.3-.4.4-.4h12"/><path id="Path_38830_00000111192869544450082900000000414864130727275929_" class="st4" d="M112.2 125c.4 0 .6.2.6.6.2 2.4.6 4.7.8 7 0 .3-.3.4-.4.4h-12.4c-.4 0-.6-.2-.6-.6l-.6-7c.2-.3.4-.4.6-.4h12"/><path id="Path_38831_00000176757589742247594680000005437911316419661489_" class="st4" d="M138.7 115.8c.4 0 .6.2.6.4l1.1 7v.2c0 .3-.3.4-.4.4h-12c-.2 0-.6-.2-.6-.6-.4-2.4-.6-4.7-1.1-7 0-.3.3-.4.4-.4h12"/><path id="Path_38832_00000133489380536246350480000018154751851712435586_" class="st4" d="M125 115.8c.3 0 .6.2.4.6l1.1 7c0 .3-.3.4-.4.4h-12c-.2 0-.6-.2-.6-.6-.2-2.4-.6-4.7-.8-7 0-.3.3-.4.4-.4H125"/><path id="Path_38833_00000044159830764556696880000012715956406419253695_" class="st4" d="M166.2 115.8c.4 0 .6.2.8.6l1.3 7v.2c0 .3-.3.4-.4.4h-12.2c-.2 0-.6-.2-.6-.6l-1.3-7v-.2c0-.3.3-.4.4-.4h12"/><path id="Path_38834_00000127015259860959108810000018025364634679212719_" class="st4" d="M152.6 115.8c.3 0 .6.2.4.6l1.3 7v.2c0 .3-.3.4-.4.4h-12c-.2 0-.6-.2-.6-.6l-1.1-7v-.2c0-.3.3-.4.4-.4h12"/><path id="Path_38835_00000172438598487361398130000004635354002701690797_" class="st4" d="M111.2 115.8c.4 0 .6.2.4.6.2 2.4.6 4.7.8 7 0 .3-.3.4-.4.4h-12c-.4 0-.6-.2-.6-.6l-.6-7c0-.3.3-.4.4-.4h12"/><path id="Path_38836_00000124139697753343896300000006758140328752298424_" class="st4" d="M141.7 134.1c.3 0 .6.3.9.4l1.1 7v.2c0 .3-.3.4-.4.4h-12.4c-.2 0-.6-.2-.6-.6-.4-2.4-.6-4.7-1.1-7 0-.3.3-.4.4-.4h12.1"/><path id="Path_38837_00000031908598727004918950000007946360194773117112_" class="st4" d="M127.6 134.1c.3 0 .6.3.6.6l1.1 7c0 .3-.3.4-.4.4h-12.4c-.2 0-.6-.2-.6-.6-.2-2.4-.6-4.7-.8-7 0-.3.3-.4.4-.4h12.1"/><path id="Path_38838_00000080194016366287701420000016818002836969381811_" class="st4" d="M169.8 134.1c.2 0 .6.3.6.6l1.3 7v.2c0 .3-.3.4-.4.4h-12.2c-.2 0-.6-.2-.6-.6l-1.3-7v-.2c0-.3.3-.4.4-.4h12.2"/><path id="Path_38839_00000163795415976543341540000012034842087400888500_" class="st4" d="M155.8 134.1c.3 0 .6.3.4.6l1.3 7v.2c0 .3-.3.4-.4.4h-12.2c-.2 0-.6-.2-.6-.6-.4-2.4-.6-4.7-1.1-7v-.2c0-.3.3-.4.4-.4h12.2"/><path id="Path_38840_00000052805457228802108310000010801386677192261288_" class="st4" d="M113.5 134.1c.3 0 .4.3.6.6.2 2.4.6 4.7.8 7-.2.3-.4.4-.6.4H102c-.2 0-.6-.2-.6-.6l-.6-7c0-.3.4-.4.6-.4h12.1"/><path id="Path_38841_00000037659770953261385300000012327865276372915589_" class="st4" d="M143 143.3c.4 0 .6.4.6.4.4 2.4.6 4.7 1.1 7v.2c0 .3-.3.4-.4.4h-12.4c-.2 0-.6-.2-.6-.6-.4-2.4-.6-4.7-1.1-7 0-.3.3-.4.4-.4H143"/><path id="Path_38842_00000181778508463028606090000007763248696450488220_" class="st4" d="M128.9 143.3c.3 0 .4.4.4.6.4 2.4.9 4.7 1.1 7-.2.3-.4.4-.6.4h-12.4c-.2 0-.6-.2-.6-.6l-.8-7c.2-.3.4-.4.6-.4h12.3"/><path id="Path_38843_00000006700013401483755200000001540576823685287582_" class="st4" d="M171.6 143.3c.4 0 .6.4.6.6l1.3 7v.2c0 .3-.3.4-.4.4h-12.4c-.2 0-.6-.2-.6-.6l-1.3-7v-.2c0-.3.3-.4.4-.4h12.4"/><path id="Path_38844_00000154387346503283367390000017598357465890954886_" class="st4" d="M157.3 143.3c.4 0 .6.4.6.6l1.3 7v.2c0 .3-.3.4-.4.4h-12.5c-.2 0-.6-.2-.6-.6-.4-2.4-.6-4.7-1.1-7v-.2c0-.3.3-.4.4-.4h12.3"/><path id="Path_38845_00000100360523657831604250000011822236400285854088_" class="st4" d="M114.6 143.3c.2 0 .6.4.7.6.2 2.4.6 4.7.8 7 0 .3-.4.4-.6.4h-12.6c-.2 0-.6-.2-.6-.6l-.6-7c0-.3.4-.4.6-.4h12.3"/><path id="Path_38846_00000165201824622871374670000008170084316633447834_" class="st4" d="M144.5 152.7c.4 0 .6.3.8.4l1.1 7v.2c-.2.3-.4.4-.6.4h-12.5c-.2 0-.6-.2-.6-.6-.4-2.4-.6-4.7-1.1-7 .2-.3.4-.4.6-.4h12.3"/><path id="Path_38847_00000095299070284068671850000011051577965561809832_" class="st4" d="M130 152.7c.4 0 .6.3.6.6.4 2.4.6 4.7 1.1 7-.2.3-.4.4-.6.4h-12.6c-.2 0-.6-.2-.6-.6-.2-2.4-.6-4.7-.8-7 0-.3.4-.4.6-.4H130"/><path id="Path_38848_00000031204307973038190920000016074778495564899739_" class="st4" d="M173.2 152.7c.4 0 .6.3.9.4l1.3 7v.2c0 .3-.3.4-.4.4h-12.6c-.4 0-.6-.3-.6-.4l-1.3-7v-.2c0-.3.3-.4.4-.4h12.3"/><path id="Path_38849_00000098908920341542677500000013766091360487614143_" class="st4" d="M159 152.7c.3 0 .6.3.4.6l1.3 7v.2c0 .3-.3.4-.4.4h-12.4c-.2 0-.6-.2-.6-.6-.4-2.4-.6-4.7-1.1-7v-.2c0-.3.3-.4.4-.4H159"/><path id="Path_38850_00000164485186999333093440000008699296402363329156_" class="st4" d="M115.7 152.7c.2 0 .6.3.7.6.2 2.4.6 4.7.8 7 0 .3-.4.4-.6.4H104c-.2 0-.6-.2-.6-.6l-.6-7c0-.3.4-.4.6-.4h12.3"/></g></g></svg>