<svg version="1.1" id="a" xmlns="http://www.w3.org/2000/svg" xmlns:xlink="http://www.w3.org/1999/xlink" x="0" y="0" viewBox="0 0 300 300" xml:space="preserve"><style>.st4{fill:#7b7b7b}.st5{fill:#f7f8f9}.st6{fill:#30cf88}.st7{fill:#f6a90f}.st8{fill:#ec7a30}.st9{fill:#4d4d4d}</style><g transform="translate(-1591.72 -2199.801)"><circle cx="1726.3" cy="2349.8" r="134.6" fill="#ededed"/><defs><path id="SVGID_1_" d="M1858.2 2310.8c-1.7 0-3 1.3-3 3v.7l.7 3c.3 1.7-.7 3.3-2.3 3.7h-145.9c-1.7 0-3 1.3-3 3l.3 18.7c0 1.7 1.3 3 3 3h145.2c1.7 0 3 1.3 3 3v.7l-1 3.7c-.3 1.7.7 3.3 2.3 3.7.7.3 1.7 0 2.3-.3l29.6-19c2.3-1.3 3-4.3 1.3-6.7-.3-.7-1-1-1.7-1.7l-29.6-18.3-1.2-.2z"/></defs><clipPath id="SVGID_00000133503808519117804160000007593378945897643411_"><use xlink:href="#SVGID_1_" overflow="visible"/></clipPath><path d="M1704.6 2310.8h187.8v47.6h-187.8v-47.6z" clip-path="url(#SVGID_00000133503808519117804160000007593378945897643411_)" fill="#00904a"/><defs><path id="SVGID_00000062185751270368976810000010980798982413844876_" d="M1811.9 2358.1l.7 2.3c.3 1-.3 2.3-1.7 2.7h-.7l-90.3-1.3c-1 0-2 1-2 2v13c0 1 1 2 2 2l90.3 1.3c1.3 0 2 1 2 2v.3l-.7 2.7c-.3 1 .3 2.3 1.7 2.7.7 0 1 0 1.7-.3l20.6-13.3c1.7-1 2-3 1-4.7l-1-1-20.6-12.7c-.3-.3-.7-.3-1-.3-1.3 0-2 1-2 2v.6"/></defs><clipPath id="SVGID_00000056402730603729018220000016461424455621237928_"><use xlink:href="#SVGID_00000062185751270368976810000010980798982413844876_" overflow="visible"/></clipPath><path d="M1717.9 2355.5h119.9v33h-119.9v-33z" clip-path="url(#SVGID_00000056402730603729018220000016461424455621237928_)" fill="#00904a"/><path d="M1670 2262.5h112.2c1 0 1.7.7 1.7 1.7v171.2c0 1-.7 1.7-1.7 1.7H1670c-1 0-1.7-.7-1.7-1.7v-171.2c0-1 .7-1.7 1.7-1.7" fill="#484848"/><path class="st4" d="M1664.3 2271.2h124.2c1.3 0 2.3 1 2.3 2.3v29.6c0 1.3-1 2.3-2.3 2.3h-124.2c-1.3 0-2.3-1-2.3-2.3v-29.6c0-1.3 1-2.3 2.3-2.3"/><path class="st5" d="M1673 2279.9h55.6c1.3 0 2.3 1 2.3 2.3v12.7c0 1.3-1 2.3-2.3 2.3H1673c-1.3 0-2.3-1-2.3-2.3v-12.7c0-1.3 1-2.3 2.3-2.3"/><path class="st6" d="M1741.9 2279.9c1 0 1.7.7 1.7 1.7s-.7 1.7-1.7 1.7-1.7-.7-1.7-1.7c-.3-1.1.7-1.7 1.7-1.7"/><path class="st7" d="M1741.9 2286.5c1 0 1.7.7 1.7 1.7s-.7 1.7-1.7 1.7-1.7-.7-1.7-1.7.7-1.7 1.7-1.7"/><path class="st8" d="M1741.9 2293.5c1 0 1.7.7 1.7 1.7s-.7 1.7-1.7 1.7-1.7-.7-1.7-1.7c-.3-1 .7-1.7 1.7-1.7"/><path class="st9" d="M1753.6 2278.5c.7 0 1 .3 1 1v17.3c0 .7-.3 1-1 1s-1-.3-1-1v-17.3c0-.6.6-1 1-1m4.6 0c.7 0 1 .3 1 1v17.3c0 .7-.3 1-1 1-.3 0-1-.3-1-1v-17.3c0-.6.4-1 1-1m4.7 0c.7 0 1 .3 1 1v17.3c0 .7-.3 1-1 1-.3 0-1-.3-1-1v-17.3c0-.6.3-1 1-1m4.3 0c.7 0 1 .3 1 1v17.3c0 .7-.3 1-1 1s-1-.3-1-1v-17.3c.4-.6.7-1 1-1m4.7 0c.7 0 1 .3 1 1v17.3c0 .7-.3 1-1 1-.3 0-1-.3-1-1v-17.3c0-.6.3-1 1-1m4.7 0c.7 0 1 .3 1 1v17.3c0 .7-.3 1-1 1-.3 0-1-.3-1-1v-17.3c0-.6.3-1 1-1m4.3 0c.7 0 1 .3 1 1v17.3c0 .7-.3 1-1 1-.3 0-1-.3-1-1v-17.3c.3-.6.7-1 1-1"/><path class="st4" d="M1676 2282.2c.7 0 1.3.7 1.3 1.3 0 .7-.7 1.3-1.3 1.3-.7 0-1.3-.7-1.3-1.3-.1-1 .6-1.3 1.3-1.3m5.6 0c.7 0 1.3.7 1.3 1.3 0 .7-.7 1.3-1.3 1.3-.7 0-1.3-.7-1.3-1.3 0-1 .3-1.3 1.3-1.3m5.4 0c.7 0 1.3.7 1.3 1.3 0 .7-.7 1.3-1.3 1.3-.7 0-1.3-.7-1.3-1.3-.1-1 .6-1.3 1.3-1.3m5.6 0c.7 0 1.3.7 1.3 1.3 0 .7-.7 1.3-1.3 1.3-.7 0-1.3-.7-1.3-1.3-.3-1 .3-1.3 1.3-1.3m5.4 0c.7 0 1.3.7 1.3 1.3 0 .7-.7 1.3-1.3 1.3-.7 0-1.3-.7-1.3-1.3-.1-1 .6-1.3 1.3-1.3m5.3 0c.7 0 1.3.7 1.3 1.3 0 .7-.7 1.3-1.3 1.3-.7 0-1.3-.7-1.3-1.3 0-1 .6-1.3 1.3-1.3m5.7 0c.7 0 1.3.7 1.3 1.3 0 .7-.7 1.3-1.3 1.3-.7 0-1.3-.7-1.3-1.3-.1-1 .6-1.3 1.3-1.3m5.3 0c.7 0 1.3.7 1.3 1.3 0 .7-.7 1.3-1.3 1.3s-1.3-.7-1.3-1.3c-.1-1 .6-1.3 1.3-1.3m5.6 0c.7 0 1.3.7 1.3 1.3 0 .7-.7 1.3-1.3 1.3-.7 0-1.3-.7-1.3-1.3 0-1 .7-1.3 1.3-1.3m5.4 0c.7 0 1.3.7 1.3 1.3 0 .7-.7 1.3-1.3 1.3-.7 0-1.3-.7-1.3-1.3-.1-1 .6-1.3 1.3-1.3m-49.3 5c.7 0 1.3.7 1.3 1.3s-.7 1.3-1.3 1.3c-.7 0-1.3-.7-1.3-1.3-.1-1 .6-1.3 1.3-1.3m5.6 0c.7 0 1.3.7 1.3 1.3s-.7 1.3-1.3 1.3c-.7 0-1.3-.7-1.3-1.3 0-1 .3-1.3 1.3-1.3m5.4 0c.7 0 1.3.7 1.3 1.3s-.7 1.3-1.3 1.3c-.7 0-1.3-.7-1.3-1.3-.1-1 .6-1.3 1.3-1.3m5.6 0c.7 0 1.3.7 1.3 1.3s-.7 1.3-1.3 1.3-1.3-.7-1.3-1.3.3-1.3 1.3-1.3m5.4 0c.7 0 1.3.7 1.3 1.3s-.7 1.3-1.3 1.3c-.7 0-1.3-.7-1.3-1.3-.1-1 .6-1.3 1.3-1.3m5.3 0c.7 0 1.3.7 1.3 1.3s-.7 1.3-1.3 1.3c-.7 0-1.3-.7-1.3-1.3 0-1 .6-1.3 1.3-1.3m5.7 0c.7 0 1.3.7 1.3 1.3s-.7 1.3-1.3 1.3c-.7 0-1.3-.7-1.3-1.3s.6-1.3 1.3-1.3m5.3 0c.7 0 1.3.7 1.3 1.3s-.7 1.3-1.3 1.3-1.3-.7-1.3-1.3c-.1-1 .6-1.3 1.3-1.3m5.6 0c.7 0 1.3.7 1.3 1.3s-.7 1.3-1.3 1.3c-.7 0-1.3-.7-1.3-1.3 0-1 .7-1.3 1.3-1.3m5.4 0c.7 0 1.3.7 1.3 1.3s-.7 1.3-1.3 1.3c-.7 0-1.3-.7-1.3-1.3s.6-1.3 1.3-1.3m-49.3 5c.7 0 1.3.7 1.3 1.3 0 .7-.7 1.3-1.3 1.3-.7 0-1.3-.7-1.3-1.3-.1-.7.6-1.3 1.3-1.3m5.6 0c.7 0 1.3.7 1.3 1.3 0 .7-.7 1.3-1.3 1.3-.7 0-1.3-.7-1.3-1.3 0-.7.3-1.3 1.3-1.3m5.4 0c.7 0 1.3.7 1.3 1.3 0 .7-.7 1.3-1.3 1.3-.7 0-1.3-.7-1.3-1.3-.1-.7.6-1.3 1.3-1.3m5.6 0c.7 0 1.3.7 1.3 1.3 0 .7-.7 1.3-1.3 1.3s-1.3-.7-1.3-1.3c-.3-.7.3-1.3 1.3-1.3m5.4 0c.7 0 1.3.7 1.3 1.3 0 .7-.7 1.3-1.3 1.3-.7 0-1.3-.7-1.3-1.3-.1-.7.6-1.3 1.3-1.3m5.3 0c.7 0 1.3.7 1.3 1.3 0 .7-.7 1.3-1.3 1.3-.7 0-1.3-.7-1.3-1.3 0-.7.6-1.3 1.3-1.3m5.6 0c.7 0 1.3.7 1.3 1.3 0 .7-.7 1.3-1.3 1.3-.7 0-1.3-.7-1.3-1.3 0-.7.7-1.3 1.3-1.3m5.4 0c.7 0 1.3.7 1.3 1.3 0 .7-.7 1.3-1.3 1.3s-1.3-.7-1.3-1.3c-.1-1 .6-1.3 1.3-1.3m5.6 0c.7 0 1.3.7 1.3 1.3 0 .7-.7 1.3-1.3 1.3-.7 0-1.3-.7-1.3-1.3 0-1 .7-1.3 1.3-1.3m5.4 0c.7 0 1.3.7 1.3 1.3 0 .7-.7 1.3-1.3 1.3-.7 0-1.3-.7-1.3-1.3-.1-1 .6-1.3 1.3-1.3m-61 20h124.2c1.3 0 2.3 1 2.3 2.3v29.6c0 1.3-1 2.3-2.3 2.3h-124.2c-1.3 0-2.3-1-2.3-2.3v-29.6c0-1.3 1-2.3 2.3-2.3"/><path class="st5" d="M1673 2320.8h55.6c1.3 0 2.3 1 2.3 2.3v12.7c0 1.3-1 2.3-2.3 2.3H1673c-1.3 0-2.3-1-2.3-2.3v-12.7c0-1.3 1-2.3 2.3-2.3"/><path class="st6" d="M1741.9 2320.8c1 0 1.7.7 1.7 1.7s-.7 1.7-1.7 1.7-1.7-.7-1.7-1.7c-.3-1 .7-1.7 1.7-1.7"/><path class="st7" d="M1741.9 2327.8c1 0 1.7.7 1.7 1.7s-.7 1.7-1.7 1.7-1.7-.7-1.7-1.7.7-1.7 1.7-1.7"/><path class="st8" d="M1741.9 2334.5c1 0 1.7.7 1.7 1.7s-.7 1.7-1.7 1.7-1.7-.7-1.7-1.7.7-1.7 1.7-1.7"/><path class="st9" d="M1753.6 2319.5c.7 0 1 .3 1 1v17.3c0 .7-.3 1-1 1-.3 0-1-.3-1-1v-17.3c0-.7.6-1 1-1m4.6 0c.7 0 1 .3 1 1v17.3c0 .7-.3 1-1 1-.3 0-1-.3-1-1v-17.3c0-.7.4-1 1-1m4.7 0c.7 0 1 .3 1 1v17.3c0 .7-.3 1-1 1-.3 0-1-.3-1-1v-17.3c0-.7.3-1 1-1m4.3 0c.7 0 1 .3 1 1v17.3c0 .7-.3 1-1 1s-1-.3-1-1v-17.3c.4-.7.7-1 1-1m4.7 0c.7 0 1 .3 1 1v17.3c0 .7-.3 1-1 1-.3 0-1-.3-1-1v-17.3c0-.7.3-1 1-1m4.7 0c.7 0 1 .3 1 1v17.3c0 .7-.3 1-1 1-.3 0-1-.3-1-1v-17.3c0-.7.3-1 1-1m4.3 0c.7 0 1 .3 1 1v17.3c0 .7-.3 1-1 1-.3 0-1-.3-1-1v-17.3c.3-.7.7-1 1-1"/><path class="st4" d="M1676 2323.2c.7 0 1.3.7 1.3 1.3 0 .7-.7 1.3-1.3 1.3-.7 0-1.3-.7-1.3-1.3-.1-.7.6-1.3 1.3-1.3m5.6 0c.7 0 1.3.7 1.3 1.3 0 .7-.7 1.3-1.3 1.3-.7 0-1.3-.7-1.3-1.3 0-.7.3-1.3 1.3-1.3m5.4 0c.7 0 1.3.7 1.3 1.3 0 .7-.7 1.3-1.3 1.3-.7 0-1.3-.7-1.3-1.3-.1-.7.6-1.3 1.3-1.3m5.6 0c.7 0 1.3.7 1.3 1.3 0 .7-.7 1.3-1.3 1.3-.7 0-1.3-.7-1.3-1.3 0-.7.3-1.3 1.3-1.3m5.4 0c.7 0 1.3.7 1.3 1.3 0 .7-.7 1.3-1.3 1.3-.7 0-1.3-.7-1.3-1.3-.1-.7.6-1.3 1.3-1.3m5.3 0c.7 0 1.3.7 1.3 1.3 0 .7-.7 1.3-1.3 1.3-.7 0-1.3-.7-1.3-1.3 0-.7.6-1.3 1.3-1.3m5.7 0c.7 0 1.3.7 1.3 1.3 0 .7-.7 1.3-1.3 1.3-.7 0-1.3-.7-1.3-1.3-.1-.7.6-1.3 1.3-1.3m5.3 0c.7 0 1.3.7 1.3 1.3 0 .7-.7 1.3-1.3 1.3s-1.3-.7-1.3-1.3c-.1-.7.6-1.3 1.3-1.3m5.6 0c.7 0 1.3.7 1.3 1.3 0 .7-.7 1.3-1.3 1.3-.7 0-1.3-.7-1.3-1.3 0-.7.7-1.3 1.3-1.3m5.4 0c.7 0 1.3.7 1.3 1.3 0 .7-.7 1.3-1.3 1.3-.7 0-1.3-.7-1.3-1.3-.1-.7.6-1.3 1.3-1.3m-49.3 5c.7 0 1.3.7 1.3 1.3s-.7 1.3-1.3 1.3c-.7 0-1.3-.7-1.3-1.3s.6-1.3 1.3-1.3m5.6 0c.7 0 1.3.7 1.3 1.3s-.7 1.3-1.3 1.3c-.7 0-1.3-.7-1.3-1.3s.3-1.3 1.3-1.3m5.4 0c.7 0 1.3.7 1.3 1.3s-.7 1.3-1.3 1.3c-.7 0-1.3-.7-1.3-1.3s.6-1.3 1.3-1.3m5.6 0c.7 0 1.3.7 1.3 1.3s-.7 1.3-1.3 1.3-1.3-.7-1.3-1.3.3-1.3 1.3-1.3m5.4 0c.7 0 1.3.7 1.3 1.3s-.7 1.3-1.3 1.3c-.7 0-1.3-.7-1.3-1.3s.6-1.3 1.3-1.3m5.3 0c.7 0 1.3.7 1.3 1.3s-.7 1.3-1.3 1.3c-.7 0-1.3-.7-1.3-1.3s.6-1.3 1.3-1.3m5.7 0c.7 0 1.3.7 1.3 1.3s-.7 1.3-1.3 1.3c-.7 0-1.3-.7-1.3-1.3s.6-1.3 1.3-1.3m5.3 0c.7 0 1.3.7 1.3 1.3s-.7 1.3-1.3 1.3-1.3-.7-1.3-1.3.6-1.3 1.3-1.3m5.6 0c.7 0 1.3.7 1.3 1.3s-.7 1.3-1.3 1.3c-.7 0-1.3-.7-1.3-1.3s.7-1.3 1.3-1.3m5.4 0c.7 0 1.3.7 1.3 1.3s-.7 1.3-1.3 1.3c-.7 0-1.3-.7-1.3-1.3s.6-1.3 1.3-1.3m-49.3 4.9c.7 0 1.3.7 1.3 1.3 0 .7-.7 1.3-1.3 1.3-.7 0-1.3-.7-1.3-1.3-.1-.6.6-1.3 1.3-1.3m5.6 0c.7 0 1.3.7 1.3 1.3 0 .7-.7 1.3-1.3 1.3-.7 0-1.3-.7-1.3-1.3 0-.6.3-1.3 1.3-1.3m5.4 0c.7 0 1.3.7 1.3 1.3 0 .7-.7 1.3-1.3 1.3-.7 0-1.3-.7-1.3-1.3-.1-.6.6-1.3 1.3-1.3m5.6 0c.7 0 1.3.7 1.3 1.3 0 .7-.7 1.3-1.3 1.3s-1.3-.7-1.3-1.3c-.3-.6.3-1.3 1.3-1.3m5.4 0c.7 0 1.3.7 1.3 1.3 0 .7-.7 1.3-1.3 1.3-.7 0-1.3-.7-1.3-1.3-.1-.6.6-1.3 1.3-1.3m5.3 0c.7 0 1.3.7 1.3 1.3 0 .7-.7 1.3-1.3 1.3-.7 0-1.3-.7-1.3-1.3 0-.6.6-1.3 1.3-1.3m5.6 0c.7 0 1.3.7 1.3 1.3 0 .7-.7 1.3-1.3 1.3-.7 0-1.3-.7-1.3-1.3 0-.6.7-1.3 1.3-1.3m5.4 0c.7 0 1.3.7 1.3 1.3 0 .7-.7 1.3-1.3 1.3s-1.3-.7-1.3-1.3c-.1-.6.6-1.3 1.3-1.3m5.6 0c.7 0 1.3.7 1.3 1.3 0 .7-.7 1.3-1.3 1.3-.7 0-1.3-.7-1.3-1.3 0-.6.7-1.3 1.3-1.3m5.4 0c.7 0 1.3.7 1.3 1.3 0 .7-.7 1.3-1.3 1.3-.7 0-1.3-.7-1.3-1.3-.1-.6.6-1.3 1.3-1.3m-61 20h124.2c1.3 0 2.3 1 2.3 2.3v29.6c0 1.3-1 2.3-2.3 2.3h-124.2c-1.3 0-2.3-1-2.3-2.3v-29.6c0-1.3 1-2.3 2.3-2.3"/><path class="st5" d="M1673 2361.8h55.6c1.3 0 2.3 1 2.3 2.3v12.7c0 1.3-1 2.3-2.3 2.3H1673c-1.3 0-2.3-1-2.3-2.3v-12.7c0-1.3 1-2.3 2.3-2.3"/><path class="st6" d="M1741.9 2361.8c1 0 1.7.7 1.7 1.7s-.7 1.7-1.7 1.7-1.7-.7-1.7-1.7c.1-1 .7-1.7 1.7-1.7"/><path class="st7" d="M1741.9 2368.8c1 0 1.7.7 1.7 1.7s-.7 1.7-1.7 1.7-1.7-.7-1.7-1.7.7-1.7 1.7-1.7"/><path class="st8" d="M1741.9 2375.4c1 0 1.7.7 1.7 1.7s-.7 1.7-1.7 1.7-1.7-.7-1.7-1.7.7-1.7 1.7-1.7"/><path class="st9" d="M1753.6 2360.5c.7 0 1 .3 1 1v17.3c0 .7-.3 1-1 1-.3 0-1-.3-1-1v-17.3c0-.7.6-1 1-1m4.6 0c.7 0 1 .3 1 1v17.3c0 .7-.3 1-1 1-.3 0-1-.3-1-1v-17.3c0-.7.4-1 1-1m4.7 0c.7 0 1 .3 1 1v17.3c0 .7-.3 1-1 1-.3 0-1-.3-1-1v-17.3c0-.7.3-1 1-1m4.3 0c.7 0 1 .3 1 1v17.3c0 .7-.3 1-1 1s-1-.3-1-1v-17.3c.4-.7.7-1 1-1m4.7 0c.7 0 1 .3 1 1v17.3c0 .7-.3 1-1 1-.3 0-1-.3-1-1v-17.3c0-.7.3-1 1-1m4.7 0c.7 0 1 .3 1 1v17.3c0 .7-.3 1-1 1-.3 0-1-.3-1-1v-17.3c0-.7.3-1 1-1m4.3 0c.7 0 1 .3 1 1v17.3c0 .7-.3 1-1 1-.3 0-1-.3-1-1v-17.3c.3-.7.7-1 1-1"/><path class="st4" d="M1676 2364.1c.7 0 1.3.7 1.3 1.3 0 .7-.7 1.3-1.3 1.3-.7 0-1.3-.7-1.3-1.3-.1-.6.6-1.3 1.3-1.3m5.6 0c.7 0 1.3.7 1.3 1.3 0 .7-.7 1.3-1.3 1.3-.7 0-1.3-.7-1.3-1.3 0-.6.3-1.3 1.3-1.3m5.4 0c.7 0 1.3.7 1.3 1.3 0 .7-.7 1.3-1.3 1.3-.7 0-1.3-.7-1.3-1.3-.1-.6.6-1.3 1.3-1.3m5.6 0c.7 0 1.3.7 1.3 1.3 0 .7-.7 1.3-1.3 1.3-.7 0-1.3-.7-1.3-1.3-.3-.6.3-1.3 1.3-1.3m5.4 0c.7 0 1.3.7 1.3 1.3 0 .7-.7 1.3-1.3 1.3-.7 0-1.3-.7-1.3-1.3-.1-.6.6-1.3 1.3-1.3m5.3 0c.7 0 1.3.7 1.3 1.3 0 .7-.7 1.3-1.3 1.3-.7 0-1.3-.7-1.3-1.3 0-.6.6-1.3 1.3-1.3m5.7 0c.7 0 1.3.7 1.3 1.3 0 .7-.7 1.3-1.3 1.3-.7 0-1.3-.7-1.3-1.3-.1-.6.6-1.3 1.3-1.3m5.3 0c.7 0 1.3.7 1.3 1.3 0 .7-.7 1.3-1.3 1.3s-1.3-.7-1.3-1.3c-.1-.6.6-1.3 1.3-1.3m5.6 0c.7 0 1.3.7 1.3 1.3 0 .7-.7 1.3-1.3 1.3-.7 0-1.3-.7-1.3-1.3 0-.6.7-1.3 1.3-1.3m5.4 0c.7 0 1.3.7 1.3 1.3 0 .7-.7 1.3-1.3 1.3-.7 0-1.3-.7-1.3-1.3-.1-.6.6-1.3 1.3-1.3m-49.3 5c.7 0 1.3.7 1.3 1.3s-.7 1.3-1.3 1.3c-.7 0-1.3-.7-1.3-1.3s.6-1.3 1.3-1.3m5.6 0c.7 0 1.3.7 1.3 1.3s-.7 1.3-1.3 1.3c-.7 0-1.3-.7-1.3-1.3s.3-1.3 1.3-1.3m5.4 0c.7 0 1.3.7 1.3 1.3s-.7 1.3-1.3 1.3c-.7 0-1.3-.7-1.3-1.3s.6-1.3 1.3-1.3m5.6 0c.7 0 1.3.7 1.3 1.3s-.7 1.3-1.3 1.3-1.3-.7-1.3-1.3c-.3-.6.3-1.3 1.3-1.3m5.4 0c.7 0 1.3.7 1.3 1.3s-.7 1.3-1.3 1.3c-.7 0-1.3-.7-1.3-1.3s.6-1.3 1.3-1.3m5.3 0c.7 0 1.3.7 1.3 1.3s-.7 1.3-1.3 1.3c-.7 0-1.3-.7-1.3-1.3s.6-1.3 1.3-1.3m5.7 0c.7 0 1.3.7 1.3 1.3s-.7 1.3-1.3 1.3c-.7 0-1.3-.7-1.3-1.3s.6-1.3 1.3-1.3m5.3 0c.7 0 1.3.7 1.3 1.3s-.7 1.3-1.3 1.3-1.3-.7-1.3-1.3.6-1.3 1.3-1.3m5.6 0c.7 0 1.3.7 1.3 1.3s-.7 1.3-1.3 1.3c-.7 0-1.3-.7-1.3-1.3s.7-1.3 1.3-1.3m5.4 0c.7 0 1.3.7 1.3 1.3s-.7 1.3-1.3 1.3c-.7 0-1.3-.7-1.3-1.3s.6-1.3 1.3-1.3m-49.3 5c.7 0 1.3.7 1.3 1.3 0 .7-.7 1.3-1.3 1.3-.7 0-1.3-.7-1.3-1.3-.1-.6.6-1.3 1.3-1.3m5.6 0c.7 0 1.3.7 1.3 1.3 0 .7-.7 1.3-1.3 1.3-.7 0-1.3-.7-1.3-1.3 0-.6.3-1.3 1.3-1.3m5.4 0c.7 0 1.3.7 1.3 1.3 0 .7-.7 1.3-1.3 1.3-.7 0-1.3-.7-1.3-1.3-.1-.6.6-1.3 1.3-1.3m5.6 0c.7 0 1.3.7 1.3 1.3 0 .7-.7 1.3-1.3 1.3s-1.3-.7-1.3-1.3c0-.6.3-1.3 1.3-1.3m5.4 0c.7 0 1.3.7 1.3 1.3 0 .7-.7 1.3-1.3 1.3-.7 0-1.3-.7-1.3-1.3-.1-.6.6-1.3 1.3-1.3m5.3 0c.7 0 1.3.7 1.3 1.3 0 .7-.7 1.3-1.3 1.3-.7 0-1.3-.7-1.3-1.3 0-.6.6-1.3 1.3-1.3m5.6 0c.7 0 1.3.7 1.3 1.3 0 .7-.7 1.3-1.3 1.3-.7 0-1.3-.7-1.3-1.3 0-.6.7-1.3 1.3-1.3m5.4 0c.7 0 1.3.7 1.3 1.3 0 .7-.7 1.3-1.3 1.3s-1.3-.7-1.3-1.3c-.1-.6.6-1.3 1.3-1.3m5.6 0c.7 0 1.3.7 1.3 1.3 0 .7-.7 1.3-1.3 1.3-.7 0-1.3-.7-1.3-1.3 0-.6.7-1.3 1.3-1.3m5.4 0c.7 0 1.3.7 1.3 1.3 0 .7-.7 1.3-1.3 1.3-.7 0-1.3-.7-1.3-1.3-.1-.6.6-1.3 1.3-1.3"/><path class="st5" d="M1696 2402.4c1 0 1.7.3 1.7 1.3s-.3 1.7-1.3 1.7c-4 1-6.3 5.3-5.3 9.3.7 2.7 2.7 4.7 5.3 5.3.7 0 1.3 1 1.3 1.7s-1 1.3-1.7 1.3h-.3c-5.7-1.7-9-7.3-7.3-13 1-3.7 3.7-6.3 7.3-7.3l.3-.3zm5 0c6 1.7 9.3 7.3 7.7 13-1 3.7-3.7 6.3-7.3 7.3-.7.3-1.7-.3-2-1-.3-.7.3-1.7 1-2 4-1 6.3-5.3 5.3-9.3-.7-2.7-2.7-4.7-5.3-5.3-.7-.3-1.3-1-1-2 .2-.3.9-.7 1.6-.7zm20.6.7h42c1 0 1.7.7 1.7 1.7s-.7 1.7-1.7 1.7h-42c-1 0-1.7-.7-1.7-1.7s.7-1.7 1.7-1.7m0 7.3h42c1 0 1.7.7 1.7 1.7s-.7 1.7-1.7 1.7h-42c-1 0-1.7-.7-1.7-1.7s.7-1.7 1.7-1.7m0 7h42c1 0 1.7.7 1.7 1.7s-.7 1.7-1.7 1.7h-42c-1 0-1.7-.7-1.7-1.7 0-.7.7-1.7 1.7-1.7"/></g></svg>