<svg version="1.1" id="a" xmlns="http://www.w3.org/2000/svg" x="0" y="0" viewBox="0 0 300 300" xml:space="preserve"><style>.st1{fill:#dad9d7}.st2{fill:#c4c4c4}.st3{fill:#a5abaf}.st4{fill:#265ba1}</style><g id="Group_6870" transform="translate(-1381.22 -2122)"><circle id="Ellipse_2839" cx="1531.2" cy="2281.4" r="140.6" fill="#f4f8fe"/><g id="Group_6738" transform="translate(1386.071 2122)"><g id="Group_6735" transform="translate(0 120.375)"><path id="Path_38819" class="st1" d="M197 151.9v11h13v-11h-13z"/><path id="Path_38820" class="st2" d="M199.4 148.6l-2.3 3.3h13l-2.3-3.3h-8.4z"/><path id="Path_38821" class="st2" d="M201 136.6l-1 1.3h6.7l-1-1.3H201z"/><path id="Rectangle_2640" class="st1" d="M201.4 123.9h3.7v13.7h-3.7v-13.7z"/><path id="Rectangle_2641" class="st3" d="M200 137.9h6.7v12.7H200v-12.7z"/><path id="Path_38822" class="st1" d="M66.1 151.9v11h13v-11h-13z"/><path id="Path_38823" class="st2" d="M68.4 148.6l-2.3 3.3h13l-2.3-3.3h-8.4z"/><path id="Path_38824" class="st2" d="M70.1 136.6l-1 1.3h6.7l-1-1.3h-4.7z"/><path id="Rectangle_2642" class="st1" d="M70.7 123.9h3.7v13.7h-3.7v-13.7z"/><path id="Rectangle_2643" class="st3" d="M69.1 137.9h6.7v12.7h-6.7v-12.7z"/><g id="Group_6589"><g id="Group_6867"><path id="Path_38825" class="st1" d="M128.4 132.2h-116c-.3 0-.3-.3-.7-.3l14-72c0-.3.3-.7.7-.7h109.3c.3 0 .7.3.7.7l-7.3 72c0 .3-.4.3-.7.3"/><path id="Path_38826" class="st4" d="M69.4 74.9h18.7c.3 0 .7.3.7.7-.7 3.7-1 7.3-1.7 11 0 .7-.7 1-1 1h-19c-.3 0-.7-.3-.7-.7v-.3l1.7-11c.3-.4.6-.7 1.3-.7"/><path id="Path_38827" class="st4" d="M91.1 74.9h18.7c.3 0 .7.3.7.7-.3 3.7-1 7.3-1.3 11 0 .7-.7 1-1 1h-19c-.3 0-.7-.3-.7-.7l1.7-11c-.1-.7.5-1 .9-1"/><path id="Path_38828" class="st4" d="M25.8 74.9h19c.3 0 .7.3.7.7v.3l-2 11c0 .7-.7 1-1 1h-19c-.3 0-.7-.3-.7-.7v-.3l2-11c0-.7.6-1 1-1"/><path id="Path_38829" class="st4" d="M47.7 74.9h18.7c.3 0 .7.3.7.7v.3l-1.7 11c0 .7-.7 1-1 1h-19c-.3 0-.7-.3-.7-.7v-.3l2-11c0-.7.4-1 1-1"/><path id="Path_38830" class="st4" d="M113.1 74.9h18.7c.3 0 .7.3 1 .7l-1 11c0 .7-.3 1-1 1h-19.3c-.3 0-.7-.3-.7-.7.3-3.7 1-7.3 1.3-11 0-.7.3-1 1-1"/><path id="Path_38831" class="st4" d="M71.7 60.6h18.7c.3 0 .7.3.7.7-.7 3.7-1 7.3-1.7 11 0 .7-.7 1-1 1H69.7c-.3 0-.7-.3-.7-.7v-.3l1.7-11c0-.4.4-.7 1-.7"/><path id="Path_38832" class="st4" d="M93.1 60.6h18.7c.3 0 .7.3.7.7-.3 3.7-1 7.3-1.3 11 0 .7-.7 1-1 1H91.4c-.3 0-.7-.3-.7-.7l1.7-11c-.3-.7.3-1 .7-1"/><path id="Path_38833" class="st4" d="M28.8 60.6h18.7c.3 0 .7.3.7.7v.3l-2 11c0 .7-.7 1-1 1h-19c-.3 0-.7-.3-.7-.7v-.3l2-11c.3-.7.6-1 1.3-1"/><path id="Path_38834" class="st4" d="M50.1 60.6h18.7c.3 0 .7.3.7.7v.3l-1.7 11c0 .7-.7 1-1 1H48.1c-.3 0-.7-.3-.7-.7v-.3l2-11c-.3-.7.3-1 .7-1"/><path id="Path_38835" class="st4" d="M114.7 60.6h18.7c.3 0 .7.3.7.7l-1 11c0 .7-.3 1-1 1h-18.7c-.3 0-.7-.3-.7-.7.3-3.7 1-7.3 1.3-11-.3-.7.1-1 .7-1"/><path id="Path_38836" class="st4" d="M67.1 89.2h19c.3 0 .7.3.7.7-.7 3.7-1 7.3-1.7 11 0 .7-.7 1-1 1H64.7c-.3 0-.7-.3-.7-.7v-.3l1.7-11c.4-.3 1-.7 1.4-.7"/><path id="Path_38837" class="st4" d="M89.1 89.2h19c.3 0 .7.3.7.7-.3 3.7-1 7.3-1.3 11 0 .7-.7 1-1 1H87.1c-.3 0-.7-.3-.7-.7l1.7-11c0-.6.6-1 1-1"/><path id="Path_38838" class="st4" d="M23.1 89.2h19c.3 0 .7.3.7.7v.3l-2 11c0 .7-.7 1-1 1h-19c-.3 0-.7-.3-.7-.7v-.3l2-11c0-.6.7-1 1-1"/><path id="Path_38839" class="st4" d="M45.1 89.2h19c.3 0 .7.3.7.7v.3c-.7 3.7-1 7.3-1.7 11 0 .7-.7 1-1 1h-19c-.3 0-.7-.3-.7-.7v-.3l2-11c-.3-.6.3-1 .7-1"/><path id="Path_38840" class="st4" d="M111.1 89.2h19c.3 0 1 .3 1 .7l-1 11c0 .7-.7 1-1 1h-19.3c-.3 0-.7-.3-1-.7.3-3.7 1-7.3 1.3-11 .3-.6.6-1 1-1"/><path id="Path_38841" class="st4" d="M65.1 103.6h19.3c.3 0 .7.3.7.7-.7 3.7-1 7.3-1.7 11 0 .7-.7 1-1 1H63.1c-.3 0-.7-.3-.7-.7v-.3c.7-3.7 1-7.3 1.7-11 0-.1.3-.7 1-.7"/><path id="Path_38842" class="st4" d="M87.1 103.6h19.3c.3 0 .7.3 1 .7l-1.3 11c0 .7-.7 1-1 1H85.7c-.3 0-.7-.3-1-.7.3-3.7 1-7.3 1.7-11 0-.4.3-1 .7-1"/><path id="Path_38843" class="st4" d="M20.4 103.6h19.3c.3 0 .7.3.7.7v.3l-2 11c0 .7-.7 1-1 1H18.1c-.3 0-.7-.3-.7-.7v-.3l2-11c0-.4.4-1 1-1"/><path id="Path_38844" class="st4" d="M42.7 103.6H62c.3 0 .7.3.7.7v.3c-.7 3.7-1 7.3-1.7 11 0 .7-.7 1-1 1H40.4c-.3 0-.7-.3-.7-.7v-.3l2-11c0-.4.4-1 1-1"/><path id="Path_38845" class="st4" d="M109.4 103.6h19.3c.3 0 1 .3 1 .7l-1 11c0 .7-.7 1-1 1H108c-.3 0-1-.3-1-.7.3-3.7 1-7.3 1.3-11 .1-.4.8-1 1.1-1"/><path id="Path_38846" class="st4" d="M62.7 118.2H82c.3 0 .7.3 1 .7-.7 3.7-1 7.3-1.7 11 0 .7-.7 1-1 1H60.7c-.3 0-.7-.3-1-.7v-.3l1.7-11c.3-.3.7-.7 1.3-.7"/><path id="Path_38847" class="st4" d="M85.4 118.2h19.3c.3 0 1 .3 1 .7-.3 3.7-1 7.3-1.3 11 0 .7-.7 1-1 1H83.7c-.3 0-.7-.3-1-.7.7-3.7 1-7.3 1.7-11 0-.6.3-1 1-1"/><path id="Path_38848" class="st4" d="M17.8 118.2h19.3c.3 0 .7.3.7.7v.3l-2 11c0 .3-.3.7-1 .7H15.1c-.3 0-.7-.3-.7-.7v-.3l2-11c.4-.3.7-.7 1.4-.7"/><path id="Path_38849" class="st4" d="M40.1 118.2h19.3c.3 0 .7.3.7.7v.3c-.7 3.7-1 7.3-1.7 11 0 .7-.7 1-1 1H38.1c-.3 0-.7-.3-.7-.7v-.3l2-11c-.3-.6.3-1 .7-1"/><path id="Path_38850" class="st4" d="M107.7 118.2H127c.3 0 1 .3 1 .7l-1 11c0 .7-.7 1-1 1h-19.7c-.3 0-1-.3-1-.7.3-3.7 1-7.3 1.3-11 .1-.6.8-1 1.1-1"/></g></g></g><g id="Group_6736" transform="translate(41.577)"><path id="Path_38958" class="st1" d="M102.7 80.4L92.1 299.7h25.3l-11-219.3h-3.7z"/><path id="Path_38959" class="st2" d="M175 114.7c-18.3-12.3-58-37.7-68.6-35.3 7-8 2-55.7-.7-77.6-.3-2.3-2.7-2.3-3 0-2.7 22-7.7 70-.7 77.6-9.7-3-50.3 23-69 35.3-2 1.3-1 3.3 1.3 2.7 21-7.7 66.6-25 69.6-34.3 3 9.7 48.7 27 69.6 34.3 2.5.7 3.5-1.3 1.5-2.7m-70.6-34.3l-.3.3v.3-.3c0-.3-.3-.3-.3-.3h.6"/><path id="Path_38960" class="st3" d="M111.4 81.1c0-4-3.3-7.3-7.3-7.3s-7.3 3.3-7.3 7.3 3.3 7.3 7.3 7.3 7.3-3.3 7.3-7.3"/></g></g></g><g id="Group_6589_00000101783844597622379090000014849927455918886059_"><g id="Group_6867_00000039119195857060373200000016845503251128817285_"><path id="Path_38825_00000173161456314647123880000008398769615830215861_" class="st1" d="M169.4 252.6c-.3 0-.7 0-.7-.3l-7.3-72c0-.4.4-.7.7-.7h109.3c.4 0 .7.4.7.7l14 72c-.4 0-.4.3-.7.3h-116"/><path id="Path_38826_00000129902173291785374450000002514985061670574748_" class="st4" d="M228.4 195.3c.7 0 1 .3 1.3.7l1.7 11v.3c0 .4-.4.7-.7.7h-19c-.3 0-1-.3-1-1-.7-3.7-1-7.3-1.7-11 0-.4.4-.7.7-.7h18.7"/><path id="Path_38827_00000075863950523287277370000007525419951806734475_" class="st4" d="M206.7 195.3c.4 0 1 .3.9 1l1.7 11c0 .4-.4.7-.7.7h-19c-.3 0-1-.3-1-1-.3-3.7-1-7.3-1.3-11 0-.4.4-.7.7-.7h18.7"/><path id="Path_38828_00000129207492013486981830000013595681991056804284_" class="st4" d="M272 195.3c.4 0 1 .3 1 1l2 11v.3c0 .4-.4.7-.7.7h-19c-.3 0-1-.3-1-1l-2-11v-.3c0-.4.4-.7.7-.7h19"/><path id="Path_38829_00000062905523795027699850000008251209874091501440_" class="st4" d="M250.1 195.3c.6 0 1 .3 1 1l2 11v.3c0 .4-.4.7-.7.7h-19c-.3 0-1-.3-1-1l-1.7-11v-.3c0-.4.4-.7.7-.7h18.7"/><path id="Path_38830_00000111192869544450082900000000414864130727275929_" class="st4" d="M184.7 195.3c.7 0 1 .3 1 1 .3 3.7 1 7.3 1.3 11 0 .4-.4.7-.7.7H167c-.7 0-1-.3-1-1l-1-11c.3-.4.7-.7 1-.7h18.7"/><path id="Path_38831_00000176757589742247594680000005437911316419661489_" class="st4" d="M226.1 181c.6 0 1 .3 1 .7l1.7 11v.3c0 .4-.4.7-.7.7h-18.7c-.3 0-1-.3-1-1-.7-3.7-1-7.3-1.7-11 0-.4.4-.7.7-.7h18.7"/><path id="Path_38832_00000133489380536246350480000018154751851712435586_" class="st4" d="M204.7 181c.4 0 1 .3.7 1l1.7 11c0 .4-.4.7-.7.7h-18.8c-.3 0-1-.3-1-1-.3-3.7-1-7.3-1.3-11 0-.4.4-.7.7-.7h18.7"/><path id="Path_38833_00000044159830764556696880000012715956406419253695_" class="st4" d="M269 181c.7 0 1 .3 1.3 1l2 11v.3c0 .4-.4.7-.7.7h-19c-.3 0-1-.3-1-1l-2-11v-.3c0-.4.4-.7.7-.7H269"/><path id="Path_38834_00000127015259860959108810000018025364634679212719_" class="st4" d="M247.7 181c.4 0 1 .3.7 1l2 11v.3c0 .4-.4.7-.7.7H231c-.3 0-1-.3-1-1l-1.7-11v-.3c0-.4.4-.7.7-.7h18.7"/><path id="Path_38835_00000172438598487361398130000004635354002701690797_" class="st4" d="M183.1 181c.6 0 1 .3.7 1 .3 3.7 1 7.3 1.3 11 0 .4-.4.7-.7.7h-18.7c-.7 0-1-.3-1-1l-1-11c0-.4.4-.7.7-.7h18.7"/><path id="Path_38836_00000124139697753343896300000006758140328752298424_" class="st4" d="M230.7 209.6c.4 0 1 .4 1.4.7l1.7 11v.3c0 .4-.4.7-.7.7h-19.4c-.3 0-1-.3-1-1-.7-3.7-1-7.3-1.7-11 0-.4.4-.7.7-.7h19"/><path id="Path_38837_00000031908598727004918950000007946360194773117112_" class="st4" d="M208.7 209.6c.4 0 1 .4 1 1l1.7 11c0 .4-.4.7-.7.7h-19.4c-.3 0-1-.3-1-1-.3-3.7-1-7.3-1.3-11 0-.4.4-.7.7-.7h19"/><path id="Path_38838_00000080194016366287701420000016818002836969381811_" class="st4" d="M274.7 209.6c.3 0 1 .4 1 1l2 11v.3c0 .4-.4.7-.7.7h-19c-.3 0-1-.3-1-1l-2-11v-.3c0-.4.4-.7.7-.7h19"/><path id="Path_38839_00000163795415976543341540000012034842087400888500_" class="st4" d="M252.7 209.6c.4 0 1 .4.7 1l2 11v.3c0 .4-.4.7-.7.7h-19c-.3 0-1-.3-1-1-.7-3.7-1-7.3-1.7-11v-.3c0-.4.4-.7.7-.7h19"/><path id="Path_38840_00000052805457228802108310000010801386677192261288_" class="st4" d="M186.7 209.6c.4 0 .7.4 1 1 .3 3.7 1 7.3 1.3 11-.3.4-.7.7-1 .7h-19.3c-.3 0-1-.3-1-1l-1-11c0-.4.7-.7 1-.7h19"/><path id="Path_38841_00000037659770953261385300000012327865276372915589_" class="st4" d="M232.7 224c.7 0 1 .6 1 .7.7 3.7 1 7.3 1.7 11v.3c0 .4-.4.7-.7.7h-19.3c-.3 0-1-.3-1-1-.7-3.7-1-7.3-1.7-11 0-.4.4-.7.7-.7h19.3"/><path id="Path_38842_00000181778508463028606090000007763248696450488220_" class="st4" d="M210.7 224c.4 0 .7.6.7 1 .7 3.7 1.4 7.3 1.7 11-.3.4-.7.7-1 .7h-19.4c-.3 0-1-.3-1-1l-1.3-11c.3-.4.7-.7 1-.7h19.3"/><path id="Path_38843_00000006700013401483755200000001540576823685287582_" class="st4" d="M277.4 224c.6 0 1 .6 1 1l2 11v.3c0 .4-.4.7-.7.7h-19.3c-.3 0-1-.3-1-1l-2-11v-.3c0-.4.4-.7.7-.7h19.3"/><path id="Path_38844_00000154387346503283367390000017598357465890954886_" class="st4" d="M255.1 224c.6 0 1 .6 1 1l2 11v.3c0 .4-.4.7-.7.7h-19.6c-.3 0-1-.3-1-1-.7-3.7-1-7.3-1.7-11v-.3c0-.4.4-.7.7-.7h19.3"/><path id="Path_38845_00000100360523657831604250000011822236400285854088_" class="st4" d="M188.4 224c.3 0 1 .6 1.1 1 .3 3.7 1 7.3 1.3 11 0 .4-.7.7-1 .7h-19.7c-.3 0-1-.3-1-1l-1-11c0-.4.7-.7 1-.7h19.3"/><path id="Path_38846_00000165201824622871374670000008170084316633447834_" class="st4" d="M235.1 238.6c.6 0 1 .4 1.3.7l1.7 11v.3c-.3.4-.7.7-1 .7h-19.6c-.3 0-1-.3-1-1-.7-3.7-1-7.3-1.7-11 .3-.4.7-.7 1-.7h19.3"/><path id="Path_38847_00000095299070284068671850000011051577965561809832_" class="st4" d="M212.4 238.6c.7 0 1 .4 1 1 .7 3.7 1 7.3 1.7 11-.3.4-.7.7-1 .7h-19.7c-.3 0-1-.3-1-1-.3-3.7-1-7.3-1.3-11 0-.4.7-.7 1-.7h19.3"/><path id="Path_38848_00000031204307973038190920000016074778495564899739_" class="st4" d="M280 238.6c.7 0 1 .4 1.4.7l2 11v.3c0 .4-.4.7-.7.7H263c-.7 0-1-.4-1-.7l-2-11v-.3c0-.4.4-.7.7-.7H280"/><path id="Path_38849_00000098908920341542677500000013766091360487614143_" class="st4" d="M257.7 238.6c.4 0 1 .4.7 1l2 11v.3c0 .4-.4.7-.7.7h-19.3c-.3 0-1-.3-1-1-.7-3.7-1-7.3-1.7-11v-.3c0-.4.4-.7.7-.7h19.3"/><path id="Path_38850_00000164485186999333093440000008699296402363329156_" class="st4" d="M190.1 238.6c.3 0 1 .4 1.1 1 .3 3.7 1 7.3 1.3 11 0 .4-.7.7-1 .7h-19.7c-.3 0-1-.3-1-1l-1-11c0-.4.7-.7 1-.7h19.3"/></g></g></svg>