<svg version="1.1" id="a" xmlns="http://www.w3.org/2000/svg" xmlns:xlink="http://www.w3.org/1999/xlink" x="0" y="0" viewBox="0 0 200.6 180" xml:space="preserve"><style>.st4{fill:#7b7b7b}.st5{fill:#f7f8f9}.st6{fill:#30cf88}.st7{fill:#f6a90f}.st8{fill:#ec7a30}.st9{fill:#4d4d4d}</style><g transform="translate(-1591.72 -2199.801)"><circle cx="1681.7" cy="2289.8" r="90" fill="#ededed"/><defs><path id="SVGID_1_" d="M1769.9 2263.7c-1.1 0-2 .9-2 2v.5l.5 2c.2 1.1-.5 2.2-1.5 2.5h-97.6c-1.1 0-2 .9-2 2l.2 12.5c0 1.1.9 2 2 2h97.1c1.1 0 2 .9 2 2v.5l-.7 2.5c-.2 1.1.5 2.2 1.5 2.5.5.2 1.1 0 1.5-.2l19.8-12.7c1.5-.9 2-2.9.9-4.5-.2-.5-.7-.7-1.1-1.1l-19.8-12.2-.8-.3z"/></defs><clipPath id="SVGID_00000137126523524994687200000001354535406192504509_"><use xlink:href="#SVGID_1_" overflow="visible"/></clipPath><path d="M1667.2 2263.7h125.6v31.8h-125.6v-31.8z" clip-path="url(#SVGID_00000137126523524994687200000001354535406192504509_)" fill="#00904a"/><defs><path id="SVGID_00000161623866152635414320000000975236873130841235_" d="M1739 2295.4l.5 1.5c.2.7-.2 1.5-1.1 1.8h-.5l-60.4-.9c-.7 0-1.3.7-1.3 1.3v8.7c0 .7.7 1.3 1.3 1.3l60.4.9c.9 0 1.3.7 1.3 1.3v.2l-.5 1.8c-.2.7.2 1.5 1.1 1.8.5 0 .7 0 1.1-.2l13.8-8.9c1.1-.7 1.3-2 .7-3.1l-.7-.7-13.8-8.5c-.2-.2-.5-.2-.7-.2-.9 0-1.3.7-1.3 1.3v.6"/></defs><clipPath id="SVGID_00000025426432076785139080000008630638180017450377_"><use xlink:href="#SVGID_00000161623866152635414320000000975236873130841235_" overflow="visible"/></clipPath><path d="M1676.1 2293.6h80.2v22.1h-80.2v-22.1z" clip-path="url(#SVGID_00000025426432076785139080000008630638180017450377_)" fill="#00904a"/><path d="M1644.1 2231.4h75c.7 0 1.1.5 1.1 1.1V2347c0 .7-.5 1.1-1.1 1.1h-75c-.7 0-1.1-.5-1.1-1.1v-114.5c-.1-.6.4-1.1 1.1-1.1" fill="#484848"/><path class="st4" d="M1640.3 2237.2h83c.9 0 1.5.7 1.5 1.5v19.8c0 .9-.7 1.5-1.5 1.5h-83c-.9 0-1.5-.7-1.5-1.5v-19.8c-.1-.8.6-1.5 1.5-1.5"/><path class="st5" d="M1646.1 2243.1h37.2c.9 0 1.5.7 1.5 1.5v8.5c0 .9-.7 1.5-1.5 1.5h-37.2c-.9 0-1.5-.7-1.5-1.5v-8.5c-.1-.9.6-1.5 1.5-1.5"/><path class="st6" d="M1692.2 2243.1c.7 0 1.1.5 1.1 1.1 0 .7-.5 1.1-1.1 1.1-.7 0-1.1-.5-1.1-1.1-.3-.7.4-1.1 1.1-1.1"/><path class="st7" d="M1692.2 2247.5c.7 0 1.1.5 1.1 1.1 0 .7-.5 1.1-1.1 1.1-.7 0-1.1-.5-1.1-1.1-.1-.7.4-1.1 1.1-1.1"/><path class="st8" d="M1692.2 2252.2c.7 0 1.1.5 1.1 1.1s-.5 1.1-1.1 1.1c-.7 0-1.1-.5-1.1-1.1-.3-.7.4-1.1 1.1-1.1"/><path class="st9" d="M1700 2242.1c.5 0 .7.2.7.7v11.6c0 .5-.2.7-.7.7s-.7-.2-.7-.7v-11.6c0-.4.4-.7.7-.7m3 0c.5 0 .7.2.7.7v11.6c0 .5-.2.7-.7.7-.2 0-.7-.2-.7-.7v-11.6c.1-.4.3-.7.7-.7m3.2 0c.5 0 .7.2.7.7v11.6c0 .5-.2.7-.7.7-.2 0-.7-.2-.7-.7v-11.6c0-.4.2-.7.7-.7m2.9 0c.5 0 .7.2.7.7v11.6c0 .5-.2.7-.7.7s-.7-.2-.7-.7v-11.6c.3-.4.5-.7.7-.7m3.1 0c.5 0 .7.2.7.7v11.6c0 .5-.2.7-.7.7-.2 0-.7-.2-.7-.7v-11.6c0-.4.2-.7.7-.7m3.2 0c.5 0 .7.2.7.7v11.6c0 .5-.2.7-.7.7-.2 0-.7-.2-.7-.7v-11.6c0-.4.2-.7.7-.7m2.8 0c.5 0 .7.2.7.7v11.6c0 .5-.2.7-.7.7-.2 0-.7-.2-.7-.7v-11.6c.3-.4.5-.7.7-.7"/><path class="st4" d="M1648.1 2244.6c.5 0 .9.5.9.9 0 .5-.5.9-.9.9-.5 0-.9-.5-.9-.9 0-.7.4-.9.9-.9m3.7 0c.5 0 .9.5.9.9 0 .5-.5.9-.9.9-.5 0-.9-.5-.9-.9.1-.7.3-.9.9-.9m3.6 0c.5 0 .9.5.9.9 0 .5-.5.9-.9.9-.5 0-.9-.5-.9-.9 0-.7.5-.9.9-.9m3.8 0c.5 0 .9.5.9.9 0 .5-.5.9-.9.9-.5 0-.9-.5-.9-.9-.2-.7.2-.9.9-.9m3.6 0c.5 0 .9.5.9.9 0 .5-.5.9-.9.9-.5 0-.9-.5-.9-.9 0-.7.4-.9.9-.9m3.5 0c.5 0 .9.5.9.9 0 .5-.5.9-.9.9-.5 0-.9-.5-.9-.9.1-.7.5-.9.9-.9m3.9 0c.5 0 .9.5.9.9 0 .5-.5.9-.9.9-.5 0-.9-.5-.9-.9-.1-.7.4-.9.9-.9m3.5 0c.5 0 .9.5.9.9 0 .5-.5.9-.9.9s-.9-.5-.9-.9c0-.7.4-.9.9-.9m3.7 0c.5 0 .9.5.9.9 0 .5-.5.9-.9.9-.5 0-.9-.5-.9-.9.1-.7.5-.9.9-.9m3.7 0c.5 0 .9.5.9.9 0 .5-.5.9-.9.9-.5 0-.9-.5-.9-.9-.1-.7.4-.9.9-.9m-33 3.3c.5 0 .9.5.9.9s-.5.9-.9.9c-.5 0-.9-.5-.9-.9 0-.7.4-.9.9-.9m3.7 0c.5 0 .9.5.9.9s-.5.9-.9.9c-.5 0-.9-.5-.9-.9.1-.7.3-.9.9-.9m3.6 0c.5 0 .9.5.9.9s-.5.9-.9.9c-.5 0-.9-.5-.9-.9 0-.7.5-.9.9-.9m3.8 0c.5 0 .9.5.9.9s-.5.9-.9.9-.9-.5-.9-.9.2-.9.9-.9m3.6 0c.5 0 .9.5.9.9s-.5.9-.9.9c-.5 0-.9-.5-.9-.9 0-.7.4-.9.9-.9m3.5 0c.5 0 .9.5.9.9s-.5.9-.9.9c-.5 0-.9-.5-.9-.9.1-.7.5-.9.9-.9m3.9 0c.5 0 .9.5.9.9s-.5.9-.9.9c-.5 0-.9-.5-.9-.9s.4-.9.9-.9m3.5 0c.5 0 .9.5.9.9s-.5.9-.9.9-.9-.5-.9-.9c0-.7.4-.9.9-.9m3.7 0c.5 0 .9.5.9.9s-.5.9-.9.9c-.5 0-.9-.5-.9-.9.1-.7.5-.9.9-.9m3.7 0c.5 0 .9.5.9.9s-.5.9-.9.9c-.5 0-.9-.5-.9-.9s.4-.9.9-.9m-33 3.4c.5 0 .9.5.9.9 0 .5-.5.9-.9.9-.5 0-.9-.5-.9-.9 0-.5.4-.9.9-.9m3.7 0c.5 0 .9.5.9.9 0 .5-.5.9-.9.9-.5 0-.9-.5-.9-.9.1-.5.3-.9.9-.9m3.6 0c.5 0 .9.5.9.9 0 .5-.5.9-.9.9-.5 0-.9-.5-.9-.9 0-.5.5-.9.9-.9m3.8 0c.5 0 .9.5.9.9 0 .5-.5.9-.9.9s-.9-.5-.9-.9c-.2-.5.2-.9.9-.9m3.6 0c.5 0 .9.5.9.9 0 .5-.5.9-.9.9-.5 0-.9-.5-.9-.9 0-.5.4-.9.9-.9m3.5 0c.5 0 .9.5.9.9 0 .5-.5.9-.9.9-.5 0-.9-.5-.9-.9.1-.5.5-.9.9-.9m3.8 0c.5 0 .9.5.9.9 0 .5-.5.9-.9.9-.5 0-.9-.5-.9-.9 0-.5.5-.9.9-.9m3.6 0c.5 0 .9.5.9.9 0 .5-.5.9-.9.9s-.9-.5-.9-.9c0-.7.4-.9.9-.9m3.7 0c.5 0 .9.5.9.9 0 .5-.5.9-.9.9-.5 0-.9-.5-.9-.9.1-.7.5-.9.9-.9m3.7 0c.5 0 .9.5.9.9 0 .5-.5.9-.9.9-.5 0-.9-.5-.9-.9-.1-.7.4-.9.9-.9m-40.8 13.4h83c.9 0 1.5.7 1.5 1.5v19.8c0 .9-.7 1.5-1.5 1.5h-83c-.9 0-1.5-.7-1.5-1.5v-19.8c-.1-.9.6-1.5 1.5-1.5"/><path class="st5" d="M1646.1 2270.4h37.2c.9 0 1.5.7 1.5 1.5v8.5c0 .9-.7 1.5-1.5 1.5h-37.2c-.9 0-1.5-.7-1.5-1.5v-8.5c-.1-.8.6-1.5 1.5-1.5"/><path class="st6" d="M1692.2 2270.4c.7 0 1.1.5 1.1 1.1s-.5 1.1-1.1 1.1c-.7 0-1.1-.5-1.1-1.1-.3-.6.4-1.1 1.1-1.1"/><path class="st7" d="M1692.2 2275.1c.7 0 1.1.5 1.1 1.1 0 .7-.5 1.1-1.1 1.1-.7 0-1.1-.5-1.1-1.1-.1-.6.4-1.1 1.1-1.1"/><path class="st8" d="M1692.2 2279.6c.7 0 1.1.5 1.1 1.1s-.5 1.1-1.1 1.1c-.7 0-1.1-.5-1.1-1.1s.4-1.1 1.1-1.1"/><path class="st9" d="M1700 2269.5c.5 0 .7.2.7.7v11.6c0 .5-.2.7-.7.7-.2 0-.7-.2-.7-.7v-11.6c0-.5.4-.7.7-.7m3 0c.5 0 .7.2.7.7v11.6c0 .5-.2.7-.7.7-.2 0-.7-.2-.7-.7v-11.6c.1-.5.3-.7.7-.7m3.2 0c.5 0 .7.2.7.7v11.6c0 .5-.2.7-.7.7-.2 0-.7-.2-.7-.7v-11.6c0-.5.2-.7.7-.7m2.9 0c.5 0 .7.2.7.7v11.6c0 .5-.2.7-.7.7s-.7-.2-.7-.7v-11.6c.3-.5.5-.7.7-.7m3.1 0c.5 0 .7.2.7.7v11.6c0 .5-.2.7-.7.7-.2 0-.7-.2-.7-.7v-11.6c0-.5.2-.7.7-.7m3.2 0c.5 0 .7.2.7.7v11.6c0 .5-.2.7-.7.7-.2 0-.7-.2-.7-.7v-11.6c0-.5.2-.7.7-.7m2.8 0c.5 0 .7.2.7.7v11.6c0 .5-.2.7-.7.7-.2 0-.7-.2-.7-.7v-11.6c.3-.5.5-.7.7-.7"/><path class="st4" d="M1648.1 2272c.5 0 .9.5.9.9 0 .5-.5.9-.9.9-.5 0-.9-.5-.9-.9 0-.5.4-.9.9-.9m3.7 0c.5 0 .9.5.9.9 0 .5-.5.9-.9.9-.5 0-.9-.5-.9-.9.1-.5.3-.9.9-.9m3.6 0c.5 0 .9.5.9.9 0 .5-.5.9-.9.9-.5 0-.9-.5-.9-.9 0-.5.5-.9.9-.9m3.8 0c.5 0 .9.5.9.9 0 .5-.5.9-.9.9-.5 0-.9-.5-.9-.9 0-.5.2-.9.9-.9m3.6 0c.5 0 .9.5.9.9 0 .5-.5.9-.9.9-.5 0-.9-.5-.9-.9 0-.5.4-.9.9-.9m3.5 0c.5 0 .9.5.9.9 0 .5-.5.9-.9.9-.5 0-.9-.5-.9-.9.1-.5.5-.9.9-.9m3.9 0c.5 0 .9.5.9.9 0 .5-.5.9-.9.9-.5 0-.9-.5-.9-.9-.1-.5.4-.9.9-.9m3.5 0c.5 0 .9.5.9.9 0 .5-.5.9-.9.9s-.9-.5-.9-.9c0-.5.4-.9.9-.9m3.7 0c.5 0 .9.5.9.9 0 .5-.5.9-.9.9-.5 0-.9-.5-.9-.9.1-.5.5-.9.9-.9m3.7 0c.5 0 .9.5.9.9 0 .5-.5.9-.9.9-.5 0-.9-.5-.9-.9-.1-.5.4-.9.9-.9m-33 3.4c.5 0 .9.5.9.9s-.5.9-.9.9c-.5 0-.9-.5-.9-.9 0-.5.4-.9.9-.9m3.7 0c.5 0 .9.5.9.9s-.5.9-.9.9c-.5 0-.9-.5-.9-.9.1-.5.3-.9.9-.9m3.6 0c.5 0 .9.5.9.9s-.5.9-.9.9c-.5 0-.9-.5-.9-.9.1-.5.5-.9.9-.9m3.8 0c.5 0 .9.5.9.9s-.5.9-.9.9-.9-.5-.9-.9c0-.5.2-.9.9-.9m3.6 0c.5 0 .9.5.9.9s-.5.9-.9.9c-.5 0-.9-.5-.9-.9 0-.5.4-.9.9-.9m3.5 0c.5 0 .9.5.9.9s-.5.9-.9.9c-.5 0-.9-.5-.9-.9.1-.5.5-.9.9-.9m3.9 0c.5 0 .9.5.9.9s-.5.9-.9.9c-.5 0-.9-.5-.9-.9 0-.5.4-.9.9-.9m3.5 0c.5 0 .9.5.9.9s-.5.9-.9.9-.9-.5-.9-.9c0-.5.4-.9.9-.9m3.7 0c.5 0 .9.5.9.9s-.5.9-.9.9c-.5 0-.9-.5-.9-.9.1-.5.5-.9.9-.9m3.7 0c.5 0 .9.5.9.9s-.5.9-.9.9c-.5 0-.9-.5-.9-.9 0-.5.4-.9.9-.9m-33 3.2c.5 0 .9.5.9.9 0 .5-.5.9-.9.9-.5 0-.9-.5-.9-.9s.4-.9.9-.9m3.7 0c.5 0 .9.5.9.9 0 .5-.5.9-.9.9-.5 0-.9-.5-.9-.9.1-.4.3-.9.9-.9m3.6 0c.5 0 .9.5.9.9 0 .5-.5.9-.9.9-.5 0-.9-.5-.9-.9s.5-.9.9-.9m3.8 0c.5 0 .9.5.9.9 0 .5-.5.9-.9.9s-.9-.5-.9-.9c-.2-.4.2-.9.9-.9m3.6 0c.5 0 .9.5.9.9 0 .5-.5.9-.9.9-.5 0-.9-.5-.9-.9s.4-.9.9-.9m3.5 0c.5 0 .9.5.9.9 0 .5-.5.9-.9.9-.5 0-.9-.5-.9-.9.1-.4.5-.9.9-.9m3.8 0c.5 0 .9.5.9.9 0 .5-.5.9-.9.9-.5 0-.9-.5-.9-.9s.5-.9.9-.9m3.6 0c.5 0 .9.5.9.9 0 .5-.5.9-.9.9s-.9-.5-.9-.9.4-.9.9-.9m3.7 0c.5 0 .9.5.9.9 0 .5-.5.9-.9.9-.5 0-.9-.5-.9-.9.1-.4.5-.9.9-.9m3.7 0c.5 0 .9.5.9.9 0 .5-.5.9-.9.9-.5 0-.9-.5-.9-.9-.1-.4.4-.9.9-.9m-40.8 13.4h83c.9 0 1.5.7 1.5 1.5v19.8c0 .9-.7 1.5-1.5 1.5h-83c-.9 0-1.5-.7-1.5-1.5v-19.8c-.1-.8.6-1.5 1.5-1.5"/><path class="st5" d="M1646.1 2297.8h37.2c.9 0 1.5.7 1.5 1.5v8.5c0 .9-.7 1.5-1.5 1.5h-37.2c-.9 0-1.5-.7-1.5-1.5v-8.5c-.1-.8.6-1.5 1.5-1.5"/><path class="st6" d="M1692.2 2297.8c.7 0 1.1.5 1.1 1.1s-.5 1.1-1.1 1.1c-.7 0-1.1-.5-1.1-1.1 0-.6.4-1.1 1.1-1.1"/><path class="st7" d="M1692.2 2302.5c.7 0 1.1.5 1.1 1.1 0 .7-.5 1.1-1.1 1.1-.7 0-1.1-.5-1.1-1.1-.1-.6.4-1.1 1.1-1.1"/><path class="st8" d="M1692.2 2306.9c.7 0 1.1.5 1.1 1.1s-.5 1.1-1.1 1.1c-.7 0-1.1-.5-1.1-1.1s.4-1.1 1.1-1.1"/><path class="st9" d="M1700 2297c.5 0 .7.2.7.7v11.6c0 .5-.2.7-.7.7-.2 0-.7-.2-.7-.7v-11.6c0-.5.4-.7.7-.7m3 0c.5 0 .7.2.7.7v11.6c0 .5-.2.7-.7.7-.2 0-.7-.2-.7-.7v-11.6c.1-.5.3-.7.7-.7m3.2 0c.5 0 .7.2.7.7v11.6c0 .5-.2.7-.7.7-.2 0-.7-.2-.7-.7v-11.6c0-.5.2-.7.7-.7m2.9 0c.5 0 .7.2.7.7v11.6c0 .5-.2.7-.7.7s-.7-.2-.7-.7v-11.6c.3-.5.5-.7.7-.7m3.1 0c.5 0 .7.2.7.7v11.6c0 .5-.2.7-.7.7-.2 0-.7-.2-.7-.7v-11.6c0-.5.2-.7.7-.7m3.2 0c.5 0 .7.2.7.7v11.6c0 .5-.2.7-.7.7-.2 0-.7-.2-.7-.7v-11.6c0-.5.2-.7.7-.7m2.8 0c.5 0 .7.2.7.7v11.6c0 .5-.2.7-.7.7-.2 0-.7-.2-.7-.7v-11.6c.3-.5.5-.7.7-.7"/><path class="st4" d="M1648.1 2299.4c.5 0 .9.5.9.9 0 .5-.5.9-.9.9-.5 0-.9-.5-.9-.9 0-.5.4-.9.9-.9m3.7 0c.5 0 .9.5.9.9 0 .5-.5.9-.9.9-.5 0-.9-.5-.9-.9.1-.5.3-.9.9-.9m3.6 0c.5 0 .9.5.9.9 0 .5-.5.9-.9.9-.5 0-.9-.5-.9-.9 0-.5.5-.9.9-.9m3.8 0c.5 0 .9.5.9.9 0 .5-.5.9-.9.9-.5 0-.9-.5-.9-.9-.2-.5.2-.9.9-.9m3.6 0c.5 0 .9.5.9.9 0 .5-.5.9-.9.9-.5 0-.9-.5-.9-.9 0-.5.4-.9.9-.9m3.5 0c.5 0 .9.5.9.9 0 .5-.5.9-.9.9-.5 0-.9-.5-.9-.9.1-.5.5-.9.9-.9m3.9 0c.5 0 .9.5.9.9 0 .5-.5.9-.9.9-.5 0-.9-.5-.9-.9-.1-.5.4-.9.9-.9m3.5 0c.5 0 .9.5.9.9 0 .5-.5.9-.9.9s-.9-.5-.9-.9c0-.5.4-.9.9-.9m3.7 0c.5 0 .9.5.9.9 0 .5-.5.9-.9.9-.5 0-.9-.5-.9-.9.1-.5.5-.9.9-.9m3.7 0c.5 0 .9.5.9.9 0 .5-.5.9-.9.9-.5 0-.9-.5-.9-.9-.1-.5.4-.9.9-.9m-33 3.3c.5 0 .9.5.9.9s-.5.9-.9.9c-.5 0-.9-.5-.9-.9s.4-.9.9-.9m3.7 0c.5 0 .9.5.9.9s-.5.9-.9.9c-.5 0-.9-.5-.9-.9.1-.4.3-.9.9-.9m3.6 0c.5 0 .9.5.9.9s-.5.9-.9.9c-.5 0-.9-.5-.9-.9.1-.4.5-.9.9-.9m3.8 0c.5 0 .9.5.9.9s-.5.9-.9.9-.9-.5-.9-.9c-.2-.4.2-.9.9-.9m3.6 0c.5 0 .9.5.9.9s-.5.9-.9.9c-.5 0-.9-.5-.9-.9s.4-.9.9-.9m3.5 0c.5 0 .9.5.9.9s-.5.9-.9.9c-.5 0-.9-.5-.9-.9.1-.4.5-.9.9-.9m3.9 0c.5 0 .9.5.9.9s-.5.9-.9.9c-.5 0-.9-.5-.9-.9s.4-.9.9-.9m3.5 0c.5 0 .9.5.9.9s-.5.9-.9.9-.9-.5-.9-.9.4-.9.9-.9m3.7 0c.5 0 .9.5.9.9s-.5.9-.9.9c-.5 0-.9-.5-.9-.9.1-.4.5-.9.9-.9m3.7 0c.5 0 .9.5.9.9s-.5.9-.9.9c-.5 0-.9-.5-.9-.9s.4-.9.9-.9m-33 3.3c.5 0 .9.5.9.9 0 .5-.5.9-.9.9-.5 0-.9-.5-.9-.9s.4-.9.9-.9m3.7 0c.5 0 .9.5.9.9 0 .5-.5.9-.9.9-.5 0-.9-.5-.9-.9.1-.4.3-.9.9-.9m3.6 0c.5 0 .9.5.9.9 0 .5-.5.9-.9.9-.5 0-.9-.5-.9-.9s.5-.9.9-.9m3.8 0c.5 0 .9.5.9.9 0 .5-.5.9-.9.9s-.9-.5-.9-.9.2-.9.9-.9m3.6 0c.5 0 .9.5.9.9 0 .5-.5.9-.9.9-.5 0-.9-.5-.9-.9s.4-.9.9-.9m3.5 0c.5 0 .9.5.9.9 0 .5-.5.9-.9.9-.5 0-.9-.5-.9-.9s.5-.9.9-.9m3.8 0c.5 0 .9.5.9.9 0 .5-.5.9-.9.9-.5 0-.9-.5-.9-.9s.5-.9.9-.9m3.6 0c.5 0 .9.5.9.9 0 .5-.5.9-.9.9s-.9-.5-.9-.9.4-.9.9-.9m3.7 0c.5 0 .9.5.9.9 0 .5-.5.9-.9.9-.5 0-.9-.5-.9-.9s.5-.9.9-.9m3.7 0c.5 0 .9.5.9.9 0 .5-.5.9-.9.9-.5 0-.9-.5-.9-.9-.1-.4.4-.9.9-.9"/><path class="st5" d="M1661.5 2325c.7 0 1.1.2 1.1.9s-.2 1.1-.9 1.1c-2.7.7-4.2 3.5-3.5 6.2.5 1.8 1.8 3.1 3.5 3.5.5 0 .9.7.9 1.1s-.7.9-1.1.9h-.2c-3.8-1.1-6-4.9-4.9-8.7.7-2.5 2.5-4.2 4.9-4.9l.2-.1zm3.3 0c4 1.1 6.2 4.9 5.1 8.7-.7 2.5-2.5 4.2-4.9 4.9-.5.2-1.1-.2-1.3-.7-.2-.5.2-1.1.7-1.3 2.7-.7 4.2-3.5 3.5-6.2-.5-1.8-1.8-3.1-3.5-3.5-.5-.2-.9-.7-.7-1.3.2-.4.6-.6 1.1-.6zm13.8.4h28.1c.7 0 1.1.5 1.1 1.1s-.5 1.1-1.1 1.1h-28.1c-.7 0-1.1-.5-1.1-1.1s.4-1.1 1.1-1.1m0 4.9h28.1c.7 0 1.1.5 1.1 1.1s-.5 1.1-1.1 1.1h-28.1c-.7 0-1.1-.5-1.1-1.1s.4-1.1 1.1-1.1m0 4.7h28.1c.7 0 1.1.5 1.1 1.1 0 .7-.5 1.1-1.1 1.1h-28.1c-.7 0-1.1-.5-1.1-1.1-.1-.4.4-1.1 1.1-1.1"/></g></svg>