<svg xmlns="http://www.w3.org/2000/svg" viewBox="0 0 2100 600"><path d="M471.1 402.2V206.7h47.5v154.4h75.7v41.1H471.1zm279.7-67.1v5.5c0 1.8-.1 3.5-.3 5.2h-99.7c.3 3.7 1.5 7.3 3.5 10.5s4.5 5.9 7.5 8.1c6.3 4.7 14 7.3 22 7.3 7.2 0 13.3-1.3 18.2-4 4.8-2.5 8.9-6 12.2-10.4l31.5 19.9c-6.4 9.4-15.2 16.9-25.5 21.7-10.6 5.1-22.9 7.6-36.8 7.6-10 .1-19.9-1.6-29.3-4.8-8.9-3-17.1-7.8-24.2-14.1-7-6.3-12.6-14.1-16.3-22.8-4-9-5.9-19.3-5.9-30.9 0-11.2 1.9-21.4 5.8-30.5 3.9-9.1 9.1-16.8 15.7-23.2 6.8-6.4 14.7-11.5 23.5-14.8 9.3-3.6 19.3-5.3 29.3-5.2 10.1 0 19.4 1.7 27.9 5.1 8.3 3.3 15.7 8.3 21.8 14.8 6.1 6.4 10.8 14.3 14.2 23.5s4.9 19.8 4.9 31.5zm-41.7-17.4c0-7.2-2.3-13.3-6.8-18.5-4.5-5.2-11.3-7.7-20.3-7.7-4.1 0-8.3.7-12.2 2.1-3.5 1.3-6.8 3.2-9.7 5.7-2.7 2.4-5 5.2-6.6 8.4-1.6 3.1-2.6 6.6-2.8 10.1l58.4-.1zm114-19.3v52.7c0 6.5 1.2 11.3 3.7 14.6 2.5 3.2 7 4.8 13.4 4.8 2.4 0 4.7-.2 7-.6 2.1-.3 4.2-.8 6.2-1.7l.6 33.1c-3.9 1.3-7.8 2.3-11.9 2.9-4.7.8-9.5 1.2-14.4 1.2-9.2 0-16.9-1.2-23.2-3.5-6.3-2.3-11.3-5.6-15-10-3.9-4.5-6.6-9.8-8.1-15.5-1.7-6.5-2.6-13.3-2.5-20.1v-58.1h-22.1v-33.7h21.8v-36.2h44.5v36.2h32.3v33.7h-32.3zm179 6.9c-3.8-3.6-8.2-6.6-13-8.8-4.9-2.4-10.3-3.6-15.7-3.6-4 0-8 .8-11.7 2.5-3.6 1.7-5.4 4.5-5.4 8.6 0 3.9 2 6.6 5.9 8.3 4 1.7 10.4 3.5 19.2 5.5 5.3 1.2 10.5 2.7 15.6 4.7 5.1 1.9 9.9 4.6 14.2 8 4.2 3.3 7.7 7.4 10.2 12.2 2.6 4.8 3.9 10.5 3.9 17.1 0 8.7-1.7 16-5.2 21.9-3.4 5.8-8 10.8-13.7 14.5-5.8 3.8-12.2 6.5-18.9 8-6.9 1.6-13.9 2.5-21 2.5-11.2 0-22.4-1.8-33-5.4-10.8-3.6-19.7-8.9-26.9-15.9l25.4-26.8c4.2 4.6 9.3 8.3 14.9 11 5.8 2.9 12.3 4.4 18.8 4.4 3.8 0 7.5-.9 10.9-2.6 3.6-1.7 5.4-4.8 5.4-9.2 0-4.2-2.2-7.4-6.6-9.4-4.4-2-11.3-4.1-20.7-6.4-4.9-1.1-9.7-2.6-14.4-4.4-4.7-1.8-9-4.3-12.8-7.5-3.8-3.2-7-7.1-9.2-11.6-2.4-4.6-3.6-10.1-3.6-16.6 0-8.3 1.7-15.3 5.2-21.1 3.4-5.7 8-10.5 13.5-14.2 5.6-3.7 11.8-6.5 18.4-8.1 6.5-1.7 13.3-2.6 20-2.6 10.3 0 20.5 1.6 30.2 4.8 9.8 3.2 18.2 8.1 25 14.5l-24.9 25.7zm109.8 96.9V206.7h131.4v39.8h-85.9v37h81.2v37.8h-81.2v40.6h90.8v40.3h-136.3zm255.9 0v-75.1c0-3.7-.3-7.4-1-11-.6-3.2-1.6-6.4-3.2-9.2-1.5-2.6-3.6-4.8-6.2-6.4-2.7-1.6-6-2.3-10.1-2.3-3.7-.1-7.3.7-10.6 2.3-3 1.5-5.6 3.8-7.6 6.5-2.1 2.9-3.6 6.1-4.6 9.5-1 3.6-1.5 7.4-1.5 11.2v74.6h-45.6V264.7h43.9v19.1h.5c1.8-3.1 4-6.1 6.5-8.7 2.7-2.9 5.9-5.4 9.4-7.3 3.7-2.1 7.7-3.8 11.7-5 4.4-1.3 8.9-2 13.5-1.9 9.2 0 17 1.7 23.5 5 6.1 3 11.4 7.4 15.6 12.8 4 5.4 6.9 11.5 8.6 18.1 1.7 6.7 2.6 13.5 2.6 20.4v85h-45.4zm162.1-93c-2.6-3.3-6.1-6-10.5-8-4.2-2-8.9-3-13.5-3-4.5-.1-8.9.9-13 2.9-3.8 1.9-7.2 4.5-10 7.7-2.8 3.3-5 7.1-6.5 11.2-1.6 4.3-2.4 8.9-2.3 13.5 0 4.6.7 9.2 2.2 13.5 1.4 4.1 3.6 7.9 6.5 11.2 2.8 3.2 6.3 5.8 10.2 7.6 4.2 1.9 8.8 2.8 13.4 2.8 4.7 0 9.3-.9 13.7-2.6 4.2-1.6 8-4.2 10.9-7.6l25.1 30.7c-5.7 5.5-13.1 9.8-22.1 13-9.2 3.2-18.9 4.7-28.7 4.7-10.3.1-20.6-1.6-30.4-5-9.1-3.1-17.4-8-24.5-14.5-7-6.5-12.6-14.3-16.4-23.1-4-9-6-19.2-6-30.7 0-11.2 2-21.4 6-30.4 3.8-8.7 9.4-16.6 16.4-23.1 7.1-6.5 15.5-11.4 24.5-14.6 9.7-3.4 19.9-5.2 30.1-5.1 5 0 9.9.5 14.8 1.4 4.8.9 9.5 2.1 14.1 3.7 4.3 1.5 8.5 3.4 12.4 5.8 3.6 2.1 6.9 4.7 9.8 7.6l-26.2 30.4zm132.7-7.2c-1.9-.5-3.9-.9-5.9-1.1-1.9-.2-3.8-.3-5.7-.3-6.1 0-11.2 1.1-15.3 3.3-3.8 1.9-7.2 4.7-10 8-2.4 3-4.3 6.5-5.4 10.2-1 3.1-1.6 6.4-1.7 9.6v70.5h-45.3V264.9h43.6v19.9h.6c3.4-6.9 8.5-12.9 14.9-17.2 6.4-4.5 13.9-6.7 22.4-6.7 1.8 0 3.6.1 5.4.3 1.5.1 2.9.4 4.3.8l-1.9 40zM1769 422.9c-2.5 6.7-5.6 13.1-9.2 19.2-3.2 5.4-7.3 10.3-12.1 14.4-4.9 4.1-10.5 7.1-16.6 9-6.3 2-13.8 3-22.5 3-4.4 0-8.8-.3-13.1-.8-4-.4-7.9-1.2-11.7-2.2l5-38.1c2.4.8 4.8 1.4 7.3 1.8 2.4.4 4.9.7 7.3.7 7 0 12.1-1.6 15.2-4.8 3.1-3.2 5.8-7.8 8-13.7l4.4-11.3-57.5-135.3h50.3l30.7 88.4h.8l27.3-88.4h48L1769 422.9zm226.4-90c0 9.4-1.5 18.7-4.4 27.6-2.8 8.5-7.1 16.4-12.8 23.3-5.7 6.8-12.7 12.3-20.6 16.2-8.1 4-17.3 6.1-27.6 6.1-8.3 0-16.5-1.7-24-5.1-7.5-3.4-13.4-8.1-17.7-13.9h-.6v81.5h-45.3V264.7h43.1v16.8h.8c4.2-5.5 10.1-10.4 17.5-14.5s16.2-6.2 26.4-6.2c9.9 0 19 1.9 27.1 5.8 7.9 3.7 14.9 9.1 20.6 15.7 5.7 6.8 10.1 14.6 13 23.1 2.9 8.9 4.5 18.2 4.5 27.5zm-43.9 0c0-4.4-.7-8.8-2.1-13-1.3-4.1-3.4-7.9-6.1-11.2-2.8-3.3-6.2-6-10.1-7.9-4-2-8.7-3-14.1-3-4.8-.1-9.5 1-13.8 3-4 1.9-7.5 4.7-10.4 8-2.9 3.3-5.1 7.2-6.6 11.3-3.1 8.4-3.1 17.6 0 26 1.5 4.1 3.7 8 6.6 11.3 2.9 3.3 6.4 6.1 10.4 8 4 2 8.6 3 13.8 3 5.3 0 10-1 14.1-3 3.9-1.9 7.3-4.6 10.1-8 2.7-3.4 4.8-7.3 6.1-11.5 1.4-4.1 2.1-8.5 2.1-13zm116.2-34.5v52.7c0 6.5 1.2 11.3 3.7 14.6 2.5 3.2 7 4.8 13.4 4.8 2.4 0 4.7-.2 7-.6 2.1-.3 4.2-.8 6.2-1.7l.6 33.1c-3.9 1.3-7.8 2.3-11.9 2.9-4.7.8-9.5 1.2-14.4 1.2-9.2 0-16.9-1.2-23.2-3.5-6.3-2.3-11.3-5.6-15-10-3.9-4.5-6.6-9.8-8.1-15.5-1.7-6.5-2.6-13.3-2.5-20.1v-58.1h-22.1v-33.7h21.8v-36.2h44.5v36.2h32.3v33.7l-32.3.2zM896.8 203c-13.6 0-24.2 9.8-24.2 22.3 0 13.2 9 22 22.3 22 1.1 0 2.2-.1 3.2-.3-2.1 9.7-11.5 16.7-20.4 18.1l-1.8.3v21l2.3-.2c11-1.1 21.2-5.8 29.2-13.4 10.2-9.8 15.5-23.9 15.5-40.9.1-16.7-10.9-28.9-26.1-28.9zm-613.2 52.4h-50v-25.7c0-20.6-16.7-37.2-37.2-37.2-20.5 0-37.2 16.7-37.2 37.2v25.7h-50.1v-25.7c0-48.1 39.1-87.3 87.3-87.3s87.3 39.2 87.3 87.3l-.1 25.7zm20.2 0H88.9c-9.2 0-16.7 7.5-16.7 16.7v159c0 9.2 7.5 16.7 16.7 16.7h214.9c9.2 0 16.7-7.5 16.7-16.7V272c-.1-9.2-7.5-16.6-16.7-16.6zm-96.6 104.3v21.5c-.2 6-5.2 10.7-11.2 10.6-5.8-.2-10.4-4.8-10.6-10.6v-21.5c-10.6-6-14.4-19.5-8.4-30.1 6-10.6 19.5-14.4 30.1-8.4 10.6 6 14.4 19.5 8.4 30.1-1.9 3.6-4.8 6.5-8.3 8.4zM67.1 231.6H15.2c-8.4 0-15.2-6.8-15.2-15.2 0-8.4 6.8-15.2 15.2-15.2h51.9c8.4 0 15.2 6.8 15.2 15.2 0 8.4-6.8 15.2-15.2 15.2zm36.5-81.5c-3.5 0-6.9-1.2-9.7-3.5l-41-33.7c-6.5-5.3-7.4-14.9-2.1-21.4 5.3-6.5 14.9-7.4 21.4-2.1l41 33.7c6.5 5.3 7.4 14.9 2.1 21.4-2.8 3.5-7.1 5.6-11.7 5.6zm92.7-35.9c-8.4 0-15.2-6.8-15.2-15.2V46.7c0-8.4 6.8-15.2 15.2-15.2 8.4 0 15.2 6.8 15.2 15.2V99c.1 8.4-6.7 15.2-15.2 15.2zm92.7 35.9c-8.4 0-15.2-6.8-15.2-15.2 0-4.6 2-8.9 5.6-11.8l41-33.7c6.6-5.2 16.2-4 21.4 2.6 5 6.4 4.1 15.6-2 20.9l-41 33.7c-2.8 2.3-6.3 3.5-9.8 3.5zm88.4 81.5H325c-8.4 0-15.2-6.8-15.2-15.2 0-8.4 6.8-15.2 15.2-15.2h52.3c8.4 0 15.2 6.8 15.2 15.2.1 8.4-6.7 15.2-15.1 15.2z" fill="#707070"/></svg>