<svg version="1.1" id="a" xmlns="http://www.w3.org/2000/svg" x="0" y="0" viewBox="0 0 300 300" xml:space="preserve"><style>.st1{fill:#5c4a21}.st2{fill:#018943}.st5{opacity:.408;fill:#231f20;enable-background:new}</style><g transform="translate(-1585.721 -2582.305)"><circle cx="1735.7" cy="2730.3" r="148" fill="#d9f5e7"/><path class="st1" d="M1734.7 2699c-2-4.3-4.3-8.3-7.7-11.7-7.3-8-17.3-13.3-29-14.7l1-6.7c17.3 2.7 27.7 10.7 33.3 17.3 3.7 4 6.7 8.7 8.7 14l-6.3 1.8 3.3-1-3.3 1z"/><path class="st1" d="M1729.1 2771.6c0-16 .3-32.3 2.3-48.3 3.3-35 10.3-58.3 20.3-69.7l5 4.3c-8.7 10.3-15.3 33-18.3 66-1.3 15.7-2.3 32-2 47.7h-7.3z"/><path class="st2" d="M1765.4 2623c0-.3-.7-.7-1-.3-25.7 22-18.7 32.7-14.3 36.3.7.7 1.3 1 2.7 1.3.7.3 1.3.3 2.3.3 5.3-.6 17.6-5 10.3-37.6"/><path d="M1765.4 2623l-.3-.3c-3.7 8.7-.3 15-12 32-.3.3-.3.7-.7 1.3 0 .3 0 .3-.3.7 0 .3 0 .3-.3.7 0 0 0 .3-.3.3l-.3.3s0 .3-.3.3c0 0 0 .3-.3.3-15.3 27.7-18.3 90.3-18.3 90.3h3.7c.3-7.7.7-17 2-26.3 3-30 8.3-51.7 16.7-63 5.4.4 18-4 10.7-36.6z" opacity=".3" fill="#231f20"/><path d="M1676.7 2769.6s0-6 7.7-8.3c7.7-2.7 15-12 18.7-13.7 3.7-1.3 16.7-4.3 23.3-2.7 7 2 10.3 3 15 1.3 4.7-1.3 12-2 16-.7 4 1 9.7 1 13 2 3.3.7 18 10.3 21.7 14.3 3.7 4 14 3.3 14 3.3l-29 26.7-42.7 8-49.7-7.3-11.7-10.7 3.7-12.2z" fill="#885338"/><path class="st5" d="M1761.4 2793.6l15.7-1 29-26.7s-10.3.7-14-3.3c-4.7-4.3-10.3-8.3-15.7-11.7-3.3 17.1-11.3 29.4-15 42.7z"/><path d="M1806.7 2728c-4-.3-7.7 2.7-8.3 6.7l-3.3 26.7c0 1.3-.7 2.7-2 3.7l-16 16-3 3c-1.3 1.3-4 1.3-5.7 0-1.7-1.3-1.3-3.7 0-5l15.3-15.3c3-3 3-7.7 0-10.7-3-3-7.7-3-10.7 0l-16.7 16.7-11 11-5 5c-2 2-3 3.7-4 6-.3.7-1 1-2.3 1-.3 0-.7-.3-.7-.7-.7-2.3-2-4-3.3-6l-5-5-11-11-16.7-16.7c-3-3-7.7-3.3-10.7-.3-3 3-3.3 7.7-.3 10.7l.3.3 15.3 15.3c1.3 1.3 1.3 3.7 0 5.7-1.3 1.3-3.7 1.3-5.7 0l-3-3-16-16c-1-1-1.3-2.3-2-3.7l-3.3-26.7c-.3-4-4.3-7-8.3-6.7-4 .3-7 4.3-6.7 8.3l3.7 32.7c.3 4 2.3 8 5 10.7l13.3 13.3 21.7 21.7c.3.3.7.3 1 .3l28.3-3.3c2.7-.3 5.7-.3 8 0l28.3 3.3c.3 0 .7 0 1-.3l21.7-21.7 13.3-13.3c3-3 4.7-6.7 5-10.7l3.7-32.7c2.8-5.3.2-9-4.2-9.3" fill="#fccb00"/><path class="st2" d="M1673.1 2882c6-5 11.7-10.7 17-16.7 4.3-4.7 8-9.7 11.3-15 3.3-5.7 4.3-10.3 4-14.3l-1.3-13c0-.7.3-1 1-1.3l28.7-3.3c1.3-.3 3.3-.3 4.7 0l28.7 3.3c.7 0 1 .7 1 1.3l-1.3 13c-.3 3.7 1 8.3 4 14 3.3 5.7 7 10.3 11 15 5 6 10.7 11.3 16.7 17h-52.3c-3.3-3.3-6-7-8-11-.7-1-.7-2.3-.7-3.7-.3 1.3-1 3-2 4.3-2 3.7-4 7-7 10.3h-55.5v.1zm3-216.4c-.3.3-.3.7-.3 1 25.3 22 35.3 13.7 38 8.7.3-.7.7-2 .7-2.7v-2.3c-.8-4.7-7.1-16.3-38.4-4.7"/><g opacity=".5"><path class="st5" d="M1758.7 2813.6l9.3 1c.3 0 .7 0 1-.3l21.7-21.7 13.3-13.3c3-3 4.7-6.7 5-10.7l3.7-32.7c.3-4-2.7-7.7-6.7-8.3-4-.3-7.7 2.7-8.3 6.7l-3.3 26.7c0 1.3-.7 2.7-2 3.7l-16 16-3 3c-1.3 1.3-3.7 1.3-5 0-.7-.7-1-2-1-3-2.7 12.6-5.7 23.3-8.7 32.9z"/><path d="M1768.7 2779l15.3-15.3c3-3 3-7.7-.3-10.7-2.7-2.7-7-3-10-.3.7 8.3 0 14-6.3 27.7l1.3-1.4z" fill="#231f20"/></g><path class="st5" d="M1798.1 2882c-3.7-3.3-7.3-6.7-10.7-10.3l-2.3-2.3c-1.3-1.3-2.7-3-4-4.3-.3-.7-1-1-1.3-2-.3-1-1-1-1.3-2-3-3.7-5.7-7.3-8-11.3-2.3-3.7-3.7-8-4-12.3v-1.3l1-8.3.3-4.3c0-.7-.3-1-1-1l-9.7-1c-5 16-12 31.7-20.7 46.3 0 1 .3 2.7.7 3.7 2 4 4.7 8 8 11h53v-.6z"/></g></svg>