<svg version="1.1" id="a" xmlns="http://www.w3.org/2000/svg" x="0" y="0" viewBox="0 0 180 182.2" xml:space="preserve"><style>.st1{fill:#5c4a21}.st2{fill:#018943}.st5{opacity:.408;fill:#231f20;enable-background:new}</style><g transform="translate(-1585.721 -2582.305)"><circle cx="1675.7" cy="2672.3" r="90" fill="#d9f5e7"/><path class="st1" d="M1675.1 2653.3c-1.2-2.6-2.6-5-4.7-7.1-4.4-4.9-10.5-8.1-17.6-8.9l.6-4.1c10.5 1.6 16.8 6.5 20.2 10.5 2.2 2.4 4.1 5.3 5.3 8.5l-3.8 1.1 2-.6-2 .6z"/><path class="st1" d="M1671.7 2697.4c0-9.7.2-19.6 1.4-29.4 2-21.3 6.3-35.5 12.3-42.4l3 2.6c-5.3 6.3-9.3 20.1-11.1 40.1-.8 9.5-1.4 19.5-1.2 29h-4.4v.1z"/><path class="st2" d="M1693.8 2607.1c0-.2-.4-.4-.6-.2-15.6 13.4-11.4 19.9-8.7 22.1.4.4.8.6 1.6.8.4.2.8.2 1.4.2 3.2-.4 10.7-3.1 6.3-22.9"/><path d="M1693.8 2607.1l-.2-.2c-2.2 5.3-.2 9.1-7.3 19.5-.2.2-.2.4-.4.8 0 .2 0 .2-.2.4 0 .2 0 .2-.2.4 0 0 0 .2-.2.2l-.2.2s0 .2-.2.2c0 0 0 .2-.2.2-9.3 16.8-11.1 54.9-11.1 54.9h2.2c.2-4.7.4-10.3 1.2-16 1.8-18.2 5-31.4 10.2-38.3 3.4.2 11-2.5 6.6-22.3z" opacity=".3" fill="#231f20"/><path d="M1639.8 2696.2s0-3.6 4.7-5c4.7-1.6 9.1-7.3 11.4-8.3 2.2-.8 10.2-2.6 14.2-1.6 4.3 1.2 6.3 1.8 9.1.8 2.9-.8 7.3-1.2 9.7-.4 2.4.6 5.9.6 7.9 1.2 2 .4 10.9 6.3 13.2 8.7s8.5 2 8.5 2l-17.6 16.2-26 4.9-30.2-4.4-7.1-6.5 2.2-7.6z" fill="#885338"/><path class="st5" d="M1691.3 2710.8l9.5-.6 17.6-16.2s-6.3.4-8.5-2c-2.9-2.6-6.3-5-9.5-7.1-1.9 10.3-6.8 17.8-9.1 25.9z"/><path d="M1718.9 2670.9c-2.4-.2-4.7 1.6-5 4.1l-2 16.2c0 .8-.4 1.6-1.2 2.2l-9.7 9.7-1.8 1.8c-.8.8-2.4.8-3.5 0-1-.8-.8-2.2 0-3l9.3-9.3c1.8-1.8 1.8-4.7 0-6.5s-4.7-1.8-6.5 0l-10.2 10.2-6.7 6.7-3 3c-1.2 1.2-1.8 2.2-2.4 3.6-.2.4-.6.6-1.4.6-.2 0-.4-.2-.4-.4-.4-1.4-1.2-2.4-2-3.6l-3-3-6.7-6.7-10.2-10.2c-1.8-1.8-4.7-2-6.5-.2s-2 4.7-.2 6.5l.2.2 9.3 9.3c.8.8.8 2.2 0 3.5-.8.8-2.2.8-3.5 0l-1.8-1.8-9.7-9.7c-.6-.6-.8-1.4-1.2-2.2l-2-16.2c-.2-2.4-2.6-4.3-5-4.1-2.4.2-4.3 2.6-4.1 5l2.2 19.9c.2 2.4 1.4 4.9 3 6.5l8.1 8.1 13.2 13.2c.2.2.4.2.6.2l17.2-2c1.6-.2 3.5-.2 4.9 0l17.2 2c.2 0 .4 0 .6-.2l13.2-13.2 8.1-8.1c1.8-1.8 2.9-4.1 3-6.5l2.2-19.9c1.7-3.3.1-5.5-2.6-5.7" fill="#fccb00"/><path class="st2" d="M1637.7 2764.6c3.6-3 7.1-6.5 10.3-10.2 2.6-2.9 4.9-5.9 6.9-9.1 2-3.5 2.6-6.3 2.4-8.7l-.8-7.9c0-.4.2-.6.6-.8l17.5-2c.8-.2 2-.2 2.9 0l17.5 2c.4 0 .6.4.6.8l-.8 7.9c-.2 2.2.6 5 2.4 8.5 2 3.5 4.3 6.3 6.7 9.1 3 3.6 6.5 6.9 10.2 10.3h-31.8c-2-2-3.6-4.3-4.9-6.7-.4-.6-.4-1.4-.4-2.2-.2.8-.6 1.8-1.2 2.6-1.2 2.2-2.4 4.3-4.3 6.3l-33.8.1zm1.8-131.6c-.2.2-.2.4-.2.6 15.4 13.4 21.5 8.3 23.1 5.3.2-.4.4-1.2.4-1.6v-1.4c-.5-2.9-4.3-10-23.3-2.9"/><g opacity=".5"><path class="st5" d="M1689.7 2723l5.7.6c.2 0 .4 0 .6-.2l13.2-13.2 8.1-8.1c1.8-1.8 2.9-4.1 3-6.5l2.2-19.9c.2-2.4-1.6-4.7-4.1-5-2.4-.2-4.7 1.6-5 4.1l-2 16.2c0 .8-.4 1.6-1.2 2.2l-9.7 9.7-1.8 1.8c-.8.8-2.2.8-3 0-.4-.4-.6-1.2-.6-1.8-1.7 7.7-3.6 14.2-5.4 20.1z"/><path d="M1695.8 2701.9l9.3-9.3c1.8-1.8 1.8-4.7-.2-6.5-1.6-1.6-4.3-1.8-6.1-.2.4 5 0 8.5-3.8 16.8l.8-.8z" fill="#231f20"/></g><path class="st5" d="M1713.7 2764.6c-2.2-2-4.4-4.1-6.5-6.3l-1.4-1.4c-.8-.8-1.6-1.8-2.4-2.6-.2-.4-.6-.6-.8-1.2-.2-.6-.6-.6-.8-1.2-1.8-2.2-3.5-4.4-4.9-6.9-1.4-2.2-2.2-4.9-2.4-7.5v-.8l.6-5 .2-2.6c0-.4-.2-.6-.6-.6l-5.9-.6c-3 9.7-7.3 19.3-12.6 28.2 0 .6.2 1.6.4 2.2 1.2 2.4 2.9 4.9 4.9 6.7h32.2v-.4z"/></g></svg>