<svg xmlns="http://www.w3.org/2000/svg" width="500" height="500"><path d="M246.89 53.87a199.3 199.3 0 1 1-199.3 200.39C47 143.91 136 54.42 245.79 53.87zm0 222.35H203c-2.2 0-4.95 0-4.4 3.85 2.2 15.37 3.85 30.74 6.59 45.56a194.46 194.46 0 0 0 22.51 62.59 129.09 129.09 0 0 0 13.18 17c4.39 4.94 7.68 4.39 12.08 0a47.24 47.24 0 0 0 7.13-7.68A159.05 159.05 0 0 0 284.22 346a267.77 267.77 0 0 0 11-62c.55-7.14.55-7.14-7.14-7.14zm-48.32-48.86c2.2 0 3.85.55 5 .55h88.39c2.19 0 3.29-1.1 2.74-3.3-.55-3.84-.55-7.13-1.1-11a255.67 255.67 0 0 0-12.62-60.94 143.94 143.94 0 0 0-24.71-48.31c-7.69-9.34-11.53-9.34-19.21 0A108.64 108.64 0 0 0 217.24 139a276.36 276.36 0 0 0-16.47 65.88c-.55 7.14-1.1 14.82-2.2 22.51zm-18.11 164.71c-.55-1.65-1.1-2.75-1.65-4.4a340.27 340.27 0 0 1-23.61-107.06c0-3.84-1.65-4.39-4.94-4.39H99.75c-2.2 0-3.84.55-6.59.55a157 157 0 0 0 35.69 77.41 140 140 0 0 0 51.61 37.89zm219.61-115.3c-.55 0-1.1-.55-1.65-.55l-56.55-.55c-2.75 0-3.3 1.1-3.3 3.85q-1.63 15.64-3.29 31.29a292.18 292.18 0 0 1-20.86 78 7.94 7.94 0 0 0-1.1 3.84c35.69-8.23 88.94-79.05 86.75-115.84zm0-50a160.32 160.32 0 0 0-42.28-82.9 150.13 150.13 0 0 0-44.47-31.85c.55 1.1.55 2.75 1.1 3.85A341 341 0 0 1 338.57 223c.55 3.29 1.1 4.94 4.95 4.39h51.6c1.65.55 2.75 0 4.95-.55zM180.46 112.61c-35.14 8.24-88.95 79.61-86.2 114.2 1.65 0 3.29.55 4.94.55h50.51c3.3 0 5.49-.55 5.49-4.94a115.45 115.45 0 0 1 1.1-13.73 345.57 345.57 0 0 1 14.27-70.82c3.3-7.69 6.59-15.92 9.89-25.26z" fill="#fff"/></svg>