<svg id="Layer_1" data-name="Layer 1" xmlns="http://www.w3.org/2000/svg" xmlns:xlink="http://www.w3.org/1999/xlink" width="800" height="548"><defs><style>.cls-3{fill:#0d91c5}.cls-6{fill:#cececd}.cls-7{fill:#e9e9e9}.cls-8{fill:#aaa}.cls-11{fill:#fcb415}</style><linearGradient id="linear-gradient" x1="-281.918" y1="658.906" x2="-280.437" y2="658.061" gradientTransform="matrix(283.43 0 0 -589.602 80357.901 388438.931)" gradientUnits="userSpaceOnUse"><stop offset="0" stop-color="#3b1265"/><stop offset="1" stop-color="#ad3b80"/></linearGradient><linearGradient id="linear-gradient-2" x1="-281.711" y1="659.091" x2="-280.23" y2="658.247" gradientTransform="matrix(278.634 0 0 -587.577 78681.859 387106.345)" xlink:href="#linear-gradient"/><linearGradient id="linear-gradient-3" x1="1185.74" y1="1134.395" x2="1368.15" y2="1134.395" gradientTransform="rotate(180 975.5 705)" gradientUnits="userSpaceOnUse"><stop offset=".3" stop-color="#f7f7f7"/><stop offset="1" stop-color="#f7f7f7" stop-opacity="0"/></linearGradient><linearGradient id="linear-gradient-4" x1="1150.74" y1="1138.347" x2="1258.83" y2="1138.347" xlink:href="#linear-gradient-3"/></defs><path d="M704.93 545.424a40.232 40.232 0 1 1-10.821-79.734c106.422-29.1 169.089-138.972 139.975-245.37A199.782 199.782 0 0 0 694.109 80.347a40.122 40.122 0 1 1 21.519-76.584c149.16 41.112 236.752 195.351 195.641 344.521a280.158 280.158 0 0 1-195.641 195.64 40.023 40.023 0 0 1-10.698 1.5z" fill="url(#linear-gradient)"/><path d="M576.466 545.423a40.022 40.022 0 0 1-10.82-1.5C416.488 502.812 328.9 348.563 370 199.4A280.146 280.146 0 0 1 565.649 3.762a40.182 40.182 0 0 1 23.424 76.875q-.888.272-1.787.5c-106.41 29.1-169.088 138.973-139.974 245.371a199.731 199.731 0 0 0 139.972 139.971 40.121 40.121 0 0 1-10.647 78.9z" fill="url(#linear-gradient-2)"/><path class="cls-3" d="M267.05 255.83c.34 4.14-1.72 8.35-6.18 11.49l-63.37 44.62c-8.3 5.84-21.88 5.84-30.18 0L104 267.32c-4.46-3.14-6.52-7.35-6.18-11.49h-8.1v94.76a10.1 10.1 0 0 0 10.08 10.08h165.27a10.1 10.1 0 0 0 10.08-10.08v-94.76z"/><path class="cls-3" d="M198.93 323.32l69.41-52.05c9.08-6.82 9.08-18 0-24.79l-69.41-52c-9.08-6.81-24-6.81-33 0l-69.41 52c-9.08 6.82-9.08 18 0 24.79l69.41 52.05c9.07 6.82 23.92 6.82 33 0z"/><path d="M267.05 255.85c.34 4.14-1.72 8.35-6.18 11.49L197.5 312c-8.3 5.84-21.88 5.84-30.18 0L104 267.34c-4.46-3.14-6.52-7.35-6.18-11.49z" fill="#0c6d84"/><path d="M267.05 255.83c.34 4.14-1.72 8.35-6.18 11.49l-63.37 44.62c-8.3 5.84-21.88 5.84-30.18 0L104 267.32c-4.46-3.14-6.52-7.35-6.18-11.49h-8.1v94.76a10.1 10.1 0 0 0 10.08 10.08h165.27a10.1 10.1 0 0 0 10.08-10.08v-94.76z" style="isolation:isolate" opacity=".5" fill="#0c6d84"/><path class="cls-3" d="M93.7 356.52a15.805 15.805 0 0 1 5.69-6.87l67.06-47.59c8.78-6.23 23.14-6.23 31.93 0l67.05 47.59a15.805 15.805 0 0 1 5.69 6.87 9.818 9.818 0 0 1-8.85 5.38H102.55a9.818 9.818 0 0 1-8.85-5.38z"/><path class="cls-6" d="M489.49 335.52v-27.8H325v30.94c0 19.62 37 35.52 82.29 35.52s82.07-15.9 82.07-35.52c0-1.05.1-2.08.1-3.14z"/><path class="cls-7" d="M489.48 309.76v-15.63h-8.39c-13.4-11.77-41.42-19.88-73.84-19.88s-60.45 8.1-73.8 19.87H325v15.63c0 19.62 36.82 35.53 82.24 35.53s82.23-15.91 82.23-35.53z"/><path class="cls-8" d="M489.16 265.59h-164l-.1 36.15c0 19.67 36.82 35.61 82.24 35.61s82.23-15.94 82.23-35.61v-36.15z"/><path class="cls-6" d="M489.49 289.91v-27.82H325V293c0 19.62 37 35.53 82.29 35.53s82.07-15.91 82.07-35.53c0-1.06.1-2 .1-3.12z"/><path class="cls-7" d="M489.48 267.82v-15.63h-8.39c-13.4-11.78-41.42-19.89-73.84-19.89s-60.45 8.1-73.8 19.88H325v15.63c0 19.62 36.82 35.52 82.24 35.52s82.23-15.9 82.23-35.52z"/><path class="cls-8" d="M489.16 223.58h-164l-.1 36.15c0 19.67 36.82 35.61 82.24 35.61s82.23-15.93 82.23-35.61v-36.15z"/><path class="cls-6" d="M489.49 248v-27.85H325v30.94c0 19.62 37 35.53 82.29 35.53s82.07-15.91 82.07-35.53c0-1.05.1-2.11.1-3.09z"/><ellipse class="cls-7" cx="407.26" cy="220.15" rx="82.23" ry="35.52"/><rect x="535.55" y="206.52" width="197.76" height="133.7" rx="10.75" fill="#ee9821"/><rect x="552.75" y="215.12" width="159.07" height="133.7" rx="10.26" fill="#fff"/><rect class="cls-11" x="535.55" y="228.44" width="197.76" height="133.7" rx="10.75"/><path class="cls-11" d="M645.18 335.92H546.3a10.78 10.78 0 0 1-10.75-10.75v-125.1a10.78 10.78 0 0 1 10.75-10.75h47.29c5.91 0 8.6 4.3 10.75 10.75l51.59 125.1a10.78 10.78 0 0 1-10.75 10.75z"/><path class="cls-6" d="M300.63 85.53H464a12.59 12.59 0 0 1 12.59 12.59A12.59 12.59 0 0 1 464 110.71H300.63a12.59 12.59 0 0 1-12.59-12.59 12.59 12.59 0 0 1 12.59-12.59zm-20.88 309.54h163.37a12.59 12.59 0 0 1 12.59 12.59 12.59 12.59 0 0 1-12.59 12.59H279.75a12.59 12.59 0 0 1-12.59-12.59 12.59 12.59 0 0 1 12.59-12.59zm162.14 42.99h163.37a12.59 12.59 0 0 1 12.59 12.59 12.59 12.59 0 0 1-12.59 12.59H441.89a12.59 12.59 0 0 1-12.59-12.59 12.59 12.59 0 0 1 12.59-12.59z"/><circle class="cls-6" cx="258.26" cy="98.12" r="12.59"/><circle class="cls-6" cx="403.81" cy="450.65" r="12.59"/><path class="cls-6" d="M300.63 85.53H464a12.59 12.59 0 0 1 12.59 12.59A12.59 12.59 0 0 1 464 110.71H300.63a12.59 12.59 0 0 1-12.59-12.59 12.59 12.59 0 0 1 12.59-12.59z"/><rect class="cls-6" x="364.2" y="128.52" width="145.56" height="25.18" rx="12.59"/><circle class="cls-6" cx="258.26" cy="98.12" r="12.59"/><path class="cls-6" d="M83.83 85.53h58.96a12.59 12.59 0 0 1 12.59 12.59 12.59 12.59 0 0 1-12.59 12.59H83.83a12.59 12.59 0 0 1-12.59-12.59 12.59 12.59 0 0 1 12.59-12.59z"/><rect class="cls-6" y="128.52" width="188.55" height="25.18" rx="12.59"/><circle class="cls-6" cx="214.04" cy="141.11" r="12.59"/><path class="cls-6" d="M83.83 395.07h58.96a12.59 12.59 0 0 1 12.59 12.59 12.59 12.59 0 0 1-12.59 12.59H83.83a12.59 12.59 0 0 1-12.59-12.59 12.59 12.59 0 0 1 12.59-12.59zm-71.24 42.99h163.37a12.59 12.59 0 0 1 12.59 12.59 12.59 12.59 0 0 1-12.59 12.59H12.59A12.59 12.59 0 0 1 0 450.65a12.59 12.59 0 0 1 12.59-12.59z"/><circle class="cls-6" cx="214.04" cy="450.65" r="12.59"/><path d="M765.26 396.29H582.85V154.92h182.41z" fill="url(#linear-gradient-3)"/><path d="M800.26 557.306H692.17V-14h108.09z" fill="url(#linear-gradient-4)"/></svg>