<svg xmlns="http://www.w3.org/2000/svg" xmlns:xlink="http://www.w3.org/1999/xlink" viewBox="0 0 519.149 132.2"><defs><linearGradient id="c" x1="14.128" y1="105.634" x2="55.107" y2="105.634" xlink:href="#a"><stop offset=".3" stop-color="#f08133"/><stop offset="1" stop-color="#fbe008"/></linearGradient><linearGradient id="d" x1="461.076" y1="95.849" x2="507.176" y2="95.849" xlink:href="#a"><stop offset="0" stop-color="#1daf56"/><stop offset="1" stop-color="#b7ce58"/></linearGradient><linearGradient id="g" x1="190.993" y1="107.3" x2="235.512" y2="107.3" xlink:href="#a"><stop offset="0" stop-color="#572886"/><stop offset="1" stop-color="#9e226e"/></linearGradient><linearGradient id="i" x1="281.938" y1="95.725" x2="321.245" y2="95.725" xlink:href="#a"><stop offset="0" stop-color="#3480c1"/><stop offset="1" stop-color="#2a5776"/></linearGradient><linearGradient id="j" x1="434.702" y1="108.36" x2="370.232" y2="108.36" xlink:href="#a"><stop offset="0" stop-color="#1281b1"/><stop offset="1" stop-color="#26b977"/></linearGradient><linearGradient id="m" x1="102.409" y1="64.203" x2="152.3" y2="114.093" xlink:href="#a"><stop offset=".4" stop-color="#29c4f1"/><stop offset="1" stop-color="#1c54a1"/></linearGradient><path id="b" d="M67.432 74.467H39.156a2.44 2.44 0 0 0-2.198 2.598 2.364 2.364 0 0 0 2.198 2.198h4.896A2.37 2.37 0 0 1 46.35 81.7v.061a2.47 2.47 0 0 1-2.298 2.298h29.175v-3.897a5.78 5.78 0 0 0-5.795-5.695zm-8.293 6.994a2.2 2.2 0 0 1-2.198-2.198 2.2 2.2 0 0 1 2.198-2.198 2.2 2.2 0 0 1 2.198 2.198 2.22 2.22 0 0 1-2.198 2.198zm6.694 0a2.2 2.2 0 0 1-2.198-2.198 2.2 2.2 0 0 1 2.198-2.198 2.2 2.2 0 0 1 2.198 2.198 2.22 2.22 0 0 1-2.198 2.198z"/><path id="e" d="M250.727 92.6h-2.3c-.1-10.1-8.7-18.3-19.3-18.3h-15.6a3.08 3.08 0 0 0-3.2 2.949v.151a3.2 3.2 0 0 0 3.2 3.1h7.8a3.134 3.134 0 0 1 3.1 3.165v.035a3.243 3.243 0 0 1-3.1 3h-15.3a3.08 3.08 0 0 0-3.2 2.949v.151a3.2 3.2 0 0 0 3.2 3.1h21.3c8 .2 14.4 6.4 14.2 14.1a13.675 13.675 0 0 1-5.3 10.4h14.6c7.1 0 12.9-5.5 12.9-12.2a12.83 12.83 0 0 0-13-12.6z"/><path id="f" d="M225.127 97.4h-30.7a3.305 3.305 0 1 0 0 6.6h10a3.5 3.5 0 0 1 3.4 3.4 3.4 3.4 0 0 1-3.4 3.2h-3.1a3.305 3.305 0 1 0 0 6.6h23.8c5.562.071 10.129-4.38 10.2-9.942v-.058c0-5.4-4.6-9.7-10.2-9.8zm-8.7 13.2a3.306 3.306 0 1 1 3.5-3.299 3.375 3.375 0 0 1-3.448 3.3h-.052zm9.3 0a3.44 3.44 0 0 1-3.5-3.3 3.375 3.375 0 0 1 3.447-3.3h.053a3.305 3.305 0 1 1 0 6.6z"/><path id="h" d="M346.527 100.625l-3-1.4a3.1 3.1 0 0 1-1.7-3.1 3 3 0 0 1 2.1-2.6c.9-.4 1.9-.7 2.8-1a3.1 3.1 0 0 0 2.236-3.771c-.056-.218-1.236-3.329-1.736-4.629a3.26 3.26 0 0 0-4.195-1.9c-.9.4-1.9.7-2.9 1.1a2.946 2.946 0 0 1-3.5-.8 3.17 3.17 0 0 1-.5-3.6l1.2-2.9a3.49 3.49 0 0 0-1.616-4.661l-3.489-1.639a3.386 3.386 0 0 0-4.555 1.473c-.054.106-4.645 10.226-4.645 10.226 7.65 1.298 12.799 8.551 11.501 16.201a14.05 14.05 0 0 1-13.801 11.699h-10.4l-2.8 6.2a2.785 2.785 0 0 0 1.3 3.7 51.191 51.191 0 0 0 4.8 2.2 2.87 2.87 0 0 0 3.7-1.5 25.61 25.61 0 0 0 1.3-2.9 3.087 3.087 0 0 1 3.1-1.9 2.8 2.8 0 0 1 2.8 2.1l1.2 3.1a3.156 3.156 0 0 0 3.8 1.9c1.6-.5 3.2-1.1 4.7-1.7a3.22 3.22 0 0 0 1.8-4.1 29.79 29.79 0 0 1-1-3.2 3.09 3.09 0 0 1 .9-3.6 3.19 3.19 0 0 1 3.6-.6 29.04 29.04 0 0 0 3.1 1.4 2.716 2.716 0 0 0 3.658-1.172c.054-.106 1.942-4.428 1.942-4.428a3.246 3.246 0 0 0-1.7-4.2v.001z"/><path id="k" d="M427.154 78.542h-35.411a4.35 4.35 0 0 1 0-8.7h35.411a4.35 4.35 0 1 1 .007 8.7h-.007zm-19.642-5.672a1.324 1.324 0 0 0 0 2.647h18.83a1.324 1.324 0 1 0 .073-2.647h-18.903zm-14.173 0a1.333 1.333 0 1 0 .017 0h-.017z"/><path id="l" d="M427.154 90.967h-35.411a4.35 4.35 0 0 1 0-8.7h35.411a4.35 4.35 0 0 1 .007 8.7h-.007zm-19.642-5.672a1.324 1.324 0 0 0 0 2.647h18.83a1.324 1.324 0 1 0 .073-2.647h-18.903zm-14.173 0a1.333 1.333 0 1 0 .017 0h-.017z"/><linearGradient id="a" gradientUnits="userSpaceOnUse"/></defs><use xlink:href="#b" fill="#a09f9f"/><path d="M24.268 84.059a2.4 2.4 0 0 0-2.398 2.398 2.4 2.4 0 0 0 2.398 2.398h20.383a16.4 16.4 0 0 1 2.298.2c8.652 1.209 14.687 9.202 13.478 17.855a15.82 15.82 0 0 1-5.985 10.321h12.789a6.013 6.013 0 0 0 5.995-5.995V84.059H24.268z" fill="#bfbfbf"/><path d="M43.533 94.057c-5.183 0-7.96 3.085-9.88 5.588-.878 1.144-1.02 2.672-.001 3.692a2.61 2.61 0 0 0 3.692.001c2.173-2.172 3.315-4.06 6.189-4.06 3.563 0 6.353 2.886 6.353 6.571 0 3.213-3.002 6.084-6.299 6.084-1.726 0-3.242-.591-4.57-1.918L28.698 99.62c-.898-.908-1.924-1.582-3.056-2.003-.961-.357-2.023-.524-3.34-.524-3.71 0-8.174 3.403-8.174 8.087 0 4.649 2.973 9.004 8.534 9.004 3.484 0 5.721-2.258 5.964-2.515a2.59 2.59 0 0 0-.087-3.643c-.963-.942-2.478-.964-3.496-.122-.717.623-1.505 1.117-2.498 1.117a3.39 3.39 0 0 1-3.388-3.388 3.39 3.39 0 0 1 3.388-3.388 3.37 3.37 0 0 1 2.439 1.045l.004.004 11.143 11.223c1.786 1.787 4.295 2.693 7.456 2.693 6.244 0 11.519-5.203 11.519-11.361 0-6.503-5.192-11.793-11.574-11.793z" fill="url(#c)"/><path d="M484.176 72.799c12.73.028 23.028 10.37 23 23.1s-10.37 23.028-23.1 23-23.028-10.37-23-23.1c.028-12.691 10.309-22.972 23-23h.1m-5.2 25.8c-.3 0-.6 0-.5.4.07 1.791.339 3.568.8 5.3a23.04 23.04 0 0 0 2.6 7.2 13.05 13.05 0 0 0 1.5 2c.5.5.8.5 1.4 0 .294-.274.562-.576.8-.9a20.626 20.626 0 0 0 2.8-6 35.07 35.07 0 0 0 1.3-7.2c0-.533-.267-.8-.8-.8h-9.9zm-.4-5.7h10.8c.3 0 .4 0 .4-.4v-1.2a34.5 34.5 0 0 0-1.5-7.1 17.61 17.61 0 0 0-2.9-5.6c-.9-1.1-1.3-1-2.2 0a17.39 17.39 0 0 0-2.3 4 32.546 32.546 0 0 0-1.9 7.6c-.049.91-.183 1.814-.4 2.7zm-2.2 19.1v-.5a40.335 40.335 0 0 1-3.1-12.4c0-.4 0-.5-.5-.5h-6.5a17.535 17.535 0 0 0 4.2 8.9 16.06 16.06 0 0 0 5.9 4.5zm25.5-13.3h-6.7c-.3 0-.4 0-.4.4a21.99 21.99 0 0 1-.4 3.6 30.93 30.93 0 0 1-2.4 8.9v.4a18.225 18.225 0 0 0 10-13.3h-.1zm0-5.8a17.733 17.733 0 0 0-4.9-9.6 14.6 14.6 0 0 0-5.2-3.7v.5a39.975 39.975 0 0 1 2.8 12.4c0 .4 0 .6.6.5h6.6l.1-.1zm-25.5-13.3a18.225 18.225 0 0 0-10 13.3h6.4c.4 0 .6 0 .6-.5v-1.6a45.25 45.25 0 0 1 1.7-8.3l1.1-2.9" fill="url(#d)"/><use xlink:href="#e" fill="#bfbfbf"/><use xlink:href="#f" fill="url(#g)"/><circle cx="289.227" cy="101.825" r="3.1" fill="#3279b4"/><use xlink:href="#h" fill="#bfbebe"/><path d="M320.827 86.525h-31.4a3.033 3.033 0 0 0-3 3.061v.039a3.076 3.076 0 0 0 3 3h10.4a2.97 2.97 0 0 1 3 2.939v.161a3.03 3.03 0 0 1-2.96 3.1h-.34a3.033 3.033 0 0 0-3 3.061v.039a3.076 3.076 0 0 0 3 3h21.3a9.155 9.155 0 0 0 9.1-9.2 9.03 9.03 0 0 0-8.855-9.2h-.245zm-7.1 12.3a1.1 1.1 0 0 1-.8 0 3.054 3.054 0 0 1-2.609-3.442l.009-.058a3.03 3.03 0 0 1 3.445-2.541 3.03 3.03 0 0 1 2.555 3.341 3.186 3.186 0 0 1-2.6 2.7zm7.6 0a2.97 2.97 0 0 1-3-2.939v-.161a3.03 3.03 0 0 1 2.96-3.1h.04a3.1 3.1 0 1 1 0 6.2z" fill="url(#i)"/><path d="M433.893 97.789a3.762 3.762 0 0 0-5.27-.628l-10.63 8.33a3.01 3.01 0 0 1-1.85.639l-13.616.007a1.88 1.88 0 0 1-1.838-1.917 1.88 1.88 0 0 1 1.831-1.838l10.892-.007a3.756 3.756 0 0 0-.008-7.511l-23.113.012a9.026 9.026 0 0 0-5.562 1.925l-5.214 4.094a.75.75 0 0 0-.126 1.054l10.129 12.816a.753.753 0 0 0 .583.285l24.65.129a9.013 9.013 0 0 0 5.662-1.941l12.864-10.17a3.76 3.76 0 0 0 .616-5.279zm-63.442 10.268l5.065-4.006a.576.576 0 0 1 .809.095l10.1 12.771a.576.576 0 0 1-.095.809l-5.065 4.006a.576.576 0 0 1-.809-.095l-10.1-12.771a.576.576 0 0 1 .095-.809z" fill="url(#j)"/><g fill="#bfbfbf"><use xlink:href="#k"/><use xlink:href="#l"/></g><path d="M146.727 73.449h-26.6a3.223 3.223 0 0 0-3.1 3.3 3.183 3.183 0 0 0 3.1 3.1h3.2a3.2 3.2 0 1 1 0 6.4h-16.3a3.223 3.223 0 0 0-3.1 3.3 3.183 3.183 0 0 0 3.1 3.1h9.5a3.2 3.2 0 1 1 0 6.4h-16.1a3.14 3.14 0 0 0-3 3.265v.035a3.243 3.243 0 0 0 3 3.1h24.1a3.2 3.2 0 1 1 0 6.4h-6.3a3.2 3.2 0 1 0 0 6.4h28.5c12.371-.005 22.396-10.038 22.391-22.409-.005-12.364-10.027-22.386-22.391-22.391zm-.2 38.5c-8.836.055-16.044-7.064-16.099-15.9s7.064-16.044 15.9-16.099 16.044 7.063 16.099 15.899v.1c.021 8.806-7.094 15.966-15.9 16z" fill="url(#m)"/><path d="M147.158 91.207a1.037 1.037 0 0 0-.328.497L145 97.717l-1.839-5.984a1 1 0 0 0-.379-.534 1.063 1.063 0 0 0-1.238.001.98.98 0 0 0-.377.53l-1.84 5.987-1.831-6.016a1.043 1.043 0 0 0-.327-.495.95.95 0 0 0-1.239.054.84.84 0 0 0-.249.647c0 .083.015.178.055.325l2.521 7.741c.091.252.232.45.421.591a1.12 1.12 0 0 0 1.335-.017 1.13 1.13 0 0 0 .41-.588l1.74-5.51 1.738 5.505a1.14 1.14 0 0 0 .41.592 1.09 1.09 0 0 0 .677.231c.244 0 .466-.072.661-.215.188-.14.329-.338.424-.601l2.522-7.746a1.22 1.22 0 0 0 .05-.292.855.855 0 0 0-.248-.665.944.944 0 0 0-1.24-.053zm9.643 1.505v-.001c-.254-.487-.674-.891-1.248-1.197-.563-.3-1.287-.451-2.152-.451h-2.928a.897.897 0 0 0-.659.278.92.92 0 0 0-.263.656v7.859a.9.9 0 0 0 .268.654.907.907 0 0 0 .654.268.92.92 0 0 0 .655-.263.91.91 0 0 0 .279-.659v-2.404h1.994c.867 0 1.591-.151 2.152-.451.573-.306.993-.708 1.248-1.197a3.31 3.31 0 0 0 .373-1.546 3.31 3.31 0 0 0-.373-1.546zm-1.483 1.546c0 .4-.139.726-.425.994-.287.271-.828.408-1.607.408h-1.878v-2.806h1.878c.779 0 1.32.138 1.607.408s.425.594.425.995z" fill="#a09f9f"/><g fill="#fff"><use xlink:href="#b" y="-61.668"/><path d="M24.268 22.391a2.4 2.4 0 0 0-2.398 2.398 2.4 2.4 0 0 0 2.398 2.398h20.383a16.4 16.4 0 0 1 2.298.2c8.652 1.209 14.687 9.202 13.478 17.855a15.82 15.82 0 0 1-5.985 10.321h12.789a6.013 6.013 0 0 0 5.995-5.995V22.391H24.268zm19.265 9.998c-5.183 0-7.96 3.085-9.88 5.588-.878 1.144-1.02 2.672-.001 3.692a2.61 2.61 0 0 0 3.692.001c2.173-2.172 3.315-4.06 6.189-4.06 3.563 0 6.353 2.886 6.353 6.571 0 3.213-3.002 6.084-6.299 6.084-1.726 0-3.242-.591-4.57-1.919l-10.32-10.395c-.898-.908-1.924-1.581-3.056-2.003-.961-.357-2.023-.524-3.34-.524-3.71 0-8.174 3.403-8.174 8.087 0 4.649 2.973 9.004 8.534 9.004 3.484 0 5.721-2.258 5.964-2.515a2.59 2.59 0 0 0-.087-3.643c-.963-.942-2.478-.964-3.496-.122-.717.623-1.505 1.117-2.498 1.117a3.39 3.39 0 0 1-3.388-3.388 3.39 3.39 0 0 1 3.388-3.388 3.37 3.37 0 0 1 2.439 1.045l.004.004L36.13 52.848c1.786 1.787 4.295 2.693 7.456 2.693 6.244 0 11.519-5.203 11.519-11.361 0-6.503-5.192-11.793-11.574-11.793zm440.643-21.07c12.73.028 23.028 10.37 23 23.1s-10.37 23.028-23.1 23-23.028-10.37-23-23.1c.028-12.691 10.309-22.972 23-23h.1m-5.2 25.8c-.3 0-.6 0-.5.4.07 1.791.339 3.568.8 5.3a23.04 23.04 0 0 0 2.6 7.2 13.05 13.05 0 0 0 1.5 2c.5.5.8.5 1.4 0a6.45 6.45 0 0 0 .8-.9 20.626 20.626 0 0 0 2.8-6 35.07 35.07 0 0 0 1.3-7.2c0-.533-.267-.8-.8-.8h-9.9zm-.4-5.7h10.8c.3 0 .4 0 .4-.4v-1.2a34.5 34.5 0 0 0-1.5-7.1 17.61 17.61 0 0 0-2.9-5.6c-.9-1.1-1.3-1-2.2 0a17.39 17.39 0 0 0-2.3 4 32.546 32.546 0 0 0-1.9 7.6c-.049.91-.183 1.814-.4 2.7zm-2.2 19.1v-.5a40.335 40.335 0 0 1-3.1-12.4c0-.4 0-.5-.5-.5h-6.5a17.535 17.535 0 0 0 4.2 8.9 16.06 16.06 0 0 0 5.9 4.5zm25.5-13.3h-6.7c-.3 0-.4 0-.4.4a21.99 21.99 0 0 1-.4 3.6 30.93 30.93 0 0 1-2.4 8.9v.4a18.225 18.225 0 0 0 10-13.3h-.1zm0-5.8a17.733 17.733 0 0 0-4.9-9.6 14.6 14.6 0 0 0-5.2-3.7v.5a39.975 39.975 0 0 1 2.8 12.4c0 .4 0 .6.6.5h6.6l.1-.1zm-25.5-13.3a18.225 18.225 0 0 0-10 13.3h6.4c.4 0 .6 0 .6-.5v-1.6a45.25 45.25 0 0 1 1.7-8.3l1.1-2.9"/><use xlink:href="#e" y="-61.48"/><use xlink:href="#f" y="-61.48"/><circle cx="289.227" cy="40.346" r="3.1"/><use xlink:href="#h" y="-61.479"/><path d="M320.827 25.046h-31.4a3.033 3.033 0 0 0-3 3.061v.039a3.076 3.076 0 0 0 3 3h10.4a2.97 2.97 0 0 1 3 2.939v.161a3.03 3.03 0 0 1-2.96 3.1h-.34a3.033 3.033 0 0 0-3 3.061v.039a3.076 3.076 0 0 0 3 3h21.3a9.16 9.16 0 0 0 9.1-9.2 9.03 9.03 0 0 0-8.855-9.2h-.245zm-7.1 12.3a1.1 1.1 0 0 1-.8 0 3.054 3.054 0 0 1-2.609-3.442l.009-.058a3.03 3.03 0 0 1 3.445-2.541 3.03 3.03 0 0 1 2.555 3.341 3.186 3.186 0 0 1-2.6 2.7zm7.6 0a2.97 2.97 0 0 1-3-2.939v-.161a3.03 3.03 0 0 1 2.96-3.1h.04a3.1 3.1 0 1 1 0 6.2zm112.566-1.037a3.762 3.762 0 0 0-5.27-.628l-10.63 8.33a3.01 3.01 0 0 1-1.85.639l-13.616.007a1.88 1.88 0 0 1-1.838-1.917 1.88 1.88 0 0 1 1.831-1.838l10.892-.007a3.756 3.756 0 0 0-.008-7.511l-23.113.012a9.026 9.026 0 0 0-5.562 1.925l-5.214 4.094a.75.75 0 0 0-.126 1.054l10.129 12.816a.753.753 0 0 0 .583.285l24.65.129a9.013 9.013 0 0 0 5.662-1.941l12.864-10.17a3.76 3.76 0 0 0 .616-5.279z"/><rect x="374.586" y="42.694" width="7.61" height="17.434" rx=".576" transform="rotate(-38.338 378.39 51.411)"/><use xlink:href="#k" y="-61.48"/><use xlink:href="#l" y="-61.48"/><path d="M146.727 11.969h-26.6a3.223 3.223 0 0 0-3.1 3.3 3.183 3.183 0 0 0 3.1 3.1h3.2a3.2 3.2 0 0 1 0 6.4h-16.3a3.223 3.223 0 0 0-3.1 3.3 3.183 3.183 0 0 0 3.1 3.1h9.5a3.2 3.2 0 1 1 0 6.4h-16.1a3.14 3.14 0 0 0-3 3.265v.035a3.243 3.243 0 0 0 3 3.1h24.1a3.2 3.2 0 1 1 0 6.4h-6.3a3.2 3.2 0 1 0 0 6.4h28.5c12.371-.005 22.396-10.038 22.391-22.409-.005-12.364-10.027-22.386-22.391-22.391zm-.2 38.5c-8.836.055-16.044-7.064-16.099-15.9s7.064-16.044 15.9-16.099 16.044 7.063 16.099 15.899v.1c.021 8.806-7.094 15.966-15.9 16zm.631-20.742a1.037 1.037 0 0 0-.328.497L145 36.237l-1.839-5.984a1 1 0 0 0-.379-.534 1.063 1.063 0 0 0-1.238.001.98.98 0 0 0-.377.53l-1.84 5.987-1.831-6.016a1.043 1.043 0 0 0-.327-.495.95.95 0 0 0-1.239.054.84.84 0 0 0-.249.647c0 .083.015.178.055.325l2.521 7.741c.091.252.232.45.421.591a1.12 1.12 0 0 0 1.335-.017 1.13 1.13 0 0 0 .41-.588l1.74-5.51 1.738 5.505a1.14 1.14 0 0 0 .41.592 1.09 1.09 0 0 0 .677.231c.244 0 .466-.072.661-.215.188-.14.329-.338.424-.601l2.522-7.746a1.22 1.22 0 0 0 .05-.292.855.855 0 0 0-.248-.665.944.944 0 0 0-1.24-.053zm9.643 1.505v-.001c-.254-.487-.674-.891-1.248-1.197-.563-.3-1.287-.451-2.152-.451h-2.928a.897.897 0 0 0-.659.278.92.92 0 0 0-.263.656v7.859a.9.9 0 0 0 .268.654.907.907 0 0 0 .654.268.92.92 0 0 0 .655-.263.91.91 0 0 0 .279-.659v-2.404h1.994c.867 0 1.591-.151 2.152-.451.573-.306.993-.708 1.248-1.197a3.31 3.31 0 0 0 .373-1.546 3.31 3.31 0 0 0-.373-1.546zm-1.483 1.546c0 .4-.139.726-.425.994-.287.271-.828.408-1.607.408h-1.878v-2.806h1.878c.779 0 1.32.138 1.607.408s.425.594.425.995z"/></g></svg>