<svg xmlns="http://www.w3.org/2000/svg" viewBox="0 0 2100 600"><path d="M715.4 359.9l-47.7-85h-27.3v85H580V119.1h105.4c24 0 42.6 5.1 57.7 16.2 18.6 13.5 28.2 35.7 28.2 59.8 0 29.4-14.1 58-45.6 70.9l55.6 94-65.9-.1zm-37.8-193.4H640v63.7h37.5c21.6 0 35.1-12.6 35.1-32.1.1-22.3-14.9-31.6-35-31.6zm130.9 193.4V119.1h60.4V360h-60.4zm211.8-83.5h-49.9v83.5h-60.1V119.1H1019c53.5 0 84.4 32.7 84.4 77.2.1 39.9-24.3 80.1-83.1 80.1zm-11.1-109.9h-38.7v63.7h38.7c20.7 0 35.1-10.8 35.1-32.4 0-20.8-13.5-31.3-35.1-31.3zm124.6 193.4V119.1H1311v49h-117.1v46h98.5v48.6h-98.5v48.1h117.7v49.3l-177.8-.2zm450.2 0l-94.3-141.5h-.6v141.5h-55.9V119.1h58.6l91.6 136.1h.6V119.1h56.2V360H1584v-.1zm193.4 4.2c-53.2 0-102.7-26.7-102.7-86.8V204c0-59.2 48.1-88.9 100.9-88.9 46.9 0 97.9 23.7 97.9 79.3v15.3h-56.8v-9.6c0-24.9-21.3-35.7-39.9-35.7-21.3 0-41.7 11.1-41.7 38.4v73c0 24.6 18 38.7 42.6 38.7 18.6 0 39-10.5 39-35.7v-9.9h56.8v16.2c.3 55.3-49.5 79-96.1 79zm226.5 0c-53.2 0-102.7-26.7-102.7-86.8V204c0-59.2 48.1-88.9 100.9-88.9 46.9 0 97.9 23.7 97.9 79.3v15.3h-56.7v-9.6c0-24.9-21.3-35.7-39.9-35.7-21.3 0-41.7 11.1-41.7 38.4v73c0 24.6 18 38.7 42.6 38.7 18.6 0 39-10.5 39-35.7v-9h56.8v15.3c.2 55.3-49.4 79-96.2 79zM381.1 259.9V120l-130-75.1L121 120v140.3L0 329.9V480l130 75.1 121-70 121 70L502.2 480V329.9l-121.1-70zm-130 64.6l-103.3-59.8L251.1 205l103.3 59.8-103.3 59.7zm-112.3-44.1l103.3 59.8v119.2l-103.3-59.8V280.4zm121.3 59.7l103.3-59.8v119.2L260.1 459V340.1zM138.7 130.2L251 65.3l112.3 64.9v119.2L251 184.5l-112.3 64.9V130.2zm-121 339.4V339.8L121 280v129.4l112.3 64.9-103.6 59.8-112-64.5zm466.8 0l-112.3 64.9-103.6-59.8 112.3-64.9V280.3l103.3 59.8.3 129.5zm105.4-13.3V480h-6.6v-57.3h15.6c6.9 0 12.3 1.2 15.6 3.9 3.3 2.7 5.1 6.6 5.1 12.3 0 7.5-3.9 12.6-11.4 15.3l15.6 25.8H616l-13.8-23.7h-12.3zm0-5.7h9c4.8 0 8.1-.9 10.5-2.7 2.4-1.8 3.3-4.8 3.3-8.4 0-3.9-1.2-6.6-3.3-8.1s-5.7-2.4-10.8-2.4h-8.7v21.6zm43.2 29.4v-57.3h6.6V480h-6.6zm58.6-40.5c0 5.7-2.1 10.2-6 13.5-3.9 3-9.6 4.8-17.1 4.8H662v22.5h-6.6V423h15c14.4-.3 21.3 5.4 21.3 16.5zm-29.4 12.3h6c6 0 10.2-.9 12.9-3 2.7-1.8 3.9-5.1 3.9-9.3 0-3.9-1.2-6.6-3.6-8.4-2.4-1.8-6.3-2.7-11.7-2.7h-7.5v23.4zm73.5 28.2h-32.1v-57.3h32.1v6h-25.2v18.6h23.7v6h-23.7v21h25.2v5.7zm78.4 0h-7.5l-31.2-48h-.3c.3 5.7.6 10.8.6 15.6v32.7h-6.3V423h7.5l31.2 48.1h.3c0-.6-.3-3-.3-6.9-.3-3.9-.3-6.6-.3-8.1v-33h6.3V480zm47.8 0h-32.1v-57.3H862v6h-25.2v18.6h23.7v6h-23.7v21H862v5.7zm30.3 0h-6.6v-51.3h-18.3v-6h42.9v6h-18V480zm76.9 0h-6.6l-11.7-38.4c-.6-1.8-1.2-3.9-1.8-6.3-.6-2.4-.9-4.2-1.2-4.8-.7 3.9-1.6 7.7-2.7 11.4L934.1 480h-6.6l-15.3-57.4h7.2l9 35.4c1.2 5.1 2.1 9.6 2.7 13.5.7-4.8 1.7-9.5 3-14.1l10.2-34.8h7.2l10.8 35.1c1.3 4.5 2.4 9.2 3.3 13.8.6-3.6 1.5-8.1 2.7-13.5l9-35.4h7.2L969.2 480zm74.2-28.8c0 9.3-2.4 16.5-6.9 21.6-4.5 5.4-11.1 7.8-19.5 7.8s-15-2.7-19.5-7.8-6.9-12.6-6.9-21.9 2.4-16.5 6.9-21.6 11.1-7.8 19.5-7.8c8.1 0 14.7 2.7 19.2 7.8 5.1 5.7 7.2 12.9 7.2 21.9zm-45.6 0c0 7.8 1.8 13.8 5.1 17.7s8.1 6 14.4 6 11.1-2.1 14.4-6c3.3-3.9 4.8-9.9 4.8-17.7 0-7.8-1.5-13.5-4.8-17.4-3.3-3.9-8.1-6-14.4-6s-11.1 2.1-14.4 6-5.2 9.9-5.1 17.4zm65.1 5.1V480h-6.6v-57.3h15.6c6.9 0 12.3 1.2 15.6 3.9s5.1 6.6 5.1 12.3c0 7.5-3.9 12.6-11.4 15.3l15.6 25.8h-7.8l-13.8-23.7h-12.3zm0-5.7h9c4.8 0 8.1-.9 10.5-2.7 2.1-1.8 3.3-4.8 3.3-8.4 0-3.9-1.2-6.6-3.3-8.1s-5.7-2.4-10.8-2.4h-8.7v21.6zm84.7 29.4h-7.8l-21-27.9-6 5.4V480h-6.6v-57.3h6.6v28.5l26.1-28.5h7.8l-23.1 24.9 24 32.4zm53.2-52.2c-6.3 0-11.4 2.1-15 6.3-3.6 4.2-5.4 9.9-5.4 17.1 0 7.5 1.8 13.2 5.4 17.4 3.6 4.2 8.4 6 15 6 4.7 0 9.3-.8 13.8-2.1v5.7c-3.9 1.5-9 2.1-14.7 2.1-8.4 0-15-2.7-19.5-7.8s-6.9-12.3-6.9-21.9c-.1-5.4 1.1-10.7 3.3-15.6 2-4.3 5.4-7.9 9.6-10.2 4.2-2.4 9-3.6 14.7-3.6 5.5-.1 10.9 1.1 15.9 3.3l-2.7 5.7c-4.8-1.2-9-2.4-13.5-2.4zm76 23.4c0 9.3-2.4 16.5-6.9 21.6-4.5 5.4-11.1 7.8-19.5 7.8s-15-2.7-19.5-7.8-6.9-12.6-6.9-21.9 2.4-16.5 6.9-21.6 11.1-7.8 19.5-7.8c8.1 0 14.7 2.7 19.2 7.8 4.8 5.7 7.2 12.9 7.2 21.9zm-45.7 0c0 7.8 1.8 13.8 5.1 17.7 3.3 3.9 8.1 6 14.4 6s11.1-2.1 14.4-6c3.3-3.9 4.8-9.9 4.8-17.7 0-7.8-1.5-13.5-4.8-17.4-3.3-3.9-8.1-6-14.4-6s-11.1 2.1-14.4 6c-3.6 3.9-5.1 9.9-5.1 17.4zm108.4 0c0 9.3-2.4 16.5-6.9 21.6-4.5 5.4-11.1 7.8-19.5 7.8s-15-2.7-19.5-7.8-6.9-12.6-6.9-21.9 2.4-16.5 6.9-21.6 11.1-7.8 19.5-7.8c8.1 0 14.7 2.7 19.2 7.8 4.8 5.7 7.2 12.9 7.2 21.9zm-45.9 0c0 7.8 1.8 13.8 5.1 17.7 3.3 3.9 8.1 6 14.4 6s11.1-2.1 14.4-6c3.3-3.9 4.8-9.9 4.8-17.7 0-7.8-1.5-13.5-4.8-17.4-3.3-3.9-8.1-6-14.4-6s-11.1 2.1-14.4 6c-3.3 3.9-5.1 9.9-5.1 17.4zm65.2 5.1V480h-6.6v-57.3h15.6c6.9 0 12.3 1.2 15.6 3.9s5.1 6.6 5.1 12.3c0 7.5-3.9 12.6-11.4 15.3l15.6 25.8h-7.8l-13.8-23.7h-12.3zm0-5.7h9c4.8 0 8.1-.9 10.5-2.7 2.1-1.8 3.3-4.8 3.3-8.4 0-3.9-1.2-6.6-3.3-8.1-2.1-1.5-5.7-2.4-10.8-2.4h-8.7v21.6zm88.9.3c0 9.6-2.7 16.8-7.8 21.6-5.1 5.1-12.6 7.5-22.2 7.5h-15.9v-57.4h17.7c9 0 15.9 2.4 20.7 7.5 5.1 4.9 7.5 11.8 7.5 20.8zm-7 .3c0-7.5-1.8-13.2-5.7-16.8-3.6-3.9-9.3-5.7-16.8-5.7h-9.6v46h8.1c7.8 0 13.8-2.1 18-6 4.2-4 6-10 6-17.5zm19.9 28.8v-57.3h6.6V480h-6.6zm67.3 0h-7.8l-31.2-48.1h-.3c.3 5.7.6 10.8.6 15.6v32.7h-6.3V423h7.5l31.2 48.1h.3c0-.6-.3-3-.3-6.9-.3-3.9-.3-6.6-.3-8.1v-33h6.3v57l.3-.1zm51.6 0l-7.2-18.3h-23.1L1542 480h-6.6l22.8-57.7h5.7l22.5 57.7h-6.9zm-9-24.3l-6.6-17.7c-.9-2.4-1.8-5.1-2.7-8.4-.6 2.4-1.5 5.4-2.4 8.4l-6.6 17.7h18.3zm41.7 24.3h-6.6v-51.3h-18.3v-6h42.9v6h-18.3V480h.3zm26.8 0v-57.3h6.6V480h-6.6zm72.1-28.8c0 9.3-2.4 16.5-6.9 21.6-4.5 5.4-11.1 7.8-19.5 7.8s-15-2.7-19.5-7.8-6.9-12.6-6.9-21.9 2.4-16.5 6.9-21.6 11.1-7.8 19.5-7.8c8.1 0 14.7 2.7 19.2 7.8 5.1 5.7 7.2 12.9 7.2 21.9zm-45.7 0c0 7.8 1.8 13.8 5.1 17.7 3.3 3.9 8.1 6 14.4 6s11.1-2.1 14.4-6c3.3-3.9 4.8-9.9 4.8-17.7 0-7.8-1.5-13.5-4.8-17.4-3.3-3.9-8.1-6-14.4-6s-11.1 2.1-14.4 6c-3.3 3.9-5.1 9.9-5.1 17.4zm103.3 28.8h-7.5l-31.2-48h-.3c.3 5.7.6 10.8.6 15.6v32.7h-6.3V423h7.5l31.2 48.1h.3c0-.6-.3-3-.3-6.9-.3-3.9-.3-6.6-.3-8.1v-33h6.3V480zm61.3-52.2c-6.3 0-11.4 2.1-15 6.3-3.6 4.2-5.4 9.9-5.4 17.1 0 7.5 1.8 13.2 5.4 17.4 3.6 4.2 8.4 6 15 6 4.7 0 9.3-.8 13.8-2.1v5.7c-3.9 1.5-9 2.1-14.7 2.1-8.4 0-15-2.7-19.5-7.8s-6.9-12.3-6.9-21.9c-.1-5.4 1.1-10.7 3.3-15.6 2-4.3 5.4-7.9 9.6-10.2 4.2-2.4 9-3.6 14.7-3.6 5.5-.1 10.9 1.1 15.9 3.3l-2.7 5.7c-4.8-1.2-9-2.4-13.5-2.4zm58.3 52.2h-32.1v-57.3h32.1v6H1863v18.6h23.7v6H1863v21h25.2v5.7zm57.3 0h-7.5l-31.2-48.1h-.3c.3 5.7.6 10.8.6 15.6v32.7h-6.3V423h7.5l31.2 48.1h.3c0-.6-.3-3-.3-6.9-.3-3.9-.3-6.6-.3-8.1v-33h6.3V480zm33.7 0h-6.6v-51.3h-18.3v-6h42.9v6H1979V480h.3zm33.3-23.7V480h-6.6v-57.3h15.6c6.9 0 12.3 1.2 15.6 3.9s5.1 6.6 5.1 12.3c0 7.5-3.9 12.6-11.4 15.3l15.6 25.8h-7.8l-13.8-23.7h-12.3zm0-5.7h9c4.8 0 8.1-.9 10.5-2.7 2.1-1.8 3.3-4.8 3.3-8.4 0-3.9-1.2-6.6-3.3-8.1s-5.7-2.4-10.8-2.4h-8.7v21.6zm75.1 29.4h-32.1v-57.3h32.1v6h-25.2v18.6h23.7v6h-23.7v21h25.2v5.7z" fill="#707070"/></svg>