<svg xmlns="http://www.w3.org/2000/svg" viewBox="0 0 2100 600"><path d="M1632.6 344.3c-1.2 13.4-7.1 23-15.9 29.5 153.4-69.4 243.9-146.6 232.3-212.9-21.7-124.9-397.1-164-838.4-87-192.6 33.5-366 83.6-498.4 139.8 7-1.7 14.8-2.4 23-2.4 23.4 0 55.8 5.6 55.8 41.7v11.6h-41.2v-10.2c0-9-5.7-15-15.4-15-10.4 0-14 5.8-15.1 11.1-.5 2.9-.5 5.9.2 8.7 4.6 19.3 67.5 29.7 74.4 64.3.7 3.5 2.2 12.9.2 27.2-3.9 27.6-28.5 37.8-58.5 37.8-31.1 0-60.2-11.1-60.2-48v-12.8h44.4v16c0 9.1 6.3 15 16.7 15 11 0 14.7-5.6 16.1-11.1.8-3.1 1.3-8.3-.4-12.3-8.5-21.4-67.3-31.2-74.5-65-1.7-8.3-1.6-14.9-.4-22.4 1.9-11.6 7.5-20 15.5-25.8-159.1 70.3-253.6 149.3-241.8 217 21.8 125 397.2 164 838.4 87.1 196.9-34.3 373.6-85.8 507-143.5-7.2 1.6-14.6 2.4-22 2.4-29.4 0-55.4-10.7-58.2-40.8-.5-5.5-.5-7.8-.6-10.9v-69.6c0-3 .4-8.1.7-10.9 3.7-30.9 28.7-40.9 58.1-40.9 29.4 0 55 9.9 58.1 40.9.3 3.6.4 7.3.4 10.9v5.5h-41.7V260c0-2.1-.2-4.2-.5-6.3-.7-3.7-3.9-12.1-16.5-12.1-12.1 0-15.6 7.9-16.5 12.1-.5 2.6-.7 5.2-.7 7.8v75.7c0 2.1.1 4.2.4 6.3.7 4.3 4.8 11.9 16.8 11.9s16.2-7.6 16.9-12c.3-2.1.4-4.2.4-6.3v-24h-17V289h58.7v44.4c-.1 3.1-.1 5.4-.6 10.9zm-920.4 37.5l-22-150.1h-.9l-22.7 150.1h-44.7l30.7-165.4h73.6l30.6 165.4h-44.6zm220.1 0l-1.1-148.7h-.8l-27.6 148.7h-42L833 233.1h-.9l-1 148.7h-41.4l3.7-165.4h67.5l20.4 126.5h.9l20.4-126.5H970l3.6 165.4h-41.3zm199.2-31.8c-3.9 27.3-28.3 37.4-57.9 37.4-30.8 0-59.6-11-59.6-47.5l.1-12.6h43.9v15.9c0 8.9 6.3 14.8 16.5 14.8 10.9 0 14.6-5.5 16-11 .7-3.1 1.3-8.1-.4-12.1-8.4-21.2-66.6-30.9-73.7-64.4-1.7-8.3-1.6-14.8-.4-22.1 4.3-26.8 28.1-36.3 57.2-36.3 23.2 0 55.3 5.6 55.3 41.2v11.5h-40.9v-10.1c0-9-5.6-14.8-15.2-14.8-10.3 0-13.8 5.7-15 11-.5 2.8-.5 5.8.2 8.6 4.6 19.2 66.8 29.4 73.7 63.7.8 3.4 2.2 12.7.2 26.8zm155.3-4.2c-3 30.9-27.3 40.9-57.7 40.9-30.4 0-54.9-10-57.8-40.9-.1-1.6-.4-7.8-.4-10.8V216.3h41.8v122.4c0 2.1.1 4.2.4 6.3.9 4.1 4.4 12 16 12 11.5 0 15-7.9 15.8-12 .3-2.1.5-4.2.4-6.3V216.3h41.8V335c.2 3.1-.1 9.3-.3 10.8zm185.6 34.3h-58.9l-40.9-134.3h-.9l2.3 134.3h-40.7V216.4h61.4l38 129.9h.9l-2.2-129.9h40.9l.1 163.7z" fill="#707070"/></svg>