<svg xmlns="http://www.w3.org/2000/svg" width="81.032" height="78.186"><g data-name="Group 229"><path data-name="Union 6" d="M42.899 72.761a5.707 5.707 0 0 1 4.956-6.4 28.123 28.123 0 0 0 0-54.491 5.744 5.744 0 0 1-4.715-3.974 5.612 5.612 0 0 1 1.676-5.876 5.848 5.848 0 0 1 6.127-.981A39.727 39.727 0 0 1 80.532 39.23a39.726 39.726 0 0 1-29.589 38.191 5.88 5.88 0 0 1-1.533.212 5.942 5.942 0 0 1-.785.052 5.756 5.756 0 0 1-5.726-4.924zm-11.23 4.871h-.024a5.861 5.861 0 0 1-1.556-.211A39.727 39.727 0 0 1 .499 39.229a39.726 39.726 0 0 1 29.589-38.19 5.793 5.793 0 0 1 7.123 3.937 5.671 5.671 0 0 1-4.01 7 28.123 28.123 0 0 0 0 54.491 5.676 5.676 0 0 1 4.245 6.244 5.738 5.738 0 0 1-5.716 4.913zm-8.054-33.5h33.113c-.922 4.078-7.9 11.038-16.554 11.038-8.758.006-15.646-6.994-16.559-11.033zm25.834-12.123c-4.018 0-5.809 4-5.809 4s-1.931-1.282-2.511-1.685c.936-2.49 4.012-6.665 8.32-6.665s7.385 4.175 8.326 6.665c-.586.4-2.513 1.685-2.513 1.685s-1.675-4-5.813-4zm-18.95 0c-4.018 0-5.809 4-5.809 4s-1.931-1.283-2.51-1.685c.935-2.49 4.012-6.665 8.32-6.665s7.385 4.175 8.327 6.665c-.586.4-2.514 1.685-2.514 1.685s-1.678-4-5.814-4z" fill="#007bff" stroke="rgba(0,0,0,0)" stroke-miterlimit="10"/></g></svg>