<svg xmlns="http://www.w3.org/2000/svg" viewBox="0 0 1132.81 278.19"><path d="M254.35 118.18H183l-22-67.86-22.09 67.86-71.3-.07 57.74 42-22.09 67.78L161 186l57.66 41.91-22-67.78zm202.65 0h-71.3l-22-67.86-22.09 67.86-71.3-.07 57.74 42L306 227.87 363.73 186l57.67 41.9-22-67.78zm198.14 1.03h-67.77l-20.94-64.5-21 64.51-67.78-.07 54.89 39.91-21 64.43 54.88-39.84 54.82 39.84-20.93-64.43zm202.72 0h-67.78l-20.94-64.5-21 64.51-67.78-.07 54.89 39.91-21 64.43 54.89-39.84L824 223.48l-21-64.43zm207.31-1.03h-71.3l-22-67.86-22.09 67.86-71.29-.07 57.73 42-22.09 67.78L971.85 186l57.67 41.91-22-67.78z" fill="#fff"/></svg>