<svg id="Layer_1" data-name="Layer 1" xmlns="http://www.w3.org/2000/svg" width="111.6" height="29.3"><defs><style>.cls-1{isolation:isolate}.cls-2{fill:#424242}</style></defs><g id="All_plans" data-name="All plans"><g id="Team_20i" data-name="Team 20i" class="cls-1"><g class="cls-1"><path class="cls-2" d="M1.9 10.4h-.6c-.1-.1-.2-.2-.2-.3a1.1 1.1 0 0 1-.1-.4v-.5a4.3 4.3 0 0 1 .1-.5l.2-.6.3-.4.5-.2 2.8-.4 2.4-.2h6l1.9.2 2 .2c0 .1.1.4 0 .6v.4l-.2.3-.2.3-.4.3H11l-1 3.5q-.6 2.1-1.2 4.5l-1.2 4.5a41.8 41.8 0 0 0-.8 4.1c-.3 1.2-.5 2.4-.7 3.5s-.1 1-.2 1.5l-.3 1.6c-.1.5-.1 1-.2 1.4s-.1.9-.2 1.3l-.9.4-.8.2h-.7a1.4 1.4 0 0 1-.9-.2c-.2-.1-.2-.4-.1-.7s.3-1.1.6-2.4.3-1.2.5-2l.7-3c.2-1.2.6-2.6.9-4.1l1.3-5.5 2.1-8.6-1.8.3-1.7.4-1.5.3zm25.8 13.1a24.7 24.7 0 0 1-2.1 2.7 27.3 27.3 0 0 1-2.5 2.3 12.8 12.8 0 0 1-2.7 1.6 7.7 7.7 0 0 1-2.7.7 4.2 4.2 0 0 1-1.5-.4 3.6 3.6 0 0 1-1.5-1 4.5 4.5 0 0 1-1-1.8 5.3 5.3 0 0 1-.3-2.6 9.2 9.2 0 0 1 .8-2.7 9.8 9.8 0 0 1 1.7-2.6 8.3 8.3 0 0 1 2.2-2 4.9 4.9 0 0 1 2.5-.8 2.1 2.1 0 0 1 1.7.6 2 2 0 0 1 .5 1.5 6.4 6.4 0 0 1-.6 1.8 7.1 7.1 0 0 1-1 1.4 7.5 7.5 0 0 1-1.4 1.2l-1.3 1-1.3.9-1.1.7a2.3 2.3 0 0 0 .3 1.3 2 2 0 0 0 .6.9 1.9 1.9 0 0 0 .9.5h.9a4.1 4.1 0 0 0 2.3-.7 10.2 10.2 0 0 0 2.2-1.6 13.4 13.4 0 0 0 2.1-2l1.6-1.6a.5.5 0 0 1 .4-.3c.2-.1.3-.1.4 0s.1.2.1.4a.7.7 0 0 1-.2.6zm-8-4.8a1.6 1.6 0 0 0-.9.4 4.7 4.7 0 0 0-1 1 15 15 0 0 0-.9 1.8 10.5 10.5 0 0 0-.7 2.3l.8-.6.9-.6a11.3 11.3 0 0 0 1.9-1.8 7.3 7.3 0 0 0 .6-1.4c0-.4 0-.7-.2-.8a.5.5 0 0 0-.5-.3z" transform="translate(-1 -6.4)"/><path class="cls-2" d="M41.5 23.8l-1.1 1.5-1.4 1.9-1.5 1.7a4.8 4.8 0 0 1-1.2 1 .9.9 0 0 1-.7.3l-.8.2H34l-.7-.3-.4-.6-.3-.9a3.2 3.2 0 0 1-.1-1.4 7.9 7.9 0 0 1-1.7 1.9l-1.7 1-1.9.4a1.6 1.6 0 0 1-.9-.3 2.2 2.2 0 0 1-.9-1 5.3 5.3 0 0 1-.4-1.6 6.9 6.9 0 0 1 .2-2.4 12.2 12.2 0 0 1 1.4-3.5 21.2 21.2 0 0 1 2.1-2.7 14.6 14.6 0 0 1 2.2-1.7 5.9 5.9 0 0 1 1.9-.5l1.3.5a2.1 2.1 0 0 1 .6 1 2.4 2.4 0 0 1-.5 1.6h1.2c.1 0 .2 0 .2.1a.3.3 0 0 1 .1.2c0 .2-.1.4-.1.8a10.6 10.6 0 0 0-.3 1.4c-.1.6-.3 1.4-.5 2.3a1.1 1.1 0 0 0-.1.5v.5a1.3 1.3 0 0 0-.1.6 6.4 6.4 0 0 0-.2.7v.7a1.3 1.3 0 0 0 .1.6l.3.4.6.2a1.2 1.2 0 0 0 .8-.4l1.1-1 1-1.5 1.2-1.5.9-1.2a3.3 3.3 0 0 0 .6-.8l.5-.3h.4a1.3 1.3 0 0 1 .1.6 2.8 2.8 0 0 1-.5 1zm-9.2 1.4c.1-.5.3-1 .4-1.5a12.4 12.4 0 0 0 .4-1.6 10.5 10.5 0 0 0 .2-1.3c.1-.4.1-.5 0-.5H32a1.9 1.9 0 0 0 .3-.9.4.4 0 0 0 0-.5.4.4 0 0 0-.1-.3c-.2-.2-.6-.1-1.2.4a11.6 11.6 0 0 0-2 3 13.4 13.4 0 0 0-.7 1.8 13.6 13.6 0 0 0-.4 1.7 7.1 7.1 0 0 0-.1 1.4 2.2 2.2 0 0 0 .3.8.8.8 0 0 0 .8.3 1.5 1.5 0 0 0 .9-.2l.9-.6.8-.8.6-.7c.1-.3.2-.4.2-.5z" transform="translate(-1 -6.4)"/><path class="cls-2" d="M54 28.6a7.6 7.6 0 0 1 .1-1.5 11.6 11.6 0 0 1 .4-1.8c.1-.6.3-1.1.4-1.7s.3-1.1.4-1.5a1.8 1.8 0 0 0-.1-1.3.7.7 0 0 0-.7-.4l-1 .4a6 6 0 0 0-1.6 1.6 12.3 12.3 0 0 0-1.7 2.9 19.8 19.8 0 0 0-1.3 4.6l-1.1.4h-.5c-.4 0-.7 0-.8-.2s-.1-.5.1-1.1a6.3 6.3 0 0 1 .4-1.4c.2-.7.4-1.4.7-2.2s.3-1.5.5-2.2a7.9 7.9 0 0 0 .2-2c0-.4 0-.7-.2-.8a.5.5 0 0 0-.5-.3l-1 .4a6.4 6.4 0 0 0-1.5 1.2 15.7 15.7 0 0 0-1.6 2.5 23.5 23.5 0 0 0-1.3 4.2.9.9 0 0 0-.1.5.9.9 0 0 0-.1.5.6.6 0 0 0-.1.4l-1.6.7h-.8c-.2 0-.3-.2-.3-.4a1.7 1.7 0 0 1 0-1l2-8.2c.1-.3.1-.5.2-.8v-.6c.1-.3 0-.4 0-.6l.9-.4.7-.2h.5c.7 0 .9.6.7 1.8s-.2.8-.4 1.4l1.3-1.5 1.3-1.2 1.4-.8 1.4-.3a1.2 1.2 0 0 1 .9.3l.6.8A3.7 3.7 0 0 1 51 20a7.6 7.6 0 0 1-.1 1.5l1.1-1.4 1.3-1.2 1.4-.8a2.8 2.8 0 0 1 1.5-.4 1.9 1.9 0 0 1 1.3.5 3.1 3.1 0 0 1 .6 1.3 9.1 9.1 0 0 1 .1 1.7l-.3 1.7-1.1 4.3c-.2 1 0 1.5.7 1.5a2.7 2.7 0 0 0 1.7-.7 10.2 10.2 0 0 0 1.8-1.8l1.7-2.1c.5-.8 1-1.3 1.3-1.8l.4-.2c.2-.1.3 0 .4 0s.1.2.1.4a1.3 1.3 0 0 1-.1.6l-1.6 2.4a12.2 12.2 0 0 1-2 2.5 11 11 0 0 1-2.3 2 4.6 4.6 0 0 1-2.5.8h-.9l-.7-.4a1.3 1.3 0 0 1-.6-.7 1.5 1.5 0 0 1-.2-1.1zm27.6 2.3c-.1-.3-.3-.5-.8-.7l-1.6-.4h-4l-1.3.2a1.3 1.3 0 0 0-.9.5 1.4 1.4 0 0 1-1.1.1 1.3 1.3 0 0 1-.9-1 1.4 1.4 0 0 0-.2-.7c0-.2-.1-.3-.2-.5a.8.8 0 0 0-.2-.5l1-1.7 1.2-1.4 1.5-1.5a23.1 23.1 0 0 0 1.9-1.6l2-1.9a17.9 17.9 0 0 0 2-2.6 14.3 14.3 0 0 0 1.6-3 13.5 13.5 0 0 0 .7-3.6 3 3 0 0 0-.5-2.3 2.1 2.1 0 0 0-1.6-.6 1.9 1.9 0 0 0-1 .4 4.7 4.7 0 0 0-1 1 3.8 3.8 0 0 0-.9 1.5 4.8 4.8 0 0 0-.5 1.7.7.7 0 0 0 .1.5v.4l.3.2-1 .6h-1l-.6-.2a1 1 0 0 1-.5-.6c-.2-.2-.2-.5-.2-.9a4.7 4.7 0 0 1 .5-1.6 6.2 6.2 0 0 1 1.5-1.9 8.6 8.6 0 0 1 2.4-1.7 9.5 9.5 0 0 1 3.5-.7 3 3 0 0 1 2 .6 3.1 3.1 0 0 1 1 1.3 12.4 12.4 0 0 1 .4 1.6v1.3a9 9 0 0 1-.7 2.7 11.6 11.6 0 0 1-1.4 2.7 15.7 15.7 0 0 1-1.9 2.6 26.2 26.2 0 0 1-2.2 2.5l-2.1 2-1.8 1.6a5.8 5.8 0 0 0-1.3 1.5 4.2 4.2 0 0 0-.7 1.3 11.7 11.7 0 0 1 2.1-.8 12.6 12.6 0 0 1 3-.3H80l1.4.2a1.9 1.9 0 0 1 .9.5v1.1a.7.7 0 0 1-.1.5 4.3 4.3 0 0 1-.1.5 4.7 4.7 0 0 1-.5 1.1zM95.9 6.4a2.9 2.9 0 0 1 2.1.9 5.5 5.5 0 0 1 1.3 2.4 10.7 10.7 0 0 1 .7 3.3 17 17 0 0 1-.1 3.9 22.7 22.7 0 0 1-1.6 6.7 18.8 18.8 0 0 1-2.4 4.3 8.7 8.7 0 0 1-2.7 2.2 6.4 6.4 0 0 1-2.4.7 2.4 2.4 0 0 1-1.4-.5 4.1 4.1 0 0 1-1.4-1.5 8.5 8.5 0 0 1-.9-2.7 14.1 14.1 0 0 1-.4-3.9 8.6 8.6 0 0 1 .3-3.1 22.5 22.5 0 0 1 .9-3.5 20.7 20.7 0 0 1 1.5-3.4 22 22 0 0 1 1.9-3 10.2 10.2 0 0 1 2.2-2 4.6 4.6 0 0 1 2.4-.8zm1.6 9.7a3.2 3.2 0 0 1 .1-.8v-1.5a10.8 10.8 0 0 0 0-1.8 5.2 5.2 0 0 0-.3-1.8 3.1 3.1 0 0 0-.6-1.3 1.4 1.4 0 0 0-1.1-.5c-.5 0-1 .4-1.7 1.2a15.7 15.7 0 0 0-2.1 3.3 32.2 32.2 0 0 0-1.7 5 25 25 0 0 0-.6 6.3v1.1l.3 1.5.6 1.4a1.2 1.2 0 0 0 1 .6 2.7 2.7 0 0 0 1.9-1.2 19.8 19.8 0 0 0 1.8-3 21.9 21.9 0 0 0 1.5-4.1 38.2 38.2 0 0 0 .9-4.4zm6.4 2.1l.6-.3.9-.2h1.3a2.8 2.8 0 0 1-.1.6 13.1 13.1 0 0 0-.5 1.5l-.6 1.7c-.2.6-.4 1.1-.5 1.5l-.3 1.2a10.3 10.3 0 0 0-.4 1.4l-.3 1.3a2.2 2.2 0 0 0 .1.9 1 1 0 0 0 .4.5h.4a3.5 3.5 0 0 0 1.6-.6l1.9-1.7 1.8-1.9 1.3-1.6a.7.7 0 0 1 .5-.4h.4a.5.5 0 0 1 .2.4 1.1 1.1 0 0 1-.2.7 10.5 10.5 0 0 1-1.5 2.1c-.6.8-1.3 1.5-2 2.3l-2.2 1.9a3.2 3.2 0 0 1-1.7.8l-1-.2a2.1 2.1 0 0 1-1-.6l-.7-.8-.3-1v-2.1a25.1 25.1 0 0 1 .4-2.7 18.1 18.1 0 0 1 .6-2.7 9.6 9.6 0 0 1 .9-2zm4.3-6.6c0 .2-.2.4-.3.7l-.6.5-.7.3a.7.7 0 0 1-.6-.2 2 2 0 0 1-.7-1 2 2 0 0 1 .3-1.1 2.4 2.4 0 0 1 .8-.9 2 2 0 0 1 .8-.4.7.7 0 0 1 .6.1 1 1 0 0 1 .4.5c0 .3.1.5.1.8a1.7 1.7 0 0 1-.1.7z" transform="translate(-1 -6.4)"/></g></g></g></svg>