<svg id="Layer_1" data-name="Layer 1" xmlns="http://www.w3.org/2000/svg" width="128" height="128"><defs><style>.cls-1{fill:#adadad}.cls-2{fill:#d8d8d8}.cls-4{fill:#fff}</style><linearGradient id="linear-gradient" x1="44.09" y1="67.92" x2="85.24" y2="67.92" gradientUnits="userSpaceOnUse"><stop offset="0" stop-color="#ffe500"/><stop offset=".03" stop-color="#fedd00"/><stop offset=".11" stop-color="#fcca00"/><stop offset=".19" stop-color="#fbbf00"/><stop offset=".28" stop-color="#fbbb00"/><stop offset=".67" stop-color="#ef8034"/><stop offset=".89" stop-color="#ea6033"/><stop offset="1" stop-color="#e63430"/></linearGradient></defs><path class="cls-1" d="M128 97.55a7.57 7.57 0 0 0-7.55-7.55H7.55A7.57 7.57 0 0 0 0 97.55v19.9A7.57 7.57 0 0 0 7.55 125h112.9c4.15 0 7.55-2 7.55-4.5v-12.05z"/><rect class="cls-2" y="3" width="128" height="117" rx="8" ry="8"/><path d="M122 26v80.62a5.4 5.4 0 0 1-5.39 5.38H12.39A5.4 5.4 0 0 1 7 106.62V26" fill="#353535"/><rect class="cls-4" x="13" y="69" width="101.73" height="14.74" rx="3.4" ry="3.4"/><circle class="cls-1" cx="10.5" cy="15.5" r="3.5"/><rect class="cls-4" x="13" y="51" width="101.73" height="14.74" rx="3.4" ry="3.4"/><rect class="cls-4" x="12" y="89" width="101.73" height="14.74" rx="3.4" ry="3.4"/><circle class="cls-1" cx="21" cy="15.5" r="3.5"/><circle class="cls-1" cx="32.2" cy="15.5" r="3.5"/><rect class="cls-1" x="73" y="12" width="49" height="7" rx="3.5" ry="3.5"/><circle class="cls-2" cx="20" cy="58" r="4"/><circle class="cls-2" cx="20" cy="77" r="4"/><circle class="cls-2" cx="20" cy="96" r="4"/><rect class="cls-4" x="13" y="32" width="101.73" height="14.74" rx="3.4" ry="3.4"/><circle class="cls-2" cx="21" cy="40" r="4"/><circle cx="65" cy="68" r="30" fill="#2b2b2b"/><path d="M71.35 70.92l1.76 1.85a6.19 6.19 0 0 0 9.09-.36 6.66 6.66 0 0 0-3.12-10.87 5.34 5.34 0 0 0-4.53.45 13.54 13.54 0 0 0-2.36 2c-1.75 1.82-3.45 3.68-5.17 5.53-1.52 1.63-3 3.27-4.55 4.89-.34.37-.72.71-1.09 1a9 9 0 0 1-8.7 2A9.91 9.91 0 0 1 54 58.1a8.55 8.55 0 0 1 7.21 2.14c.94.85 3.92 3.67 4.87 4.62" fill="none" stroke-linecap="round" stroke-linejoin="round" stroke-width="2.62" stroke="url(#linear-gradient)" id="twzMjU.tif"/></svg>